<svg width="44" height="44" viewBox="0 0 44 44" fill="none" xmlns="http://www.w3.org/2000/svg">
<path d="M38.5 0H5.5C2.46641 0 0 2.46641 0 5.5V30.25C0 33.2836 2.46641 35.75 5.5 35.75H13.75V42.9688C13.75 43.5789 14.2484 44 14.7812 44C14.9875 44 15.2023 43.9398 15.3914 43.7938L26.125 35.75H38.5C41.5336 35.75 44 33.2836 44 30.25V5.5C44 2.46641 41.5336 0 38.5 0ZM39.875 30.25C39.875 31.0063 39.2562 31.625 38.5 31.625H24.75L23.65 32.45L17.875 36.7812V31.625H5.5C4.74375 31.625 4.125 31.0063 4.125 30.25V5.5C4.125 4.74375 4.74375 4.125 5.5 4.125H38.5C39.2562 4.125 39.875 4.74375 39.875 5.5V30.25Z" fill="black"/>
</svg>
