<svg width="53" height="52" viewBox="0 0 53 52" fill="none" xmlns="http://www.w3.org/2000/svg">
<path fill-rule="evenodd" clip-rule="evenodd" d="M32.814 17.316L30.3668 17.3176C28.4477 17.3176 28.0755 18.2292 28.0755 19.5666V22.5176H32.6532L32.0568 27.1407H28.0755V39H23.3029V27.1407H19.3119V22.5176H23.3029V19.11C23.3029 15.1531 25.7193 13 29.2472 13C30.9372 13 32.3899 13.1251 32.814 13.182V17.316ZM26.0625 0C11.704 0 0.0625 11.6399 0.0625 26C0.0625 40.3585 11.704 52 26.0625 52C40.4226 52 52.0625 40.3585 52.0625 26C52.0625 11.6399 40.4226 0 26.0625 0V0Z" fill="#3B5998"/>
</svg>
