<svg width="48" height="44" viewBox="0 0 48 44" fill="none" xmlns="http://www.w3.org/2000/svg">
<path d="M23.4141 41.2558L23.4139 41.2556C13.194 32.8761 7.42085 28.1109 4.14493 21.9584L4.14388 21.9564C1.74452 17.4639 1.19626 13.2183 2.28807 9.61868C3.20286 6.61388 5.25365 4.20267 8.08773 2.81372L8.08836 2.81342C9.52384 2.10919 11.0859 1.75 12.7523 1.75C16.7368 1.75 20.4912 3.87049 22.5144 7.12242L24.0003 9.51066L25.4862 7.12241C27.5092 3.87082 31.2687 1.75 35.2483 1.75C36.9149 1.75 38.4774 2.1093 39.9106 2.81123C42.7474 4.20303 44.7977 6.61422 45.7124 9.61819C46.8042 13.2174 46.2539 17.4633 43.8563 21.9571L43.8558 21.9581C40.5772 28.1135 34.7983 32.8871 24.5658 41.2715L24.5645 41.2725L23.9998 41.7362L23.4141 41.2558Z" stroke="black" stroke-width="3.5"/>
</svg>
