<svg width="18" height="18" viewBox="0 0 18 18" fill="none" xmlns="http://www.w3.org/2000/svg">
<path fill-rule="evenodd" clip-rule="evenodd" d="M0 9C0 4.02944 4.02944 0 9 0C13.9706 0 18 4.02944 18 9C18 13.9706 13.9706 18 9 18C4.02944 18 0 13.9706 0 9Z" fill="#303030"/>
<mask id="mask0" mask-type="alpha" maskUnits="userSpaceOnUse" x="0" y="0" width="18" height="18">
<path fill-rule="evenodd" clip-rule="evenodd" d="M0 9C0 4.02944 4.02944 0 9 0C13.9706 0 18 4.02944 18 9C18 13.9706 13.9706 18 9 18C4.02944 18 0 13.9706 0 9Z" fill="white"/>
</mask>
<g mask="url(#mask0)">
<path fill-rule="evenodd" clip-rule="evenodd" d="M9.0004 4.19995C7.69679 4.19995 7.53319 4.20565 7.02118 4.22895C6.51017 4.25235 6.16137 4.33325 5.85617 4.45195C5.54047 4.57456 5.27266 4.73856 5.00586 5.00546C4.73886 5.27226 4.57486 5.54007 4.45185 5.85567C4.33285 6.16097 4.25185 6.50988 4.22885 7.02068C4.20595 7.53269 4.19995 7.69639 4.19995 9C4.19995 10.3036 4.20575 10.4667 4.22895 10.9787C4.25245 11.4897 4.33335 11.8385 4.45195 12.1437C4.57466 12.4594 4.73866 12.7272 5.00556 12.994C5.27226 13.261 5.54007 13.4254 5.85557 13.548C6.16097 13.6667 6.50988 13.7477 7.02078 13.7711C7.53279 13.7944 7.69629 13.8001 8.9998 13.8001C10.3035 13.8001 10.4666 13.7944 10.9786 13.7711C11.4896 13.7477 11.8388 13.6667 12.1442 13.548C12.4598 13.4254 12.7272 13.261 12.9939 12.994C13.2609 12.7272 13.4249 12.4594 13.5479 12.1438C13.6659 11.8385 13.747 11.4896 13.771 10.9788C13.794 10.4668 13.8 10.3036 13.8 9C13.8 7.69639 13.794 7.53279 13.771 7.02078C13.747 6.50978 13.6659 6.16097 13.5479 5.85577C13.4249 5.54007 13.2609 5.27226 12.9939 5.00546C12.7269 4.73846 12.4599 4.57446 12.1439 4.45195C11.8379 4.33325 11.4889 4.25235 10.9779 4.22895C10.4659 4.20565 10.3029 4.19995 8.9989 4.19995H9.0004ZM8.56978 5.06495C8.69758 5.06475 8.84018 5.06495 9.00038 5.06495C10.282 5.06495 10.4339 5.06955 10.94 5.09255C11.408 5.11395 11.662 5.19215 11.8312 5.25785C12.0552 5.34485 12.2149 5.44885 12.3828 5.61685C12.5508 5.78486 12.6548 5.94486 12.742 6.16886C12.8077 6.33786 12.886 6.59186 12.9073 7.05987C12.9303 7.56587 12.9353 7.71788 12.9353 8.99889C12.9353 10.2799 12.9303 10.4319 12.9073 10.9379C12.8859 11.4059 12.8077 11.6599 12.742 11.8289C12.655 12.0529 12.5508 12.2124 12.3828 12.3803C12.2148 12.5483 12.0553 12.6523 11.8312 12.7393C11.6622 12.8053 11.408 12.8833 10.94 12.9047C10.434 12.9277 10.282 12.9327 9.00038 12.9327C7.71867 12.9327 7.56676 12.9277 7.06076 12.9047C6.59275 12.8831 6.33875 12.8049 6.16945 12.7392C5.94545 12.6522 5.78545 12.5482 5.61744 12.3802C5.44944 12.2122 5.34544 12.0526 5.25824 11.8285C5.19254 11.6595 5.11424 11.4055 5.09294 10.9375C5.06994 10.4315 5.06534 10.2795 5.06534 8.99769C5.06534 7.71588 5.06994 7.56467 5.09294 7.05867C5.11434 6.59066 5.19254 6.33666 5.25824 6.16746C5.34524 5.94346 5.44944 5.78346 5.61744 5.61545C5.78545 5.44745 5.94545 5.34345 6.16945 5.25625C6.33865 5.19025 6.59275 5.11225 7.06076 5.09075C7.50356 5.07075 7.67517 5.06475 8.56978 5.06375V5.06495ZM11.5627 5.86191C11.2447 5.86191 10.9867 6.11962 10.9867 6.43772C10.9867 6.75572 11.2447 7.01373 11.5627 7.01373C11.8807 7.01373 12.1387 6.75572 12.1387 6.43772C12.1387 6.11972 11.8807 5.86171 11.5627 5.86171V5.86191ZM9.00047 6.53489C7.63915 6.53489 6.53544 7.6386 6.53544 8.99991C6.53544 10.3612 7.63915 11.4644 9.00047 11.4644C10.3618 11.4644 11.4651 10.3612 11.4651 8.99991C11.4651 7.6386 10.3617 6.53489 9.00037 6.53489H9.00047ZM9.00043 7.39994C9.88404 7.39994 10.6005 8.11625 10.6005 8.99996C10.6005 9.88357 9.88404 10.6 9.00043 10.6C8.11672 10.6 7.40042 9.88357 7.40042 8.99996C7.40042 8.11625 8.11672 7.39994 9.00043 7.39994Z" fill="white"/>
</g>
</svg>
