<svg width="52" height="52" viewBox="0 0 52 52" fill="none" xmlns="http://www.w3.org/2000/svg">
<path fill-rule="evenodd" clip-rule="evenodd" d="M26 0C11.6402 0 0 11.6372 0 26C0 37.0134 6.85262 46.4226 16.5231 50.2116C16.2957 48.1558 16.0929 44.9999 16.6153 42.7505C17.0855 40.7224 19.6636 29.8289 19.6636 29.8289C19.6636 29.8289 18.8862 28.2709 18.8862 25.9693C18.8862 22.3524 20.9788 19.6544 23.5908 19.6544C25.8064 19.6544 26.8789 21.3199 26.8789 23.3173C26.8789 25.5483 25.4592 28.8824 24.7247 31.9738C24.1132 34.5642 26.0246 36.6723 28.5751 36.6723C33.1968 36.6723 36.7491 31.7986 36.7491 24.7647C36.7491 18.5389 32.278 14.1877 25.8894 14.1877C18.4929 14.1877 14.1508 19.7374 14.1508 25.4715C14.1508 27.7055 15.0082 30.1024 16.0837 31.4053C16.2957 31.6634 16.3264 31.8877 16.265 32.152C16.0683 32.9725 15.6289 34.7394 15.5428 35.0989C15.4291 35.5752 15.1649 35.6766 14.6701 35.4492C11.4251 33.9374 9.397 29.1866 9.397 25.3762C9.397 17.1746 15.3554 9.63976 26.5746 9.63976C35.5937 9.63976 42.603 16.0683 42.603 24.6571C42.603 33.6178 36.9519 40.8299 29.1129 40.8299C26.4763 40.8299 23.9995 39.4594 23.1514 37.843C23.1514 37.843 21.8485 42.8058 21.532 44.0227C20.945 46.2813 19.3594 49.1115 18.3023 50.8384C20.733 51.5944 23.3173 52 26 52C40.3598 52 52 40.3598 52 26C52 11.6372 40.3598 0 26 0" fill="#BD081C"/>
</svg>
