<svg width="54" height="54" viewBox="0 0 54 54" fill="none" xmlns="http://www.w3.org/2000/svg">
<circle cx="26.8676" cy="26.8676" r="26.8676" fill="#F9AB15"/>
<path d="M11.2828 18.3152H18.9148C20.7388 18.3152 22.3468 18.6672 23.7388 19.3712C25.1468 20.0592 26.2348 21.0352 27.0028 22.2992C27.7868 23.5632 28.1788 25.0352 28.1788 26.7152C28.1788 28.3952 27.7868 29.8672 27.0028 31.1312C26.2348 32.3952 25.1468 33.3792 23.7388 34.0832C22.3468 34.7712 20.7388 35.1152 18.9148 35.1152H11.2828V18.3152ZM18.7228 31.9232C20.4028 31.9232 21.7388 31.4592 22.7308 30.5312C23.7388 29.5872 24.2428 28.3152 24.2428 26.7152C24.2428 25.1152 23.7388 23.8512 22.7308 22.9232C21.7388 21.9792 20.4028 21.5072 18.7228 21.5072H15.1708V31.9232H18.7228ZM34.9989 21.4352V25.8752H42.7749V28.9952H34.9989V35.1152H31.1109V18.3152H43.8069V21.4352H34.9989Z" fill="white"/>
</svg>
