<svg width="54" height="54" viewBox="0 0 54 54" fill="none" xmlns="http://www.w3.org/2000/svg">
<circle cx="26.8676" cy="26.8676" r="26.8676" fill="#5AA895"/>
<path d="M23.291 26.4512H26.843V33.2672C25.931 33.9552 24.875 34.4832 23.675 34.8512C22.475 35.2192 21.267 35.4032 20.051 35.4032C18.307 35.4032 16.739 35.0352 15.347 34.2992C13.955 33.5472 12.859 32.5152 12.059 31.2032C11.275 29.8752 10.883 28.3792 10.883 26.7152C10.883 25.0512 11.275 23.5632 12.059 22.2512C12.859 20.9232 13.963 19.8912 15.371 19.1552C16.779 18.4032 18.363 18.0272 20.123 18.0272C21.595 18.0272 22.931 18.2752 24.131 18.7712C25.331 19.2672 26.339 19.9872 27.155 20.9312L24.659 23.2352C23.459 21.9712 22.011 21.3392 20.315 21.3392C19.243 21.3392 18.291 21.5632 17.459 22.0112C16.627 22.4592 15.979 23.0912 15.515 23.9072C15.051 24.7232 14.819 25.6592 14.819 26.7152C14.819 27.7552 15.051 28.6832 15.515 29.4992C15.979 30.3152 16.619 30.9552 17.435 31.4192C18.267 31.8672 19.211 32.0912 20.267 32.0912C21.387 32.0912 22.395 31.8512 23.291 31.3712V26.4512ZM34.3427 21.4352V25.8752H42.1187V28.9952H34.3427V35.1152H30.4547V18.3152H43.1507V21.4352H34.3427Z" fill="white"/>
</svg>
