<svg width="55" height="55" viewBox="0 0 55 55" fill="none" xmlns="http://www.w3.org/2000/svg">
<circle cx="27.6472" cy="27.519" r="26.8676" fill="#B6E40F"/>
<path d="M13.2069 19.9983H17.0949V33.6303H25.5189V36.7983H13.2069V19.9983ZM35.45 37.0863C33.738 37.0863 32.186 36.7183 30.794 35.9823C29.418 35.2303 28.33 34.1983 27.53 32.8863C26.746 31.5583 26.354 30.0623 26.354 28.3983C26.354 26.7343 26.746 25.2463 27.53 23.9343C28.33 22.6063 29.418 21.5743 30.794 20.8383C32.186 20.0863 33.746 19.7103 35.474 19.7103C36.93 19.7103 38.242 19.9663 39.41 20.4783C40.594 20.9903 41.586 21.7263 42.386 22.6863L39.89 24.9903C38.754 23.6783 37.346 23.0223 35.666 23.0223C34.626 23.0223 33.698 23.2543 32.882 23.7183C32.066 24.1663 31.426 24.7983 30.962 25.6143C30.514 26.4303 30.29 27.3583 30.29 28.3983C30.29 29.4383 30.514 30.3663 30.962 31.1823C31.426 31.9983 32.066 32.6383 32.882 33.1023C33.698 33.5503 34.626 33.7743 35.666 33.7743C37.346 33.7743 38.754 33.1103 39.89 31.7823L42.386 34.0863C41.586 35.0623 40.594 35.8063 39.41 36.3183C38.226 36.8303 36.906 37.0863 35.45 37.0863Z" fill="white"/>
</svg>
