<svg width="54" height="54" viewBox="0 0 54 54" fill="none" xmlns="http://www.w3.org/2000/svg">
<circle cx="26.8676" cy="26.8676" r="26.8676" fill="#55C7F8"/>
<path d="M23.8989 35.1152L23.8749 25.0352L18.9309 33.3392H17.1789L12.2589 25.2512V35.1152H8.61091V18.3152H11.8269L18.1149 28.7552L24.3069 18.3152H27.4989L27.5469 35.1152H23.8989ZM38.8048 18.3152C40.2928 18.3152 41.5808 18.5632 42.6688 19.0592C43.7728 19.5552 44.6208 20.2592 45.2128 21.1712C45.8048 22.0832 46.1008 23.1632 46.1008 24.4112C46.1008 25.6432 45.8048 26.7232 45.2128 27.6512C44.6208 28.5632 43.7728 29.2672 42.6688 29.7632C41.5808 30.2432 40.2928 30.4832 38.8048 30.4832H35.4208V35.1152H31.5328V18.3152H38.8048ZM38.5888 27.3152C39.7568 27.3152 40.6448 27.0672 41.2528 26.5712C41.8608 26.0592 42.1648 25.3392 42.1648 24.4112C42.1648 23.4672 41.8608 22.7472 41.2528 22.2512C40.6448 21.7392 39.7568 21.4832 38.5888 21.4832H35.4208V27.3152H38.5888Z" fill="white"/>
</svg>
