<svg width="55" height="55" viewBox="0 0 55 55" fill="none" xmlns="http://www.w3.org/2000/svg">
<circle cx="27.6472" cy="27.4477" r="26.8676" fill="#F9AB15"/>
<path d="M29.1234 18.8943C30.6114 18.8943 31.8994 19.1423 32.9874 19.6383C34.0914 20.1343 34.9394 20.8383 35.5314 21.7503C36.1234 22.6623 36.4194 23.7423 36.4194 24.9903C36.4194 26.2223 36.1234 27.3023 35.5314 28.2303C34.9394 29.1423 34.0914 29.8463 32.9874 30.3423C31.8994 30.8223 30.6114 31.0623 29.1234 31.0623H25.7394V35.6943H21.8514V18.8943H29.1234ZM28.9074 27.8943C30.0754 27.8943 30.9634 27.6463 31.5714 27.1503C32.1794 26.6383 32.4834 25.9183 32.4834 24.9903C32.4834 24.0463 32.1794 23.3263 31.5714 22.8303C30.9634 22.3183 30.0754 22.0623 28.9074 22.0623H25.7394V27.8943H28.9074Z" fill="white"/>
</svg>
