<svg width="54" height="54" viewBox="0 0 54 54" fill="none" xmlns="http://www.w3.org/2000/svg">
<circle cx="26.8676" cy="26.8676" r="26.8676" fill="#581818"/>
<path d="M18.0118 19.347C19.4998 19.347 20.7878 19.595 21.8758 20.091C22.9798 20.587 23.8278 21.291 24.4198 22.203C25.0118 23.115 25.3078 24.195 25.3078 25.443C25.3078 26.675 25.0118 27.755 24.4198 28.683C23.8278 29.595 22.9798 30.299 21.8758 30.795C20.7878 31.275 19.4998 31.515 18.0118 31.515H14.6278V36.147H10.7398V19.347H18.0118ZM17.7958 28.347C18.9638 28.347 19.8518 28.099 20.4598 27.603C21.0678 27.091 21.3718 26.371 21.3718 25.443C21.3718 24.499 21.0678 23.779 20.4598 23.283C19.8518 22.771 18.9638 22.515 17.7958 22.515H14.6278V28.347H17.7958ZM36.3579 36.435C34.6459 36.435 33.0939 36.067 31.7019 35.331C30.3259 34.579 29.2379 33.547 28.4379 32.235C27.6539 30.907 27.2619 29.411 27.2619 27.747C27.2619 26.083 27.6539 24.595 28.4379 23.283C29.2379 21.955 30.3259 20.923 31.7019 20.187C33.0939 19.435 34.6539 19.059 36.3819 19.059C37.8379 19.059 39.1499 19.315 40.3179 19.827C41.5019 20.339 42.4939 21.075 43.2939 22.035L40.7979 24.339C39.6619 23.027 38.2539 22.371 36.5739 22.371C35.5339 22.371 34.6059 22.603 33.7899 23.067C32.9739 23.515 32.3339 24.147 31.8699 24.963C31.4219 25.779 31.1979 26.707 31.1979 27.747C31.1979 28.787 31.4219 29.715 31.8699 30.531C32.3339 31.347 32.9739 31.987 33.7899 32.451C34.6059 32.899 35.5339 33.123 36.5739 33.123C38.2539 33.123 39.6619 32.459 40.7979 31.131L43.2939 33.435C42.4939 34.411 41.5019 35.155 40.3179 35.667C39.1339 36.179 37.8139 36.435 36.3579 36.435Z" fill="white"/>
</svg>
