<svg width="54" height="54" viewBox="0 0 54 54" fill="none" xmlns="http://www.w3.org/2000/svg">
<circle cx="26.8676" cy="26.8676" r="26.8676" fill="#E91515"/>
<path d="M36.9039 36.9152C36.3599 37.5872 35.6959 38.0992 34.9119 38.4512C34.1439 38.8032 33.2959 38.9792 32.3679 38.9792C31.1199 38.9792 29.9919 38.7072 28.9839 38.1632C27.9759 37.6352 26.8239 36.6912 25.5279 35.3312C24.0079 35.1392 22.6479 34.6512 21.4479 33.8672C20.2639 33.0832 19.3359 32.0752 18.6639 30.8432C18.0079 29.5952 17.6799 28.2192 17.6799 26.7152C17.6799 25.0672 18.0719 23.5872 18.8559 22.2752C19.6559 20.9472 20.7519 19.9072 22.1439 19.1552C23.5519 18.4032 25.1279 18.0272 26.8719 18.0272C28.6159 18.0272 30.1839 18.4032 31.5759 19.1552C32.9679 19.9072 34.0639 20.9472 34.8639 22.2752C35.6639 23.5872 36.0639 25.0672 36.0639 26.7152C36.0639 28.6672 35.5119 30.3792 34.4079 31.8512C33.3199 33.3232 31.8719 34.3472 30.0639 34.9232C30.4639 35.3392 30.8479 35.6352 31.2159 35.8112C31.5999 36.0032 32.0079 36.0992 32.4399 36.0992C33.4799 36.0992 34.3919 35.6832 35.1759 34.8512L36.9039 36.9152ZM21.6159 26.7152C21.6159 27.7552 21.8399 28.6832 22.2879 29.4992C22.7519 30.3152 23.3839 30.9552 24.1839 31.4192C24.9839 31.8672 25.8799 32.0912 26.8719 32.0912C27.8639 32.0912 28.7599 31.8672 29.5599 31.4192C30.3599 30.9552 30.9839 30.3152 31.4319 29.4992C31.8959 28.6832 32.1279 27.7552 32.1279 26.7152C32.1279 25.6752 31.8959 24.7472 31.4319 23.9312C30.9839 23.1152 30.3599 22.4832 29.5599 22.0352C28.7599 21.5712 27.8639 21.3392 26.8719 21.3392C25.8799 21.3392 24.9839 21.5712 24.1839 22.0352C23.3839 22.4832 22.7519 23.1152 22.2879 23.9312C21.8399 24.7472 21.6159 25.6752 21.6159 26.7152Z" fill="white"/>
</svg>
