<svg width="55" height="55" viewBox="0 0 55 55" fill="none" xmlns="http://www.w3.org/2000/svg">
<circle cx="27.6472" cy="27.5903" r="26.8676" fill="#F8063F"/>
<path d="M37.6835 37.6379C37.1395 38.3099 36.4755 38.8219 35.6915 39.1739C34.9235 39.5259 34.0755 39.7019 33.1475 39.7019C31.8995 39.7019 30.7715 39.4299 29.7635 38.8859C28.7555 38.3579 27.6035 37.4139 26.3075 36.0539C24.7875 35.8619 23.4275 35.3739 22.2275 34.5899C21.0435 33.8059 20.1155 32.7979 19.4435 31.5659C18.7875 30.3179 18.4595 28.9419 18.4595 27.4379C18.4595 25.7899 18.8515 24.3099 19.6355 22.9979C20.4355 21.6699 21.5315 20.6299 22.9235 19.8779C24.3315 19.1259 25.9075 18.7499 27.6515 18.7499C29.3955 18.7499 30.9635 19.1259 32.3555 19.8779C33.7475 20.6299 34.8435 21.6699 35.6435 22.9979C36.4435 24.3099 36.8435 25.7899 36.8435 27.4379C36.8435 29.3899 36.2915 31.1019 35.1875 32.5739C34.0995 34.0459 32.6515 35.0699 30.8435 35.6459C31.2435 36.0619 31.6275 36.3579 31.9955 36.5339C32.3795 36.7259 32.7875 36.8219 33.2195 36.8219C34.2595 36.8219 35.1715 36.4059 35.9555 35.5739L37.6835 37.6379ZM22.3955 27.4379C22.3955 28.4779 22.6195 29.4059 23.0675 30.2219C23.5315 31.0379 24.1635 31.6779 24.9635 32.1419C25.7635 32.5899 26.6595 32.8139 27.6515 32.8139C28.6435 32.8139 29.5395 32.5899 30.3395 32.1419C31.1395 31.6779 31.7635 31.0379 32.2115 30.2219C32.6755 29.4059 32.9075 28.4779 32.9075 27.4379C32.9075 26.3979 32.6755 25.4699 32.2115 24.6539C31.7635 23.8379 31.1395 23.2059 30.3395 22.7579C29.5395 22.2939 28.6435 22.0619 27.6515 22.0619C26.6595 22.0619 25.7635 22.2939 24.9635 22.7579C24.1635 23.2059 23.5315 23.8379 23.0675 24.6539C22.6195 25.4699 22.3955 26.3979 22.3955 27.4379Z" fill="white"/>
</svg>
