<svg width="54" height="55" viewBox="0 0 54 55" fill="none" xmlns="http://www.w3.org/2000/svg">
<circle cx="26.8676" cy="27.7346" r="26.8676" fill="#00B1FD"/>
<path d="M19.0645 36.2702C17.7365 36.2702 16.4485 36.0942 15.2005 35.7422C13.9685 35.3742 12.9765 34.9022 12.2245 34.3262L13.5445 31.3982C14.2645 31.9262 15.1205 32.3502 16.1125 32.6702C17.1045 32.9902 18.0965 33.1502 19.0885 33.1502C20.1925 33.1502 21.0085 32.9902 21.5365 32.6702C22.0645 32.3342 22.3285 31.8942 22.3285 31.3502C22.3285 30.9502 22.1685 30.6222 21.8485 30.3662C21.5445 30.0942 21.1445 29.8782 20.6485 29.7182C20.1685 29.5582 19.5125 29.3822 18.6805 29.1902C17.4005 28.8862 16.3525 28.5822 15.5365 28.2782C14.7205 27.9742 14.0165 27.4862 13.4245 26.8142C12.8485 26.1422 12.5605 25.2462 12.5605 24.1262C12.5605 23.1502 12.8245 22.2702 13.3525 21.4862C13.8805 20.6862 14.6725 20.0542 15.7285 19.5902C16.8005 19.1262 18.1045 18.8942 19.6405 18.8942C20.7125 18.8942 21.7605 19.0222 22.7845 19.2782C23.8085 19.5342 24.7045 19.9022 25.4725 20.3822L24.2725 23.3342C22.7205 22.4542 21.1685 22.0142 19.6165 22.0142C18.5285 22.0142 17.7205 22.1902 17.1925 22.5422C16.6805 22.8942 16.4245 23.3582 16.4245 23.9342C16.4245 24.5102 16.7205 24.9422 17.3125 25.2302C17.9205 25.5022 18.8405 25.7742 20.0725 26.0462C21.3525 26.3502 22.4005 26.6542 23.2165 26.9582C24.0325 27.2622 24.7285 27.7422 25.3045 28.3982C25.8965 29.0542 26.1925 29.9422 26.1925 31.0622C26.1925 32.0222 25.9205 32.9022 25.3765 33.7022C24.8485 34.4862 24.0485 35.1102 22.9765 35.5742C21.9045 36.0382 20.6005 36.2702 19.0645 36.2702ZM32.7372 22.3022V26.7422H40.5132V29.8622H32.7372V35.9822H28.8492V19.1822H41.5452V22.3022H32.7372Z" fill="white"/>
</svg>
