<svg width="54" height="54" viewBox="0 0 54 54" fill="none" xmlns="http://www.w3.org/2000/svg">
<circle cx="26.8676" cy="26.8676" r="26.8676" fill="#CF5700"/>
<path d="M18.9278 35.4023C17.5998 35.4023 16.3118 35.2263 15.0638 34.8743C13.8318 34.5063 12.8398 34.0343 12.0878 33.4583L13.4078 30.5303C14.1278 31.0583 14.9838 31.4823 15.9758 31.8023C16.9678 32.1223 17.9598 32.2823 18.9518 32.2823C20.0558 32.2823 20.8718 32.1223 21.3998 31.8023C21.9278 31.4663 22.1918 31.0263 22.1918 30.4823C22.1918 30.0823 22.0318 29.7543 21.7118 29.4983C21.4078 29.2263 21.0078 29.0103 20.5118 28.8503C20.0318 28.6903 19.3758 28.5143 18.5438 28.3223C17.2638 28.0183 16.2158 27.7143 15.3998 27.4103C14.5838 27.1063 13.8798 26.6183 13.2878 25.9463C12.7118 25.2743 12.4238 24.3783 12.4238 23.2583C12.4238 22.2823 12.6878 21.4023 13.2158 20.6183C13.7438 19.8183 14.5358 19.1863 15.5918 18.7223C16.6638 18.2583 17.9678 18.0263 19.5038 18.0263C20.5758 18.0263 21.6238 18.1543 22.6478 18.4103C23.6718 18.6663 24.5678 19.0343 25.3358 19.5143L24.1358 22.4663C22.5838 21.5863 21.0318 21.1463 19.4798 21.1463C18.3918 21.1463 17.5838 21.3223 17.0558 21.6743C16.5438 22.0263 16.2878 22.4903 16.2878 23.0663C16.2878 23.6423 16.5838 24.0743 17.1758 24.3623C17.7838 24.6343 18.7038 24.9063 19.9358 25.1783C21.2158 25.4823 22.2638 25.7863 23.0798 26.0903C23.8958 26.3943 24.5918 26.8743 25.1678 27.5303C25.7598 28.1863 26.0558 29.0743 26.0558 30.1943C26.0558 31.1543 25.7838 32.0343 25.2398 32.8343C24.7118 33.6183 23.9118 34.2423 22.8398 34.7063C21.7678 35.1703 20.4638 35.4023 18.9278 35.4023ZM36.7525 35.4023C35.0405 35.4023 33.4885 35.0343 32.0965 34.2983C30.7205 33.5463 29.6325 32.5143 28.8325 31.2023C28.0485 29.8743 27.6565 28.3783 27.6565 26.7143C27.6565 25.0503 28.0485 23.5623 28.8325 22.2503C29.6325 20.9223 30.7205 19.8903 32.0965 19.1543C33.4885 18.4023 35.0485 18.0263 36.7765 18.0263C38.2325 18.0263 39.5445 18.2823 40.7125 18.7943C41.8965 19.3063 42.8885 20.0423 43.6885 21.0023L41.1925 23.3063C40.0565 21.9943 38.6485 21.3383 36.9685 21.3383C35.9285 21.3383 35.0005 21.5703 34.1845 22.0343C33.3685 22.4823 32.7285 23.1143 32.2645 23.9303C31.8165 24.7463 31.5925 25.6743 31.5925 26.7143C31.5925 27.7543 31.8165 28.6823 32.2645 29.4983C32.7285 30.3143 33.3685 30.9543 34.1845 31.4183C35.0005 31.8663 35.9285 32.0903 36.9685 32.0903C38.6485 32.0903 40.0565 31.4263 41.1925 30.0983L43.6885 32.4023C42.8885 33.3783 41.8965 34.1223 40.7125 34.6343C39.5285 35.1463 38.2085 35.4023 36.7525 35.4023Z" fill="white"/>
</svg>
