<svg width="55" height="55" viewBox="0 0 55 55" fill="none" xmlns="http://www.w3.org/2000/svg">
<circle cx="27.6472" cy="27.6633" r="26.8676" fill="#FF8F8F"/>
<path d="M18.7073 36.1989C17.3793 36.1989 16.0913 36.0229 14.8433 35.6709C13.6113 35.3029 12.6193 34.8309 11.8673 34.2549L13.1873 31.3269C13.9073 31.8549 14.7633 32.2789 15.7553 32.5989C16.7473 32.9189 17.7393 33.0789 18.7313 33.0789C19.8353 33.0789 20.6513 32.9189 21.1793 32.5989C21.7073 32.2629 21.9713 31.8229 21.9713 31.2789C21.9713 30.8789 21.8113 30.5509 21.4913 30.2949C21.1873 30.0229 20.7873 29.8069 20.2913 29.6469C19.8113 29.4869 19.1553 29.3109 18.3233 29.1189C17.0433 28.8149 15.9953 28.5109 15.1793 28.2069C14.3633 27.9029 13.6593 27.4149 13.0673 26.7429C12.4913 26.0709 12.2033 25.1749 12.2033 24.0549C12.2033 23.0789 12.4673 22.1989 12.9953 21.4149C13.5233 20.6149 14.3153 19.9829 15.3713 19.5189C16.4433 19.0549 17.7473 18.8229 19.2833 18.8229C20.3553 18.8229 21.4033 18.9509 22.4273 19.2069C23.4513 19.4629 24.3473 19.8309 25.1153 20.3109L23.9153 23.2629C22.3633 22.3829 20.8113 21.9429 19.2593 21.9429C18.1713 21.9429 17.3633 22.1189 16.8353 22.4709C16.3233 22.8229 16.0673 23.2869 16.0673 23.8629C16.0673 24.4389 16.3633 24.8709 16.9553 25.1589C17.5633 25.4309 18.4833 25.7029 19.7153 25.9749C20.9953 26.2789 22.0433 26.5829 22.8593 26.8869C23.6753 27.1909 24.3713 27.6709 24.9473 28.3269C25.5393 28.9829 25.8353 29.8709 25.8353 30.9909C25.8353 31.9509 25.5633 32.8309 25.0193 33.6309C24.4913 34.4149 23.6913 35.0389 22.6193 35.5029C21.5473 35.9669 20.2433 36.1989 18.7073 36.1989ZM36.532 36.1989C34.82 36.1989 33.268 35.8309 31.876 35.0949C30.5 34.3429 29.412 33.3109 28.612 31.9989C27.828 30.6709 27.436 29.1749 27.436 27.5109C27.436 25.8469 27.828 24.3589 28.612 23.0469C29.412 21.7189 30.5 20.6869 31.876 19.9509C33.268 19.1989 34.828 18.8229 36.556 18.8229C38.012 18.8229 39.324 19.0789 40.492 19.5909C41.676 20.1029 42.668 20.8389 43.468 21.7989L40.972 24.1029C39.836 22.7909 38.428 22.1349 36.748 22.1349C35.708 22.1349 34.78 22.3669 33.964 22.8309C33.148 23.2789 32.508 23.9109 32.044 24.7269C31.596 25.5429 31.372 26.4709 31.372 27.5109C31.372 28.5509 31.596 29.4789 32.044 30.2949C32.508 31.1109 33.148 31.7509 33.964 32.2149C34.78 32.6629 35.708 32.8869 36.748 32.8869C38.428 32.8869 39.836 32.2229 40.972 30.8949L43.468 33.1989C42.668 34.1749 41.676 34.9189 40.492 35.4309C39.308 35.9429 37.988 36.1989 36.532 36.1989Z" fill="white"/>
</svg>
