<svg width="600" height="467" viewBox="0 0 600 467" fill="none" xmlns="http://www.w3.org/2000/svg">
<path fill-rule="evenodd" clip-rule="evenodd" d="M30.915 462.415C22.744 462.415 15.735 458.316 9.838 450.091C7.405 446.68 5.315 442.74 3.57 438.244C3.464 437.768 3.332 437.345 3.174 436.921C1.772 432.902 0.846 428.776 0.396 424.519L0.238 422.138C0.079 420.525 0 418.965 0 417.405L0.079 415.845C0.291 408.624 1.375 402.331 3.332 396.936C4.575 392.863 6.4 389.107 8.833 385.643C10.737 382.735 13.276 380.01 16.423 377.418C18.909 375.409 21.686 373.769 24.806 372.473C26.975 371.601 29.725 371.019 33.083 370.754C37.791 370.754 41.493 371.839 44.244 374.007C45.751 375.092 47.179 376.652 48.581 378.662C49.823 380.672 50.723 382.364 51.305 383.686C51.966 385.247 52.31 386.728 52.31 388.129C52.31 388.79 52.23 389.373 52.071 389.901V389.981C51.437 391.621 50.141 392.467 48.104 392.467C46.571 392.467 45.037 392.043 43.503 391.224C41.969 390.377 40.832 389.214 40.065 387.653C38.055 384.295 36.125 382.629 34.327 382.629C34.115 382.629 33.692 382.655 33.057 382.735C32.396 382.814 31.18 383.449 29.355 384.639C28.376 385.194 27.45 385.829 26.578 386.49C24.039 388.605 21.686 391.832 19.517 396.169C18.909 397.729 18.327 399.263 17.825 400.823C16.264 405.874 15.498 411.401 15.498 417.405C15.498 420.658 16.026 424.413 17.11 428.644C17.904 431.844 19.252 435.097 21.157 438.402C25.018 444.908 28.826 448.161 32.528 448.161C34.512 448.161 36.178 447.605 37.579 446.521C39.219 445.305 40.33 444.379 40.912 443.824L41.387 443.427C42.472 442.449 43.688 440.994 45.09 439.011C45.804 438.085 46.227 437.556 46.306 437.424C46.359 437.292 46.491 437.186 46.65 437.081C47.682 436.102 48.713 435.6 49.744 435.6C50.009 435.6 50.511 435.706 51.251 435.89C51.992 436.075 52.601 437.001 53.077 438.72L53.156 439.328L53.077 439.566C53.077 440.756 52.944 441.946 52.68 443.136L52.362 444.3C51.648 447.553 50.379 450.488 48.581 453.106C46.465 456.122 43.768 458.448 40.515 460.088C37.632 461.648 34.433 462.415 30.915 462.415" fill="#4E4D68"/>
<path fill-rule="evenodd" clip-rule="evenodd" d="M88.1705 414.39C88.1175 414.337 88.0385 414.311 87.9585 414.311C87.8795 414.311 87.8265 414.311 87.7735 414.311C87.7205 414.311 87.6945 414.284 87.6945 414.231L87.9325 413.994C87.9845 413.994 88.0115 414.02 88.0385 414.02C88.0645 414.046 88.0905 414.099 88.1175 414.179C88.1435 414.258 88.1705 414.337 88.1705 414.39ZM99.8595 466.752C99.4365 466.752 99.0655 466.726 98.6955 466.673C98.3255 466.62 97.7705 466.224 97.0025 465.43L96.2095 464.267C95.2315 462.944 94.2795 460.775 93.3535 457.761C93.3005 457.47 93.2215 457.179 93.1155 456.915C92.0835 453.001 91.2905 448.664 90.7095 443.903C90.6035 443.031 90.5505 442.158 90.5505 441.338L90.3385 441.655C87.3235 445.939 84.0445 449.087 80.5005 451.096H80.4215C77.7245 452.657 74.8945 453.424 71.8795 453.424C67.3575 453.424 63.5225 451.731 60.4285 448.32C56.5935 444.3 54.6895 438.27 54.6895 430.257C55.1135 422.297 57.4135 414.998 61.5925 408.334C63.7615 404.816 66.0885 402.013 68.5475 399.898C68.5475 399.633 69.8435 398.655 72.4355 396.936C76.0585 394.767 80.1575 393.657 84.7585 393.604C88.0645 393.604 90.8675 394.397 93.1955 395.931C93.7235 396.195 94.3585 396.725 95.1255 397.491C95.1255 397.544 95.1515 397.571 95.2055 397.571C96.4485 398.919 97.0825 400.268 97.0825 401.59C97.0825 402.278 97.0295 402.701 96.9235 402.913C96.8185 403.124 96.6595 403.362 96.4485 403.6C95.5215 404.684 93.0095 405.24 88.9375 405.24H87.9325C85.2875 405.24 82.8815 405.61 80.7125 406.324C77.8825 407.937 75.3175 410.449 73.0435 413.914C69.7905 419.335 68.0715 424.915 67.8595 430.654C67.8595 433.034 68.2295 435.203 68.9435 437.16C69.7105 439.381 70.9015 440.492 72.5145 440.492C73.9685 440.492 76.1375 439.169 79.0195 436.552C79.0195 436.498 79.0465 436.472 79.0995 436.472C80.3955 435.282 82.2995 433.114 84.8375 429.966L86.5315 427.851C87.0065 427.136 87.4825 426.476 88.0115 425.841C88.5145 425.232 88.9905 424.571 89.4135 423.911L90.4175 422.35C90.4175 421.53 90.4975 420.605 90.7095 419.573C90.9205 418.066 91.2115 416.691 91.5825 415.394L92.2695 414.073C92.7715 413.094 93.9615 412.592 95.8395 412.592C96.3415 412.592 97.0295 412.644 97.8495 412.75C99.7005 413.067 100.626 413.702 100.626 414.681L100.546 415.157C100.546 415.21 100.6 415.263 100.679 415.315C100.758 415.368 100.89 415.5 101.102 415.712C101.313 416.056 101.419 416.665 101.419 417.484L101.339 419.652L101.26 427.48C101.26 431.342 101.366 434.409 101.551 436.684C101.551 437.636 101.71 439.699 102.027 442.898C102.451 445.992 102.741 447.923 102.953 448.717C103.535 452.207 104.222 455.354 105.042 458.158L105.28 458.925C105.65 459.797 105.862 460.696 105.915 461.569C105.915 463.526 105.122 464.954 103.587 465.827C102.451 466.435 101.208 466.752 99.8595 466.752V466.752Z" fill="#4E4D68"/>
<path fill-rule="evenodd" clip-rule="evenodd" d="M114.88 455.434C113.584 455.434 112.183 454.957 110.675 454.005C109.141 453.054 108.242 451.229 108.004 448.558C107.634 445.146 107.449 440.069 107.449 433.352L107.528 431.659C107.581 427.745 107.74 423.672 108.004 419.494C108.004 418.568 108.031 417.616 108.137 416.638C108.295 412.433 108.851 408.149 109.776 403.759L110.702 400.268C111.363 397.914 112.341 395.852 113.558 394.159C115.488 391.329 118.08 389.901 121.386 389.901C122.338 389.901 123.29 390.034 124.268 390.298C126.225 391.012 128.077 392.308 129.848 394.159C130.932 395.349 132.149 396.989 133.471 399.131C135.032 401.432 136.486 403.997 137.809 406.8L138.761 408.73C139.157 409.55 139.554 410.396 139.924 411.269C141.009 413.702 141.669 415.342 141.934 416.162C142.965 418.489 143.653 420.182 144.023 421.266L147.726 430.257L148.043 425.762C148.202 423.302 148.281 421.107 148.281 419.177L148.36 416.4L148.281 414.919C148.281 412.909 148.254 411.561 148.202 410.899C148.202 407.963 148.281 405.478 148.44 403.468V400.136L148.36 399.052C148.36 398.311 148.44 397.597 148.599 396.883C149.524 393.974 151.032 392.546 153.173 392.546C154.866 392.546 156.294 393.762 157.431 396.248C157.775 397.227 158.04 398.311 158.198 399.501C158.357 400.691 158.648 402.278 159.044 404.235C159.785 407.646 160.234 411.031 160.446 414.39L160.922 418.727C161.424 422.376 161.716 425.947 161.769 429.411C161.769 430.442 161.636 432.478 161.372 435.547L161.292 435.758C160.922 440.307 159.785 443.956 157.801 446.68C155.738 449.377 153.094 450.726 149.841 450.726C146.615 450.726 143.838 449.404 141.458 446.759C139.871 445.278 138.231 442.925 136.592 439.725C134.767 436.102 132.731 431.342 130.457 425.47C130.351 425.101 130.219 424.704 130.033 424.254C129.848 423.831 128.738 420.922 126.675 415.553C126.675 415.448 126.648 415.368 126.596 415.315C125.696 412.724 124.665 410.29 123.475 408.016L123.263 407.567L122.021 417.484C122.021 417.801 121.994 418.066 121.941 418.331C121.729 420.975 121.571 423.514 121.465 425.999C121.465 426.714 121.359 429.252 121.174 433.589C121.015 438.826 120.883 442.316 120.777 444.142L120.46 448.928C120.407 449.722 120.328 450.462 120.222 451.176C119.561 454.032 117.79 455.434 114.88 455.434" fill="#4E4D68"/>
<path fill-rule="evenodd" clip-rule="evenodd" d="M209.873 412.671H208.154L208.868 412.592L209.873 412.671ZM195.54 460.247C192.684 460.247 189.933 459.903 187.236 459.242C183.692 458.21 180.413 456.412 177.451 453.847C174.463 451.308 171.95 448.108 169.887 444.3C167.613 440.095 165.973 435.97 164.942 431.897C163.858 426.978 163.302 422.165 163.302 417.405C163.461 409.603 164.519 402.331 166.476 395.561C169.279 386.357 173.484 379.058 179.117 373.637C181.788 371.045 184.459 369.088 187.13 367.767C189.774 366.47 192.551 365.65 195.381 365.333L197.867 365.254C199.348 365.254 200.776 365.492 202.125 365.968C205.933 367.396 208.868 370.146 210.878 374.166L211.804 376.414C212.888 378.953 213.443 381.016 213.443 382.629C213.338 384.216 212.782 385.353 211.804 386.014C211.09 386.49 210.349 386.728 209.635 386.728C209.265 386.728 208.709 386.595 207.943 386.384C207.149 386.146 206.461 385.326 205.827 383.924C205.589 383.528 205.351 383.052 205.166 382.549C205.007 382.02 204.769 381.518 204.531 380.989L204.134 380.222L203.738 379.217C203.5 378.582 203.129 378.08 202.654 377.657C201.12 376.519 199.639 375.965 198.237 375.965C196.228 375.965 194.191 376.811 192.128 378.503C191.15 379.244 190.277 380.09 189.484 381.068H189.404C186.416 384.533 184.089 388.579 182.449 393.233L182.37 393.392C181.682 395.138 181.127 396.936 180.651 398.813C179.672 403.044 179.09 406.8 178.879 410.053L178.8 411.058C178.694 412.644 178.641 414.231 178.641 415.765C178.641 420.737 179.196 425.127 180.281 428.936C181.047 432.002 182.291 435.123 183.983 438.323C185.808 441.259 187.474 443.401 189.034 444.749C191.361 446.918 194.27 448.002 197.788 448.002C198.925 448.002 200.062 447.871 201.199 447.632C202.125 447.262 202.998 446.839 203.817 446.39C205.827 445.199 207.44 444.009 208.63 442.819L208.789 442.74C210.085 441.391 211.249 439.936 212.333 438.402C213.021 437.53 213.576 436.631 214.051 435.758L214.449 434.991C215.93 432.294 216.935 429.437 217.463 426.396C217.833 424.942 217.992 423.566 217.992 422.297C217.992 420.684 217.833 419.309 217.463 418.172L217.383 417.934C216.563 415.686 215.11 414.205 213.047 413.518C212.412 413.227 211.777 413.015 211.116 412.909C210.429 412.697 209.662 412.592 208.789 412.592L207.387 412.671H208.075C205.721 412.777 203.632 413.2 201.887 413.914C200.961 414.231 199.876 414.681 198.634 415.315L197.788 415.765C195.566 416.796 193.688 417.326 192.208 417.326C189.113 417.326 187.236 416.373 186.627 414.469C186.521 414.205 186.469 413.94 186.469 413.676C186.469 412.539 187.236 411.216 188.796 409.656C189.88 408.836 191.018 408.096 192.208 407.488C197.999 404.499 203.341 402.992 208.233 402.992C213.919 402.992 218.521 404.446 222.038 407.329C223.731 408.836 225.08 410.529 226.058 412.407C227.037 414.284 227.75 416.268 228.147 418.331C228.306 419.362 228.385 420.605 228.385 422.059C228.227 424.783 228.015 426.793 227.724 428.062C227.434 429.332 227.142 430.522 226.825 431.659C225.688 435.494 224.181 438.984 222.25 442.185V442.264C221.589 443.348 220.901 444.406 220.161 445.464L220.029 445.675C216.723 450.276 212.835 453.926 208.393 456.597L208.075 456.835C204.373 459.109 200.194 460.247 195.54 460.247V460.247Z" fill="#4E4D68"/>
<path fill-rule="evenodd" clip-rule="evenodd" d="M249.013 453.741C248.696 453.741 248.246 453.741 247.69 453.741C247.109 453.741 246.342 453.503 245.364 453.054C243.962 452.26 242.772 451.282 241.793 450.091C240.656 448.664 239.307 446.363 237.694 443.189C234.495 436.498 232.353 429.384 231.268 421.9L231.109 421.266C230.501 417.14 230.131 412.909 230.025 408.572L229.946 407.805V405.927C229.946 401.802 230.289 397.227 230.951 392.228C232.353 386.702 234.415 383.924 237.139 383.924C239.678 383.924 241.819 385.036 243.592 387.256C244.834 388.87 245.443 390.536 245.443 392.308C245.443 392.863 245.364 393.472 245.205 394.08L244.834 397.332L244.755 397.888L244.518 402.675C244.518 408.889 244.914 414.681 245.76 420.102C246.739 425.999 247.902 431.024 249.225 435.15L249.304 435.467C250.309 432.241 250.864 430.363 251.05 429.808C251.235 429.226 251.552 428.089 252.028 426.396C252.689 424.175 253.059 422.8 253.112 422.297C253.271 421.557 253.456 420.869 253.667 420.182C254.064 418.859 254.382 417.669 254.593 416.665C254.805 415.66 254.99 414.76 255.202 413.994C255.413 412.592 255.862 411.322 256.523 410.185C257.502 408.757 258.534 407.937 259.618 407.726C260.147 407.62 260.729 407.567 261.416 407.567C262.236 407.567 263.161 407.646 264.193 407.805C264.695 407.911 265.33 408.334 266.097 409.075C266.837 409.815 267.552 410.873 268.212 412.221C268.212 412.274 268.239 412.301 268.292 412.301C269.958 415.95 270.831 418.039 270.937 418.568C271.148 418.992 271.307 419.415 271.465 419.891L274.507 426.925C276.517 430.918 277.945 433.616 278.844 435.07V435.15C279.452 436.181 280.113 437.186 280.775 438.165L281.171 438.561L281.938 434.832C282.334 432.241 282.652 429.808 282.864 427.48L283.472 421.133L283.789 416.241C283.948 414.575 284.027 412.856 284.027 411.058C284.133 409.392 284.186 407.726 284.186 406.007C284.186 402.807 284.345 400.03 284.635 397.65L284.714 397.015C286.063 392.281 288.206 389.901 291.167 389.901C293.838 389.901 295.557 392.387 296.271 397.332V397.65C296.43 398.628 296.51 399.606 296.51 400.585L296.351 404.394C296.351 405.874 296.298 407.355 296.192 408.81L296.113 411.428C295.954 414.231 295.875 416.003 295.875 416.77C295.557 422.456 294.896 429.041 293.865 436.552C293.812 436.631 293.786 436.763 293.786 436.921C293.124 441.365 291.908 444.988 290.136 447.764C288.179 450.621 285.614 452.049 282.387 452.049C279.082 452.049 275.882 450.409 272.788 447.156C271.095 445.358 269.403 442.978 267.763 440.016L267.287 439.169C266.626 438.033 265.965 436.869 265.356 435.679L265.119 435.15C263.823 432.558 263.056 430.892 262.792 430.099C262.739 430.204 262.712 430.336 262.712 430.496L261.548 435.837L260.781 439.566C259.486 445.702 257.343 449.959 254.355 452.339L254.117 452.498C253.139 453.159 252.451 453.529 252.055 453.556C251.684 453.582 251.34 453.609 251.023 453.662L249.013 453.741" fill="#4E4D68"/>
<path fill-rule="evenodd" clip-rule="evenodd" d="M311.609 424.519C311.716 424.519 311.795 424.492 311.848 424.466C312.35 424.466 313.461 424.148 315.153 423.514C319.358 421.768 323.695 418.78 328.191 414.548C330.043 412.618 331.523 410.82 332.607 409.101C334.247 406.112 335.094 403.336 335.146 400.744C335.146 399.184 334.696 397.571 333.771 395.878C333.296 395.138 332.767 394.714 332.132 394.556H332.449H330.968H332.053C331.604 394.397 330.941 394.318 330.122 394.318C329.249 394.423 328.8 394.503 328.8 394.556H330.968C329.117 394.556 326.922 395.349 324.383 396.936C319.834 400.057 316.502 404.129 314.387 409.18C312.536 413.57 311.609 418.7 311.609 424.519ZM320.363 451.97C317.375 451.97 314.36 451.308 311.372 450.012C308.119 448.584 305.396 446.39 303.227 443.427C299.762 438.429 298.043 432.029 298.043 424.228C298.043 419.52 298.625 414.919 299.762 410.423C300.873 406.245 302.354 402.595 304.125 399.501C305.897 396.407 308.119 393.551 310.79 390.933C313.461 388.341 316.264 386.252 319.227 384.718C322.215 383.158 325.124 382.206 328.032 381.835H332.37C333.771 381.888 335.146 382.126 336.548 382.549C342.233 384.665 345.884 388.579 347.471 394.318C347.999 396.063 348.237 398.02 348.237 400.136C348.237 403.68 347.471 407.117 345.937 410.423C344.853 412.962 343.16 415.607 340.886 418.331C340.436 419.044 339.352 420.208 337.633 421.821C331.999 426.714 326.419 430.125 320.893 432.056C318.115 432.981 315.55 433.484 313.223 433.589C313.275 433.642 313.328 433.748 313.382 433.907C313.435 434.065 313.487 434.25 313.54 434.436C313.963 435.335 314.492 436.155 315.153 436.921C316.926 438.879 318.803 439.884 320.813 439.884C322.796 439.884 324.7 439.328 326.552 438.244C327.636 437.688 328.667 437.081 329.646 436.472C331.259 435.441 332.185 434.78 332.449 434.515C333.982 433.14 335.596 432.002 337.235 431.103L337.791 430.812C338.611 430.654 339.404 430.575 340.197 430.575C341.281 430.575 342.445 430.786 343.715 431.236C344.984 431.686 345.751 433.087 346.016 435.467C345.698 436.736 345.169 437.954 344.402 439.09C343.662 440.227 342.763 441.259 341.731 442.185C336.944 446.521 331.471 449.616 325.309 451.414C323.669 451.784 322.003 451.97 320.363 451.97V451.97Z" fill="#4E4D68"/>
<path fill-rule="evenodd" clip-rule="evenodd" d="M357.229 455.434C355.933 455.434 354.531 454.957 353.024 454.005C351.49 453.054 350.591 451.229 350.354 448.558C349.982 445.146 349.798 440.069 349.798 433.352L349.877 431.659C349.93 427.745 350.089 423.672 350.354 419.494C350.354 418.568 350.38 417.616 350.485 416.638C350.644 412.433 351.199 408.149 352.125 403.759L353.051 400.268C353.712 397.914 354.69 395.852 355.906 394.159C357.837 391.329 360.429 389.901 363.734 389.901C364.687 389.901 365.639 390.034 366.617 390.298C368.574 391.012 370.425 392.308 372.197 394.159C373.281 395.349 374.498 396.989 375.82 399.131C377.38 401.432 378.835 403.997 380.157 406.8L381.109 408.73C381.506 409.55 381.902 410.396 382.272 411.269C383.357 413.702 384.019 415.342 384.283 416.162C385.314 418.489 386.002 420.182 386.372 421.266L390.074 430.257L390.392 425.762C390.55 423.302 390.63 421.107 390.63 419.177L390.709 416.4L390.63 414.919C390.63 412.909 390.604 411.561 390.55 410.899C390.55 407.963 390.63 405.478 390.789 403.468V400.136L390.709 399.052C390.709 398.311 390.789 397.597 390.947 396.883C391.873 393.974 393.38 392.546 395.522 392.546C397.215 392.546 398.643 393.762 399.779 396.248C400.124 397.227 400.388 398.311 400.547 399.501C400.706 400.691 400.996 402.278 401.393 404.235C402.134 407.646 402.583 411.031 402.795 414.39L403.271 418.727C403.773 422.376 404.064 425.947 404.117 429.411C404.117 430.442 403.985 432.478 403.721 435.547L403.641 435.758C403.271 440.307 402.134 443.956 400.15 446.68C398.087 449.377 395.442 450.726 392.19 450.726C388.964 450.726 386.187 449.404 383.807 446.759C382.22 445.278 380.58 442.925 378.94 439.725C377.116 436.102 375.08 431.342 372.806 425.47C372.699 425.101 372.567 424.704 372.382 424.254C372.197 423.831 371.087 420.922 369.023 415.553C369.023 415.448 368.997 415.368 368.944 415.315C368.045 412.724 367.014 410.29 365.823 408.016L365.612 407.567L364.369 417.484C364.369 417.801 364.343 418.066 364.29 418.331C364.078 420.975 363.92 423.514 363.813 425.999C363.813 426.714 363.708 429.252 363.523 433.589C363.364 438.826 363.231 442.316 363.126 444.142L362.809 448.928C362.756 449.722 362.677 450.462 362.57 451.176C361.91 454.032 360.138 455.434 357.229 455.434" fill="#4E4D68"/>
<path fill-rule="evenodd" clip-rule="evenodd" d="M436.566 462.415C428.395 462.415 421.387 458.316 415.489 450.091C413.056 446.68 410.967 442.74 409.221 438.244C409.115 437.768 408.983 437.345 408.825 436.921C407.423 432.902 406.497 428.776 406.048 424.519L405.889 422.138C405.73 420.525 405.651 418.965 405.651 417.405L405.73 415.845C405.942 408.624 407.026 402.331 408.983 396.936C410.227 392.863 412.051 389.107 414.484 385.643C416.388 382.735 418.927 380.01 422.074 377.418C424.56 375.409 427.337 373.769 430.457 372.473C432.626 371.601 435.376 371.019 438.734 370.754C443.442 370.754 447.145 371.839 449.895 374.007C451.402 375.092 452.83 376.652 454.232 378.662C455.475 380.672 456.374 382.364 456.956 383.686C457.617 385.247 457.961 386.728 457.961 388.129C457.961 388.79 457.881 389.373 457.723 389.901V389.981C457.088 391.621 455.792 392.467 453.756 392.467C452.222 392.467 450.688 392.043 449.154 391.224C447.62 390.377 446.483 389.214 445.716 387.653C443.706 384.295 441.776 382.629 439.978 382.629C439.766 382.629 439.343 382.655 438.708 382.735C438.047 382.814 436.831 383.449 435.006 384.639C434.027 385.194 433.102 385.829 432.229 386.49C429.69 388.605 427.337 391.832 425.168 396.169C424.56 397.729 423.978 399.263 423.476 400.823C421.915 405.874 421.148 411.401 421.148 417.405C421.148 420.658 421.677 424.413 422.762 428.644C423.555 431.844 424.903 435.097 426.808 438.402C430.669 444.908 434.477 448.161 438.18 448.161C440.163 448.161 441.829 447.605 443.23 446.521C444.87 445.305 445.98 444.379 446.563 443.824L447.039 443.427C448.123 442.449 449.34 440.994 450.741 439.011C451.455 438.085 451.878 437.556 451.958 437.424C452.011 437.292 452.143 437.186 452.301 437.081C453.333 436.102 454.364 435.6 455.396 435.6C455.66 435.6 456.162 435.706 456.902 435.89C457.644 436.075 458.252 437.001 458.728 438.72L458.807 439.328L458.728 439.566C458.728 440.756 458.596 441.946 458.331 443.136L458.014 444.3C457.3 447.553 456.03 450.488 454.232 453.106C452.116 456.122 449.419 458.448 446.166 460.088C443.283 461.648 440.084 462.415 436.566 462.415" fill="#4E4D68"/>
<path fill-rule="evenodd" clip-rule="evenodd" d="M482.661 439.328C482.925 439.328 483.48 439.143 484.354 438.8C485.226 438.429 486.47 436.79 488.082 433.907C488.585 433.087 489.034 432.188 489.404 431.262V431.103C490.33 428.697 490.912 426.555 491.177 424.678L491.256 424.466C491.415 423.566 491.494 422.72 491.494 421.9C491.494 420.287 491.389 418.913 491.177 417.722C490.859 415.607 490.172 413.464 489.113 411.322C488.056 409.18 486.972 407.514 485.834 406.324C483.56 404.367 481.788 403.389 480.492 403.389C479.091 403.389 477.848 404.658 476.737 407.17C475.626 409.709 474.859 412.407 474.437 415.315C474.146 417.114 473.987 418.965 473.987 420.816C473.987 425.868 475.229 430.733 477.769 435.388C479.673 438.006 481.312 439.328 482.661 439.328ZM482.951 452.26C478.826 452.26 474.992 450.964 471.421 448.399C468.724 446.336 466.635 443.692 465.154 440.492C461.954 434.436 460.341 427.798 460.341 420.579C460.341 416.347 460.923 412.142 462.112 407.963C462.218 407.752 462.298 407.514 462.351 407.249C462.773 405.743 463.276 404.288 463.911 402.833C467.983 395.085 473.616 391.224 480.783 391.224C483.745 391.224 486.628 391.911 489.483 393.313C492.313 394.714 494.8 396.751 496.915 399.422C500.724 404.288 503.156 409.894 504.188 416.241C504.452 417.88 504.585 419.811 504.585 421.98C504.585 423.223 504.505 424.492 504.347 425.762C504.029 429.12 503.395 432.188 502.416 434.991C501.12 438.244 499.824 440.888 498.528 442.898C496.941 445.384 494.958 447.5 492.578 449.245C489.483 451.255 486.257 452.26 482.951 452.26V452.26Z" fill="#4E4D68"/>
<path fill-rule="evenodd" clip-rule="evenodd" d="M528.438 439.328C528.702 439.328 529.258 439.143 530.131 438.8C531.004 438.429 532.247 436.79 533.86 433.907C534.362 433.087 534.812 432.188 535.182 431.262V431.103C536.107 428.697 536.689 426.555 536.953 424.678L537.033 424.466C537.192 423.566 537.271 422.72 537.271 421.9C537.271 420.287 537.165 418.913 536.953 417.722C536.637 415.607 535.948 413.464 534.891 411.322C533.833 409.18 532.749 407.514 531.612 406.324C529.337 404.367 527.565 403.389 526.27 403.389C524.868 403.389 523.625 404.658 522.515 407.17C521.403 409.709 520.637 412.407 520.214 415.315C519.923 417.114 519.765 418.965 519.765 420.816C519.765 425.868 521.007 430.733 523.546 435.388C525.449 438.006 527.089 439.328 528.438 439.328ZM528.729 452.26C524.604 452.26 520.77 450.964 517.198 448.399C514.501 446.336 512.412 443.692 510.932 440.492C507.731 434.436 506.118 427.798 506.118 420.579C506.118 416.347 506.7 412.142 507.89 407.963C507.996 407.752 508.075 407.514 508.128 407.249C508.551 405.743 509.054 404.288 509.688 402.833C513.761 395.085 519.394 391.224 526.561 391.224C529.522 391.224 532.405 391.911 535.261 393.313C538.091 394.714 540.577 396.751 542.692 399.422C546.501 404.288 548.934 409.894 549.965 416.241C550.229 417.88 550.362 419.811 550.362 421.98C550.362 423.223 550.282 424.492 550.124 425.762C549.807 429.12 549.172 432.188 548.193 434.991C546.897 438.244 545.602 440.888 544.306 442.898C542.719 445.384 540.735 447.5 538.355 449.245C535.261 451.255 532.034 452.26 528.729 452.26V452.26Z" fill="#4E4D68"/>
<path fill-rule="evenodd" clip-rule="evenodd" d="M564.14 460.723C562.686 460.723 561.257 460.167 559.829 459.057C558.428 457.946 557.687 456.148 557.634 453.662C557.37 451.863 557.052 448.955 556.655 444.935C556.285 440.941 556.021 437.609 555.915 434.912L555.704 432.135L555.148 423.672C554.725 418.145 554.46 414.205 554.302 411.825C554.144 409.444 554.064 407.435 554.064 405.795C553.693 401.035 553.456 396.989 553.297 393.683C552.979 388.261 552.794 384.427 552.741 382.153L552.451 376.969C552.292 373.082 552.133 370.252 551.975 368.427L551.896 365.492C551.896 364.883 551.948 364.222 552.054 363.561L552.133 363.402C552.186 363.033 552.318 362.715 552.504 362.397C554.884 360.546 557.052 359.595 559.036 359.595C561.76 359.595 563.479 362.186 564.219 367.343C564.536 369.327 564.801 371.812 565.065 374.88C565.276 376.625 565.409 378.371 565.462 380.143L565.621 381.518C565.7 384.48 565.832 386.728 565.991 388.315C566.149 389.874 566.281 391.461 566.388 393.075C566.546 396.01 566.679 398.02 566.784 399.052L567.154 404.631C567.154 405.557 567.208 406.456 567.313 407.329V407.409L571.253 403.917L573.739 401.59C574.982 400.453 575.749 399.686 576.066 399.263C576.992 398.337 577.68 397.623 578.077 397.094C578.658 396.328 579.267 395.64 579.954 395.005C581.224 394.239 582.572 393.842 583.974 393.842C587.227 393.842 589.475 395.138 590.718 397.729C590.982 398.232 591.088 398.787 591.088 399.342C591.088 400.85 590.188 402.489 588.391 404.314C587.253 405.848 585.772 407.488 583.974 409.18V409.26L580.642 412.38L578.632 413.994L578.711 414.152C579.743 415.184 580.906 416.85 582.202 419.177C582.202 419.282 582.89 420.737 584.291 423.514C585.931 427.454 587.121 430.204 587.835 431.817C588.575 433.404 589.448 435.229 590.479 437.239C592.04 439.831 594.155 441.523 596.826 442.343C597.858 442.66 598.651 443.057 599.207 443.56C599.735 444.036 600 444.829 600 445.913V446.521C599.127 447.923 597.938 449.007 596.456 449.801L596.14 449.853C595.663 450.171 594.129 450.33 591.484 450.33C588.945 450.065 586.434 448.69 583.895 446.151C582.599 444.591 581.383 442.978 580.245 441.259C579.689 440.28 579.108 439.302 578.553 438.323C577.971 437.345 577.441 436.313 576.913 435.229L573.898 428.723L572.285 424.915C571.65 423.276 571.016 421.953 570.328 420.975C570.222 420.764 570.09 420.579 569.958 420.419L569.641 420.579C569.271 420.948 568.82 421.213 568.239 421.425C568.239 422.615 568.292 423.831 568.397 425.048C568.503 426.237 568.609 427.507 568.715 428.803L569.323 439.407C569.481 441.02 569.561 442.607 569.561 444.221C569.72 445.49 569.799 447.156 569.799 449.166C569.905 450.409 569.958 451.652 569.958 452.895C569.905 454.191 569.772 455.434 569.561 456.677C568.529 459.374 566.731 460.723 564.14 460.723" fill="#4E4D68"/>
<path fill-rule="evenodd" clip-rule="evenodd" d="M159.625 24.683V27.024C165.851 33.46 207.09 109.647 215.132 118.663C228.087 133.186 247.15 131.738 261.386 146.009C269.027 153.671 285.135 177.769 291.146 189.206C287.133 196.32 280.532 202.377 275.363 208.855C273.397 211.32 273.421 211.655 271.333 213.864L206.215 286.836C198.847 296.726 178.587 321.918 190.289 339.546C201.208 355.994 223.216 340.093 234.569 325.607C253.596 301.332 295.356 215.18 302.279 207.892C324.71 238.462 355.366 325.043 380.135 341.913C395.103 352.107 417.839 353.096 414.736 328.256C410.879 297.378 373.08 261.7 352.686 237.957C350.1 235.365 350.314 235.266 348.019 232.059C345.032 227.889 342.39 225.957 338.923 221.651L321.221 200.294C317.467 195.669 315.872 194.854 312.868 189.206L338.852 149.11C350.512 133.463 362.207 133.436 385.244 128.053C404.246 123.613 416.894 111.509 425.106 100.233C429.62 94.035 433.595 86.846 436.656 78.73C442.7 62.708 446.722 37.526 438.921 21.166C429.482 1.375 411.6 0.492 392.194 7.179C370.23 14.746 352.569 30.798 342.585 46.364C321.399 79.388 337.878 90.494 335.507 121.689C334.441 135.703 326.559 143.074 320.434 151.822C315.611 158.709 306.994 171.62 300.397 176.381C298.149 170.299 290.047 161.206 285.633 154.816C246.25 97.807 296.323 118.568 243.268 57.547L212.244 19.481C208.574 15.093 207.393 13.78 203.992 9.748C201.066 6.277 200.325 4.313 196.59 0H194.737C196.764 7.341 211.871 27.994 216.907 35.738C220.561 41.359 238.282 67.184 238.179 70.865C233.159 71.737 234.32 69.91 230.812 65.537L197.471 23.762C195.861 21.768 195.832 21.515 194.17 19.533L187.474 11.118C185.002 8.68 187.142 9.959 183.124 8.184C190.058 23.936 225.606 73.145 225.296 80.607C220.318 80.071 221.184 79.452 217.502 74.35L171.172 16.227C173.434 24.024 187.123 44.815 192.26 52.883C196.234 59.122 212.04 83.849 212.443 89.832C206.784 88.304 208.617 87.775 204.785 82.514C202.601 79.515 200.683 77.218 198.272 74.03C190.665 63.97 165.659 27.871 159.625 24.683" fill="#B8B7B7"/>
<path fill-rule="evenodd" clip-rule="evenodd" d="M239.785 294.349C243.513 300.651 251.212 311.375 260.492 312.36L255.628 305.941C253.813 303.583 252.885 302.278 251.254 299.473C248.864 295.364 246.308 289.691 244.469 283.984C240.741 272.423 239.06 249.083 239.104 236.374C239.113 234.032 238.909 232.328 239.934 231.021C240.819 234.395 241.472 240.523 242.188 244.217C243.896 253.029 249.141 287.465 254.839 290.09C253.842 282.097 250.771 274.81 250.896 265.592C255.566 251.062 258.516 254.388 270.925 267.23C278.264 274.824 286.534 284.505 299.93 284.462C312.086 284.422 322.625 274.285 328.804 267.062C335.688 259.012 343.029 264.963 348.679 253.166C348.902 262.011 345.754 278.639 344.728 286.791C347.524 285.16 348.89 281.686 350.619 277.298C355.502 264.913 359.328 232.066 359.918 230.957C363.559 240.692 356.364 282.58 348.191 296.316C344.431 302.634 339.589 307.208 339.272 308.984C351.608 308.743 363.243 286.255 367.662 273.728C378.003 244.416 383.729 177.19 386.771 162.621L368.162 180.99C367.08 184.806 366.926 204.296 364.22 206.38C360.822 208.999 356.753 207.879 353.722 204.923C353.231 204.446 352.761 203.916 352.313 203.342C351.292 217.989 348.221 232.238 342.364 245.769C334.655 263.041 316.888 275.009 300.483 275.611C281.184 276.32 258.655 254.972 252.933 233.884C251.653 229.168 250.601 224.152 249.771 218.939C247.927 219.198 246.151 217.696 244.741 216.027C243.601 214.678 242.514 213.18 241.495 211.675C240.541 210.268 239.601 208.781 238.782 207.236C237.057 203.976 237.582 160.057 236.388 156.271L225.775 177.227C224.558 180.961 223.623 185.186 222.95 189.77C218.24 221.87 226.349 271.633 239.785 294.349" fill="#0A0B09"/>
<path fill-rule="evenodd" clip-rule="evenodd" d="M339.58 180.333C349.446 180.112 359.631 194.283 347.159 197.835L348.263 194.33C346.379 193.108 345.483 192.251 343.7 191.568C344.04 192.545 344.225 193.597 344.225 194.691C344.225 199.94 339.97 204.195 334.721 204.195C329.471 204.195 325.216 199.94 325.216 194.691C325.216 193.749 325.354 192.838 325.607 191.98C321.966 193.008 321.843 194.34 321.438 195.09L320.81 196.592C320.776 196.487 320.713 196.952 320.604 197.099C318.16 195.859 317.357 195.296 315.843 193.465C317.938 190.129 324.664 186.699 329.453 185.331C338.364 182.781 340.386 185.161 347.433 186.236C340.747 180.184 345.238 184.286 339.58 180.333ZM252.164 197.881C239.473 192.776 250.391 180.766 259.684 180.253C256.875 182.776 254.045 183.158 252.119 186.297C268.78 182.207 272.285 185.216 283.604 192.626C282.129 195.723 281.481 195.745 278.487 197.142L278.212 196.101C277.596 194.261 278.181 193.384 273.762 192.14C274.116 193.134 274.309 194.208 274.309 195.324C274.309 200.573 270.054 204.829 264.803 204.829C259.554 204.829 255.298 200.573 255.298 195.324C255.298 193.972 255.582 192.686 256.091 191.522C254.26 192.051 253.534 192.648 251.289 193.93L252.164 197.881ZM292.714 254.901C286.156 254.614 276.202 249.204 275.598 243.77C281.333 245.569 274.497 247.392 287.344 245.273C298.441 243.441 295.998 246.871 299.82 246.711C303.551 246.555 301.244 243.347 313.038 245.44C323.67 247.327 317.857 245.386 323.901 243.821C323.167 248.69 313.45 254.855 306.505 254.803L312.076 251.499C306.641 250.57 304.787 253.328 299.173 253.173C293.969 253.03 292.461 250.298 287.202 251.769L292.714 254.901ZM317.026 177.106C317.345 166.911 319.487 169.183 335.211 166.09C343.201 164.519 355.535 163.181 358.73 170.22C336.977 164.246 332.143 177.98 317.026 177.106ZM240.663 169.128C247.379 162.138 260.235 165.331 269.777 167.229C273.449 167.959 276.377 167.915 279.926 168.512C281.01 171.138 282.323 173.565 282.387 177.241C273.661 177.097 269.22 173.459 261.806 170.873C245.048 165.029 243.675 171.453 240.663 169.128ZM311.688 263.8C308.182 274.926 290.523 274.556 287.767 263.569C291.969 264.228 295.255 265.218 299.916 265.198C304.171 265.18 308.331 263.694 311.688 263.8ZM289.887 229.985C292.871 226.858 296.343 234.674 301.42 232.936C303.651 232.171 305.163 230.001 306.751 229.533C309.938 228.595 310.723 230.902 309.296 233.552C307.82 236.3 302.311 239.803 297.171 238.537C294.848 237.964 286.994 233.016 289.887 229.985ZM364.924 159.221C360.434 136.56 350.038 120.623 331.702 113.183C313.338 105.73 282.053 105.802 264.545 114.628C247.485 123.227 237.584 138.907 233.775 163.189C230.054 186.914 231.696 213.258 238.954 233.884C246.376 254.972 275.595 291.711 300.626 291.002C321.902 290.399 344.947 263.041 354.944 245.769C370.018 218.914 370.87 189.234 364.924 159.221V159.221Z" fill="#F5CDAD"/>
<path fill-rule="evenodd" clip-rule="evenodd" d="M212.101 131.775C216.058 124.832 214.502 121.629 224.028 108.374C227.276 103.854 237.408 93.0129 242.842 91.1989C241.112 94.4459 233.369 100.368 225.867 115.914C221.505 124.951 216.866 138.034 217.626 150.059L218.328 149.199C219.163 147.785 218.428 149.384 219.097 147.716C222.394 139.523 221.792 137.7 228.948 128.288C233.133 122.782 239.605 117.027 246.479 112.96C280.353 92.9159 353.322 92.9889 376.447 137.717C378.231 141.168 379.567 147.061 381.279 149.932C382.702 147.767 381.803 143.09 381.437 140.628C380.188 132.239 377.145 123.559 373.659 116.178C367.089 102.263 357.873 93.9629 356.485 91.0189C366.499 95.6129 376.503 108.688 381.968 119.274C383.667 122.568 386.091 129.883 387.525 131.891C388.331 114.07 372.961 91.3879 359.523 81.0679C316.038 47.6789 247.28 57.3869 221.12 102.595C218.821 106.571 209.614 126.57 212.101 131.775" fill="#FFFFFE"/>
<path fill-rule="evenodd" clip-rule="evenodd" d="M339.58 180.333C345.238 184.286 340.747 180.184 347.433 186.236C340.386 185.161 338.364 182.781 329.453 185.331C324.664 186.699 317.938 190.129 315.843 193.465C317.357 195.296 318.16 195.859 320.604 197.099C320.713 196.952 320.776 196.487 320.81 196.592L321.438 195.09C321.843 194.34 321.966 193.008 325.607 191.98C325.354 192.838 325.216 193.749 325.216 194.691C325.216 199.94 329.471 204.195 334.721 204.195C339.97 204.195 344.225 199.94 344.225 194.691C344.225 193.597 344.04 192.545 343.7 191.568C345.483 192.251 346.379 193.108 348.263 194.33L347.159 197.835C359.631 194.283 349.446 180.112 339.58 180.333" fill="#0A0B09"/>
<path fill-rule="evenodd" clip-rule="evenodd" d="M252.164 197.881L251.289 193.93C253.534 192.648 254.26 192.051 256.091 191.522C255.582 192.686 255.298 193.972 255.298 195.324C255.298 200.573 259.554 204.829 264.803 204.829C270.054 204.829 274.309 200.573 274.309 195.324C274.309 194.208 274.116 193.134 273.762 192.14C278.181 193.384 277.596 194.261 278.212 196.101L278.487 197.142C281.481 195.745 282.129 195.723 283.604 192.626C272.285 185.216 268.78 182.207 252.119 186.297C254.045 183.158 256.875 182.776 259.684 180.253C250.391 180.766 239.473 192.776 252.164 197.881" fill="#0A0B09"/>
<path fill-rule="evenodd" clip-rule="evenodd" d="M292.714 254.901L287.202 251.769C292.461 250.298 293.969 253.03 299.173 253.173C304.787 253.328 306.641 250.57 312.076 251.499L306.505 254.803C313.45 254.855 323.167 248.69 323.901 243.821C317.857 245.386 323.67 247.327 313.038 245.44C301.244 243.347 303.551 246.555 299.82 246.711C295.998 246.871 298.441 243.441 287.344 245.273C274.497 247.392 281.333 245.569 275.598 243.77C276.202 249.204 286.156 254.614 292.714 254.901" fill="#0A0B09"/>
<path fill-rule="evenodd" clip-rule="evenodd" d="M317.026 177.106C332.143 177.98 336.977 164.246 358.73 170.22C355.535 163.181 343.201 164.519 335.211 166.09C319.487 169.183 317.345 166.911 317.026 177.106" fill="#0A0B09"/>
<path fill-rule="evenodd" clip-rule="evenodd" d="M240.663 169.128C243.675 171.453 245.048 165.029 261.806 170.873C269.22 173.459 273.661 177.097 282.387 177.241C282.323 173.565 281.01 171.138 279.926 168.512C276.377 167.915 273.449 167.959 269.777 167.229C260.235 165.331 247.379 162.138 240.663 169.128" fill="#0A0B09"/>
<path fill-rule="evenodd" clip-rule="evenodd" d="M311.688 263.8C308.331 263.694 304.171 265.18 299.916 265.198C295.255 265.218 291.969 264.228 287.767 263.569C290.523 274.556 308.182 274.926 311.688 263.8" fill="#0A0B09"/>
<path fill-rule="evenodd" clip-rule="evenodd" d="M289.887 229.985C286.994 233.016 294.848 237.964 297.171 238.537C302.311 239.803 307.82 236.3 309.296 233.552C310.723 230.902 309.938 228.595 306.751 229.533C305.163 230.001 303.651 232.171 301.42 232.936C296.343 234.674 292.871 226.858 289.887 229.985" fill="#0A0B09"/>
<path fill-rule="evenodd" clip-rule="evenodd" d="M212.874 126.228C212.38 122.364 215.479 108.032 221.535 100.541C227.589 93.0487 226.364 87.8187 229.42 81.3237C232.477 74.8277 236.11 67.7917 239.875 62.6487C243.64 57.5057 247.538 54.2587 251.26 51.8677C254.982 49.4777 258.525 43.9277 261.804 43.1617C265.083 42.3947 268.095 42.3947 271.771 41.8537C275.447 41.3137 279.789 40.2297 284.707 38.9667C289.625 37.7047 295.118 36.2597 299.814 36.3047C304.51 36.3497 308.408 37.8837 314.167 39.2367C319.926 40.5897 327.546 41.7637 333.57 43.6127C339.595 45.4607 344.024 47.9887 349.739 50.1537C355.454 52.3177 362.454 54.1237 367.061 55.8367C371.668 57.5507 373.884 59.1757 375.788 62.0627C377.693 64.9487 379.29 73.1147 379.555 77.1287C379.819 81.1427 378.758 85.0217 378.27 88.1797C377.227 94.9327 385.605 102.702 386.188 106.268C386.798 110.009 385.43 115.247 385.906 117.274C386.382 119.302 388.642 132.004 388.678 132.676C386.278 128.932 377.261 112.593 374.061 108.84C368.214 101.983 361.126 95.4357 353.684 89.9327C346.24 84.4287 338.443 80.6397 328.964 77.9327C319.483 75.2277 308.319 73.6027 298.13 73.6027C287.941 73.6027 278.727 75.2267 269.956 77.3017C261.184 79.3757 252.856 81.2337 245.501 86.5567C238.147 91.8787 230.916 101.072 226.541 106.585C222.165 112.097 215.215 122.961 212.874 126.228" fill="black"/>
<path fill-rule="evenodd" clip-rule="evenodd" d="M235.791 101.421C236.189 104.939 236.631 111.074 238.093 113.601C239.555 116.126 242.036 115.043 245.004 113.059C247.973 111.074 251.428 108.188 253.776 106.113C256.125 104.037 257.364 102.774 257.453 101.512C257.54 100.248 256.479 98.9851 255.813 96.6851C255.149 94.3841 254.883 91.0461 255.326 88.4751C255.768 85.9041 256.92 84.1001 256.92 82.9271C256.92 81.7541 255.768 81.2131 253.155 82.3401C250.542 83.4671 246.466 86.2651 243.143 88.8361C239.82 91.4071 237.251 93.7521 236.144 95.3761C235.037 97.0001 235.391 97.9031 235.791 101.421ZM233.807 213.245C234.124 215.063 228.03 208.195 225.204 204.077C222.376 199.959 219.896 194.365 217.77 187.869C215.643 181.374 213.871 173.976 212.719 167.48C211.567 160.985 211.035 155.392 210.771 149.889C210.504 144.384 210.504 138.972 210.947 134.551C211.39 130.131 212.275 126.703 214.757 122.463C217.238 118.222 221.313 113.17 226.541 106.585C231.768 99.9981 238.147 91.8791 245.501 86.5571C252.856 81.2341 261.184 78.7081 269.956 76.6331C278.727 74.5581 287.941 72.9341 298.13 72.9341C308.319 72.9341 319.484 74.5581 328.964 77.2641C338.444 79.9701 346.24 83.7591 353.684 89.2641C361.126 94.7661 368.214 101.983 374.061 108.84C379.908 115.696 384.517 122.192 387.528 129.589C390.542 136.987 391.959 145.288 392.225 153.046C392.653 165.567 382.636 202.422 367.585 205.936C367.136 206.04 368.286 196.16 365.871 186.286C364.318 179.944 366.623 172.44 365.72 165.723C364.84 159.177 361.135 152.432 357.229 146.779C353.325 141.125 348.96 136.753 344.099 133.137C339.238 129.521 333.883 126.663 329.071 124.77C324.26 122.876 319.989 121.949 315.41 121.47C310.832 120.991 305.943 120.959 300.385 121.263C294.827 121.568 288.601 122.208 282.936 123.126C277.271 124.045 272.167 125.244 267.003 127.221C261.84 129.199 256.617 131.954 252.447 135.05C248.277 138.146 245.162 141.581 242.89 144.479C240.619 147.376 239.193 149.735 237.471 153.682C235.749 157.628 235.736 163.163 234.44 167.471C232.368 174.369 231.808 199.933 232.901 206.729C233.394 209.794 233.489 211.426 233.807 213.245V213.245Z" fill="black"/>
<path fill-rule="evenodd" clip-rule="evenodd" d="M235.79 101.421C236.188 104.939 236.631 111.074 238.093 113.601C239.555 116.126 242.036 115.044 245.004 113.059C247.972 111.074 251.428 108.188 253.776 106.112C256.124 104.037 257.364 102.774 257.453 101.511C257.542 100.248 256.478 98.9852 255.813 96.6852C255.149 94.3842 254.883 91.0462 255.326 88.4752C255.769 85.9042 256.921 84.1002 256.921 82.9272C256.921 81.7542 255.769 81.2122 253.155 82.3402C250.542 83.4682 246.466 86.2652 243.143 88.8362C239.821 91.4072 237.251 93.7522 236.145 95.3762C235.037 97.0012 235.391 97.9022 235.79 101.421" fill="#97582C"/>
</svg>
