<svg width="85" height="66" viewBox="0 0 85 66" fill="none" xmlns="http://www.w3.org/2000/svg">
<path fill-rule="evenodd" clip-rule="evenodd" d="M5.01903 64.4105C3.88089 64.4105 2.90461 63.8395 2.08322 62.6939C1.74433 62.2188 1.45321 61.67 1.21015 61.0437C1.19539 60.9774 1.177 60.9185 1.155 60.8594C0.959712 60.2996 0.83073 59.7249 0.768049 59.132L0.746042 58.8003C0.723894 58.5756 0.712891 58.3584 0.712891 58.1411L0.723894 57.9238C0.753424 56.918 0.904414 56.0414 1.177 55.2899C1.35014 54.7226 1.60434 54.1994 1.94324 53.7169C2.20844 53.3119 2.5621 52.9323 3.00044 52.5713C3.34672 52.2915 3.73352 52.063 4.16811 51.8825C4.47023 51.761 4.85327 51.68 5.32101 51.6431C5.97678 51.6431 6.49243 51.7942 6.87562 52.0962C7.08553 52.2473 7.28443 52.4646 7.47972 52.7446C7.65271 53.0245 7.77807 53.2602 7.85914 53.4444C7.95121 53.6618 7.99913 53.8681 7.99913 54.0632C7.99913 54.1553 7.98798 54.2365 7.96584 54.31V54.3212C7.87753 54.5496 7.69701 54.6675 7.41327 54.6675C7.19974 54.6675 6.98607 54.6084 6.7724 54.4943C6.55873 54.3763 6.40036 54.2144 6.29353 53.9969C6.01355 53.5292 5.74472 53.2971 5.49428 53.2971C5.46475 53.2971 5.40583 53.3008 5.31738 53.3119C5.22531 53.3229 5.05594 53.4113 4.80173 53.5771C4.66537 53.6544 4.53639 53.7429 4.41493 53.8349C4.06127 54.1295 3.73352 54.579 3.4314 55.1831C3.34672 55.4004 3.26565 55.6141 3.19573 55.8314C2.9783 56.5349 2.8716 57.3048 2.8716 58.1411C2.8716 58.5942 2.94514 59.1172 3.09613 59.7065C3.20673 60.1523 3.39449 60.6054 3.65984 61.0657C4.19764 61.9719 4.72805 62.425 5.2437 62.425C5.52005 62.425 5.75211 62.3476 5.94725 62.1966C6.17569 62.0272 6.33044 61.8983 6.4115 61.821L6.47767 61.7657C6.6288 61.6294 6.79817 61.4268 6.99346 61.1506C7.09291 61.0216 7.15183 60.9479 7.16283 60.9295C7.17021 60.9111 7.1886 60.8963 7.21075 60.8817C7.35449 60.7454 7.4981 60.6754 7.64171 60.6754C7.67862 60.6754 7.74854 60.6902 7.85162 60.7158C7.95483 60.7416 8.03966 60.8706 8.10596 61.11L8.11696 61.1947L8.10596 61.2279C8.10596 61.3936 8.08744 61.5594 8.05066 61.7251L8.00637 61.8873C7.90692 62.3404 7.73016 62.7492 7.47972 63.1138C7.18498 63.5339 6.80931 63.8579 6.35621 64.0864C5.95463 64.3036 5.50905 64.4105 5.01903 64.4105Z" fill="#303030"/>
<path fill-rule="evenodd" clip-rule="evenodd" d="M12.9928 57.7229C12.9854 57.7155 12.9744 57.7119 12.9633 57.7119C12.9523 57.7119 12.9449 57.7119 12.9375 57.7119C12.9302 57.7119 12.9265 57.7081 12.9265 57.7008L12.9597 57.6677C12.9669 57.6677 12.9707 57.6714 12.9744 57.6714C12.9781 57.675 12.9817 57.6824 12.9854 57.6935C12.9891 57.7045 12.9928 57.7155 12.9928 57.7229ZM14.6228 65.0138C14.5638 65.0138 14.5122 65.0102 14.4606 65.0028C14.4091 64.9954 14.3318 64.9403 14.2248 64.8297L14.1144 64.6677C13.9781 64.4834 13.8455 64.1813 13.7165 63.7615C13.7092 63.7209 13.6982 63.6804 13.6834 63.6436C13.5396 63.0985 13.4292 62.4944 13.3483 61.8312C13.3335 61.7097 13.3261 61.5881 13.3261 61.4739L13.2966 61.5181C12.8766 62.1148 12.4199 62.5533 11.9263 62.8331H11.9153C11.5396 63.0505 11.1454 63.1574 10.7254 63.1574C10.0956 63.1574 9.5614 62.9216 9.13044 62.4464C8.59626 61.8865 8.33105 61.0466 8.33105 59.9305C8.39011 58.8217 8.71048 57.805 9.29257 56.8768C9.59469 56.3868 9.91882 55.9964 10.2613 55.7018C10.2613 55.6648 10.4418 55.5286 10.8029 55.2892C11.3075 54.9871 11.8785 54.8325 12.5194 54.8251C12.9798 54.8251 13.3703 54.9355 13.6945 55.1492C13.7681 55.186 13.8565 55.2598 13.9634 55.3665C13.9634 55.3739 13.967 55.3776 13.9745 55.3776C14.1476 55.5654 14.236 55.7533 14.236 55.9374C14.236 56.0333 14.2286 56.0922 14.2138 56.1217C14.1992 56.1511 14.177 56.1843 14.1476 56.2174C14.0185 56.3684 13.6686 56.4458 13.1014 56.4458H12.9615C12.593 56.4458 12.2579 56.4974 11.9558 56.5968C11.5616 56.8215 11.2043 57.1714 10.8876 57.654C10.4345 58.4091 10.195 59.1864 10.1655 59.9858C10.1655 60.3173 10.217 60.6194 10.3165 60.892C10.4233 61.2013 10.5892 61.3561 10.8139 61.3561C11.0164 61.3561 11.3185 61.1718 11.72 60.8073C11.72 60.7998 11.7237 60.7961 11.7311 60.7961C11.9116 60.6304 12.1768 60.3284 12.5304 59.8899L12.7663 59.5953C12.8325 59.4957 12.8988 59.4038 12.9725 59.3153C13.0425 59.2305 13.1088 59.1385 13.1677 59.0465L13.3076 58.8291C13.3076 58.7149 13.3187 58.586 13.3483 58.4423C13.3777 58.2324 13.4182 58.0409 13.4699 57.8602L13.5656 57.6762C13.6355 57.5398 13.8012 57.4699 14.0628 57.4699C14.1327 57.4699 14.2286 57.4771 14.3428 57.4919C14.6006 57.5361 14.7296 57.6245 14.7296 57.7609L14.7185 57.8272C14.7185 57.8346 14.726 57.8419 14.737 57.8492C14.748 57.8566 14.7664 57.875 14.7959 57.9045C14.8253 57.9524 14.8401 58.0372 14.8401 58.1513L14.8289 58.4533L14.8179 59.5436C14.8179 60.0816 14.8327 60.5088 14.8584 60.8257C14.8584 60.9583 14.8806 61.2456 14.9247 61.6912C14.9838 62.1222 15.0242 62.3911 15.0537 62.5017C15.1348 62.9879 15.2305 63.4262 15.3447 63.8168L15.3779 63.9236C15.4294 64.0451 15.4589 64.1703 15.4663 64.2919C15.4663 64.5645 15.3558 64.7634 15.142 64.885C14.9838 64.9697 14.8107 65.0138 14.6228 65.0138Z" fill="#303030"/>
<path fill-rule="evenodd" clip-rule="evenodd" d="M16.7147 63.4367C16.5342 63.4367 16.3391 63.3702 16.129 63.2376C15.9154 63.1051 15.7901 62.8509 15.757 62.4789C15.7055 62.0036 15.6797 61.2965 15.6797 60.3609L15.6907 60.125C15.6981 59.5799 15.7202 59.0125 15.757 58.4306C15.757 58.3016 15.7608 58.169 15.7755 58.0328C15.7975 57.4471 15.875 56.8503 16.0038 56.2389L16.1328 55.7526C16.2249 55.4247 16.3611 55.1375 16.5306 54.9017C16.7994 54.5075 17.1605 54.3086 17.621 54.3086C17.7536 54.3086 17.8862 54.3271 18.0224 54.3639C18.295 54.4633 18.553 54.6439 18.7996 54.9017C18.9506 55.0674 19.1201 55.2959 19.3043 55.5942C19.5217 55.9147 19.7242 56.272 19.9085 56.6624L20.0411 56.9313C20.0963 57.0455 20.1516 57.1633 20.2031 57.2849C20.3542 57.6238 20.4462 57.8523 20.4831 57.9665C20.6267 58.2906 20.7225 58.5264 20.7741 58.6774L21.2899 59.9298L21.334 59.3037C21.3562 58.961 21.3672 58.6553 21.3672 58.3864L21.3782 57.9996L21.3672 57.7933C21.3672 57.5134 21.3634 57.3256 21.3562 57.2334C21.3562 56.8244 21.3672 56.4783 21.3893 56.1983V55.7342L21.3782 55.5832C21.3782 55.48 21.3893 55.3806 21.4115 55.2811C21.5403 54.8759 21.7503 54.677 22.0486 54.677C22.2844 54.677 22.4833 54.8464 22.6417 55.1927C22.6896 55.329 22.7265 55.48 22.7485 55.6458C22.7706 55.8115 22.8112 56.0326 22.8663 56.3052C22.9695 56.7803 23.0321 57.2518 23.0616 57.7197L23.1279 58.3238C23.1978 58.832 23.2385 59.3294 23.2459 59.8119C23.2459 59.9555 23.2274 60.2391 23.1906 60.6666L23.1795 60.696C23.1279 61.3296 22.9695 61.8379 22.6932 62.2173C22.4058 62.593 22.0376 62.7809 21.5844 62.7809C21.1351 62.7809 20.7483 62.5967 20.4168 62.2283C20.1957 62.022 19.9673 61.6943 19.739 61.2486C19.4848 60.7439 19.2012 60.0809 18.8845 59.263C18.8697 59.2116 18.8513 59.1563 18.8254 59.0936C18.7996 59.0347 18.645 58.6295 18.3577 57.8816C18.3577 57.867 18.3539 57.8559 18.3467 57.8485C18.2213 57.4876 18.0777 57.1486 17.9119 56.8318L17.8824 56.7693L17.7094 58.1506C17.7094 58.1948 17.7057 58.2317 17.6983 58.2686C17.6687 58.6369 17.6467 58.9905 17.632 59.3367C17.632 59.4363 17.6172 59.7898 17.5914 60.3939C17.5693 61.1233 17.5509 61.6095 17.5361 61.8638L17.492 62.5304C17.4846 62.641 17.4736 62.7441 17.4588 62.8436C17.3668 63.2414 17.1201 63.4367 16.7147 63.4367Z" fill="#303030"/>
<path fill-rule="evenodd" clip-rule="evenodd" d="M29.9454 57.4805H29.706L29.8054 57.4695L29.9454 57.4805ZM27.9494 64.106C27.5516 64.106 27.1684 64.0581 26.7927 63.9661C26.2991 63.8223 25.8424 63.5719 25.4298 63.2146C25.0136 62.8609 24.6636 62.4152 24.3762 61.8848C24.0595 61.2991 23.831 60.7245 23.6874 60.1572C23.5364 59.472 23.459 58.8016 23.459 58.1386C23.4811 57.0519 23.6285 56.0389 23.9011 55.096C24.2915 53.8139 24.8772 52.7973 25.6618 52.0422C26.0339 51.6811 26.4059 51.4085 26.778 51.2245C27.1463 51.0439 27.5331 50.9297 27.9273 50.8855L28.2735 50.8745C28.4798 50.8745 28.6787 50.9077 28.8666 50.974C29.397 51.1729 29.8059 51.5559 30.0858 52.1159L30.2148 52.429C30.3658 52.7826 30.4431 53.07 30.4431 53.2947C30.4285 53.5157 30.351 53.6741 30.2148 53.7662C30.1154 53.8325 30.0121 53.8656 29.9127 53.8656C29.8611 53.8656 29.7837 53.8471 29.677 53.8177C29.5664 53.7845 29.4706 53.6703 29.3823 53.475C29.3491 53.4199 29.316 53.3536 29.2902 53.2835C29.2681 53.2098 29.2349 53.1399 29.2018 53.0662L29.1465 52.9594L29.0913 52.8194C29.0581 52.731 29.0065 52.661 28.9403 52.6021C28.7266 52.4436 28.5203 52.3664 28.3251 52.3664C28.0452 52.3664 27.7615 52.4843 27.4741 52.72C27.3379 52.8232 27.2163 52.941 27.1059 53.0772H27.0947C26.6785 53.5599 26.3544 54.1234 26.126 54.7717L26.115 54.7938C26.0191 55.037 25.9418 55.2875 25.8755 55.5489C25.7392 56.1383 25.6581 56.6614 25.6287 57.1145L25.6177 57.2545C25.6029 57.4754 25.5955 57.6965 25.5955 57.9102C25.5955 58.6027 25.6729 59.2142 25.824 59.7447C25.9307 60.1718 26.104 60.6065 26.3396 61.0523C26.5938 61.4612 26.8259 61.7596 27.0432 61.9473C27.3673 62.2495 27.7725 62.4004 28.2625 62.4004C28.4209 62.4004 28.5793 62.3822 28.7376 62.3489C28.8666 62.2974 28.9882 62.2384 29.1023 62.1759C29.3823 62.01 29.6069 61.8443 29.7727 61.6785L29.7948 61.6675C29.9754 61.4796 30.1375 61.2769 30.2885 61.0633C30.3843 60.9418 30.4616 60.8166 30.5278 60.695L30.5832 60.5881C30.7895 60.2125 30.9295 59.8145 31.003 59.391C31.0546 59.1884 31.0767 58.9968 31.0767 58.82C31.0767 58.5953 31.0546 58.4038 31.003 58.2454L30.9919 58.2123C30.8777 57.8992 30.6753 57.6929 30.3879 57.5972C30.2995 57.5566 30.211 57.5271 30.119 57.5124C30.0233 57.4828 29.9164 57.4682 29.7948 57.4682L29.5996 57.4792H29.6954C29.3675 57.494 29.0765 57.5529 28.8335 57.6523C28.7045 57.6965 28.5534 57.7592 28.3804 57.8475L28.2625 57.9102C27.953 58.0538 27.6914 58.1276 27.4853 58.1276C27.0542 58.1276 26.7927 57.9949 26.7079 57.7296C26.6931 57.6929 26.6859 57.656 26.6859 57.6192C26.6859 57.4608 26.7927 57.2765 27.01 57.0592C27.161 56.945 27.3195 56.842 27.4853 56.7573C28.2919 56.3409 29.036 56.131 29.7174 56.131C30.5094 56.131 31.1504 56.3335 31.6403 56.7351C31.8761 56.945 32.064 57.1808 32.2002 57.4424C32.3366 57.7039 32.4359 57.9802 32.4912 58.2676C32.5134 58.4112 32.5244 58.5843 32.5244 58.7869C32.5024 59.1663 32.4728 59.4463 32.4323 59.623C32.3919 59.7999 32.3512 59.9657 32.3071 60.124C32.1487 60.6582 31.9388 61.1443 31.6698 61.5902V61.6012C31.5778 61.7522 31.4819 61.8996 31.3788 62.0469L31.3605 62.0763C30.9 62.7172 30.3584 63.2256 29.7397 63.5976L29.6954 63.6308C29.1797 63.9475 28.5977 64.106 27.9494 64.106Z" fill="#303030"/>
<path fill-rule="evenodd" clip-rule="evenodd" d="M35.398 63.2027C35.3539 63.2027 35.2912 63.2027 35.2137 63.2027C35.1328 63.2027 35.026 63.1695 34.8898 63.107C34.6945 62.9964 34.5287 62.8602 34.3924 62.6943C34.234 62.4955 34.0461 62.175 33.8214 61.7329C33.3758 60.8009 33.0775 59.81 32.9263 58.7676L32.9042 58.6793C32.8195 58.1045 32.768 57.5152 32.7532 56.9111L32.7422 56.8043V56.5427C32.7422 55.9681 32.79 55.3309 32.8822 54.6346C33.0775 53.8649 33.3647 53.4779 33.7441 53.4779C34.0978 53.4779 34.396 53.6328 34.6429 53.942C34.8159 54.1668 34.9008 54.3989 34.9008 54.6457C34.9008 54.723 34.8898 54.8078 34.8676 54.8925L34.8159 55.3455L34.8049 55.4229L34.7719 56.0897C34.7719 56.9553 34.8271 57.762 34.9449 58.5171C35.0813 59.3385 35.2433 60.0384 35.4276 60.6132L35.4386 60.6573C35.5785 60.208 35.6558 59.9464 35.6818 59.8691C35.7075 59.788 35.7517 59.6296 35.818 59.3938C35.91 59.0844 35.9616 58.8929 35.969 58.8229C35.9911 58.7198 36.0169 58.624 36.0463 58.5283C36.1016 58.344 36.1459 58.1782 36.1753 58.0384C36.2048 57.8984 36.2306 57.773 36.2601 57.6663C36.2895 57.4711 36.352 57.2942 36.4441 57.1358C36.5805 56.9369 36.7242 56.8227 36.8752 56.7933C36.9489 56.7785 37.0299 56.7711 37.1256 56.7711C37.2398 56.7711 37.3687 56.7821 37.5124 56.8043C37.5824 56.819 37.6708 56.878 37.7776 56.9812C37.8807 57.0843 37.9803 57.2316 38.0722 57.4194C38.0722 57.4268 38.076 57.4305 38.0834 57.4305C38.3154 57.9388 38.437 58.2298 38.4518 58.3035C38.4812 58.3625 38.5033 58.4214 38.5254 58.4877L38.9491 59.4675C39.229 60.0237 39.4279 60.3995 39.5532 60.602V60.6132C39.6379 60.7568 39.7299 60.8967 39.8221 61.0331L39.8773 61.0883L39.9841 60.5689C40.0393 60.208 40.0836 59.8691 40.1131 59.5448L40.1978 58.6607L40.242 57.9793C40.2641 57.7473 40.2751 57.5078 40.2751 57.2574C40.2899 57.0253 40.2973 56.7933 40.2973 56.5538C40.2973 56.1081 40.3194 55.7213 40.3598 55.3898L40.3708 55.3013C40.5587 54.6419 40.8572 54.3104 41.2696 54.3104C41.6417 54.3104 41.8811 54.6567 41.9806 55.3455V55.3898C42.0027 55.526 42.0139 55.6622 42.0139 55.7986L41.9917 56.3292C41.9917 56.5353 41.9843 56.7416 41.9696 56.9443L41.9586 57.3089C41.9364 57.6994 41.9254 57.9462 41.9254 58.053C41.8811 58.845 41.789 59.7622 41.6454 60.8084C41.6381 60.8194 41.6344 60.8378 41.6344 60.8598C41.5422 61.4788 41.3728 61.9835 41.126 62.3701C40.8534 62.7681 40.4962 62.967 40.0467 62.967C39.5863 62.967 39.1406 62.7386 38.7096 62.2855C38.4738 62.035 38.2381 61.7035 38.0097 61.2909L37.9434 61.173C37.8513 61.0147 37.7593 60.8526 37.6744 60.6868L37.6414 60.6132C37.4609 60.2521 37.3541 60.0201 37.3173 59.9096C37.3099 59.9242 37.3061 59.9426 37.3061 59.9649L37.144 60.7088L37.0372 61.2283C36.8568 62.0829 36.5583 62.6759 36.1421 63.0074L36.109 63.0295C35.9727 63.1216 35.8769 63.1732 35.8217 63.1769C35.7701 63.1805 35.7221 63.1843 35.678 63.1917L35.398 63.2027Z" fill="#303030"/>
<path fill-rule="evenodd" clip-rule="evenodd" d="M44.1158 59.1299C44.1307 59.1299 44.1417 59.1261 44.1491 59.1225C44.219 59.1225 44.3738 59.0782 44.6094 58.9899C45.1951 58.7467 45.7992 58.3305 46.4255 57.741C46.6835 57.4722 46.8896 57.2217 47.0406 56.9823C47.269 56.566 47.387 56.1793 47.3943 55.8183C47.3943 55.601 47.3316 55.3763 47.2027 55.1405C47.1366 55.0374 47.0629 54.9783 46.9744 54.9563H47.0186H46.8123H46.9634C46.9009 54.9342 46.8085 54.9232 46.6945 54.9232C46.5729 54.9378 46.5103 54.949 46.5103 54.9563H46.8123C46.5545 54.9563 46.2487 55.0668 45.8951 55.2878C45.2615 55.7226 44.7973 56.2898 44.5027 56.9933C44.2449 57.6048 44.1158 58.3193 44.1158 59.1299ZM45.3365 62.9536C44.9203 62.9536 44.5003 62.8614 44.0841 62.6809C43.631 62.482 43.2517 62.1764 42.9496 61.7637C42.467 61.0675 42.2275 60.1761 42.2275 59.0895C42.2275 58.4337 42.3086 57.7928 42.467 57.1666C42.6217 56.5846 42.828 56.0762 43.0747 55.6453C43.3215 55.2143 43.631 54.8165 44.0031 54.4518C44.3751 54.0908 44.7655 53.7998 45.1782 53.5861C45.5944 53.3689 45.9996 53.2362 46.4047 53.1846H47.0089C47.2041 53.192 47.3956 53.2251 47.5909 53.284C48.3827 53.5788 48.8913 54.1239 49.1123 54.9233C49.1859 55.1664 49.219 55.439 49.219 55.7337C49.219 56.2274 49.1123 56.7061 48.8987 57.1666C48.7477 57.5202 48.5119 57.8887 48.1951 58.2681C48.1324 58.3674 47.9815 58.5295 47.742 58.7542C46.9573 59.4357 46.18 59.9109 45.4103 60.1798C45.0234 60.3087 44.6661 60.3787 44.342 60.3934C44.3492 60.4007 44.3566 60.4155 44.3641 60.4377C44.3715 60.4597 44.3787 60.4854 44.3861 60.5113C44.445 60.6366 44.5187 60.7508 44.6108 60.8575C44.8577 61.1302 45.1192 61.2702 45.3992 61.2702C45.6754 61.2702 45.9406 61.1927 46.1985 61.0418C46.3495 60.9643 46.4931 60.8798 46.6295 60.7949C46.8542 60.6513 46.9832 60.5593 47.0199 60.5223C47.2335 60.3308 47.4583 60.1723 47.6866 60.0471L47.764 60.0066C47.8782 59.9845 47.9887 59.9735 48.0991 59.9735C48.2501 59.9735 48.4123 60.0029 48.5892 60.0656C48.7659 60.1283 48.8728 60.3234 48.9097 60.6549C48.8654 60.8317 48.7917 61.0014 48.6849 61.1596C48.5818 61.318 48.4566 61.4617 48.3128 61.5907C47.646 62.1947 46.8837 62.6258 46.0254 62.8762C45.797 62.9277 45.5649 62.9536 45.3365 62.9536Z" fill="#303030"/>
<path fill-rule="evenodd" clip-rule="evenodd" d="M50.4716 63.4367C50.2911 63.4367 50.0958 63.3702 49.8859 63.2376C49.6722 63.1051 49.547 62.8509 49.514 62.4789C49.4622 62.0036 49.4365 61.2965 49.4365 60.3609L49.4475 60.125C49.4549 59.5799 49.4771 59.0125 49.514 58.4306C49.514 58.3016 49.5176 58.169 49.5322 58.0328C49.5544 57.4471 49.6317 56.8503 49.7607 56.2389L49.8896 55.7526C49.9817 55.4247 50.1179 55.1375 50.2873 54.9017C50.5563 54.5075 50.9173 54.3086 51.3777 54.3086C51.5104 54.3086 51.643 54.3271 51.7792 54.3639C52.0518 54.4633 52.3096 54.6439 52.5565 54.9017C52.7075 55.0674 52.877 55.2959 53.0611 55.5942C53.2784 55.9147 53.4811 56.272 53.6652 56.6624L53.7978 56.9313C53.8531 57.0455 53.9083 57.1633 53.9598 57.2849C54.1109 57.6238 54.2032 57.8523 54.2399 57.9665C54.3835 58.2906 54.4794 58.5264 54.5309 58.6774L55.0465 59.9298L55.0908 59.3037C55.1129 58.961 55.124 58.6553 55.124 58.3864L55.135 57.9996L55.124 57.7933C55.124 57.5134 55.1204 57.3256 55.1129 57.2334C55.1129 56.8244 55.124 56.4783 55.1461 56.1983V55.7342L55.135 55.5832C55.135 55.48 55.1461 55.3806 55.1681 55.2811C55.2971 54.8759 55.507 54.677 55.8054 54.677C56.0412 54.677 56.2401 54.8464 56.3984 55.1927C56.4464 55.329 56.4832 55.48 56.5053 55.6458C56.5275 55.8115 56.5679 56.0326 56.6232 56.3052C56.7264 56.7803 56.7889 57.2518 56.8185 57.7197L56.8848 58.3238C56.9547 58.832 56.9952 59.3294 57.0026 59.8119C57.0026 59.9555 56.9842 60.2391 56.9474 60.6666L56.9363 60.696C56.8848 61.3296 56.7264 61.8379 56.45 62.2173C56.1627 62.593 55.7943 62.7809 55.3413 62.7809C54.8919 62.7809 54.5051 62.5967 54.1736 62.2283C53.9526 62.022 53.7241 61.6943 53.4957 61.2486C53.2416 60.7439 52.958 60.0809 52.6413 59.263C52.6264 59.2116 52.608 59.1563 52.5822 59.0936C52.5565 59.0347 52.4019 58.6295 52.1144 57.8816C52.1144 57.867 52.1107 57.8559 52.1034 57.8485C51.9781 57.4876 51.8345 57.1486 51.6686 56.8318L51.6392 56.7693L51.4661 58.1506C51.4661 58.1948 51.4625 58.2317 51.4551 58.2686C51.4256 58.6369 51.4036 58.9905 51.3887 59.3367C51.3887 59.4363 51.374 59.7898 51.3483 60.3939C51.3261 61.1233 51.3076 61.6095 51.293 61.8638L51.2488 62.5304C51.2414 62.641 51.2304 62.7441 51.2155 62.8436C51.1236 63.2414 50.8768 63.4367 50.4716 63.4367Z" fill="#303030"/>
<path fill-rule="evenodd" clip-rule="evenodd" d="M61.522 64.4105C60.3838 64.4105 59.4077 63.8395 58.5862 62.6939C58.2473 62.2188 57.9563 61.67 57.7131 61.0437C57.6983 60.9774 57.6799 60.9185 57.6579 60.8594C57.4626 60.2996 57.3337 59.7249 57.2711 59.132L57.249 58.8003C57.2268 58.5756 57.2158 58.3584 57.2158 58.1411L57.2268 57.9238C57.2564 56.918 57.4073 56.0414 57.6799 55.2899C57.8532 54.7226 58.1073 54.1994 58.4462 53.7169C58.7114 53.3119 59.065 52.9323 59.5034 52.5713C59.8496 52.2915 60.2365 52.063 60.671 51.8825C60.9732 51.761 61.3562 51.68 61.8239 51.6431C62.4797 51.6431 62.9955 51.7942 63.3785 52.0962C63.5885 52.2473 63.7874 52.4646 63.9826 52.7446C64.1558 53.0245 64.281 53.2602 64.3621 53.4444C64.4541 53.6618 64.5021 53.8681 64.5021 54.0632C64.5021 54.1553 64.4909 54.2365 64.4689 54.31V54.3212C64.3805 54.5496 64.1999 54.6675 63.9163 54.6675C63.7027 54.6675 63.489 54.6084 63.2753 54.4943C63.0617 54.3763 62.9033 54.2144 62.7965 53.9969C62.5165 53.5292 62.2477 53.2971 61.9972 53.2971C61.9677 53.2971 61.9088 53.3008 61.8203 53.3119C61.7282 53.3229 61.5589 53.4113 61.3047 53.5771C61.1683 53.6544 61.0395 53.7429 60.9179 53.8349C60.5642 54.1295 60.2365 54.579 59.9343 55.1831C59.8496 55.4004 59.7686 55.6141 59.6987 55.8314C59.4812 56.5349 59.3744 57.3048 59.3744 58.1411C59.3744 58.5942 59.4481 59.1172 59.5992 59.7065C59.7097 60.1523 59.8974 60.6054 60.1628 61.0657C60.7006 61.9719 61.231 62.425 61.7468 62.425C62.023 62.425 62.255 62.3476 62.4502 62.1966C62.6786 62.0272 62.8332 61.8983 62.9144 61.821L62.9807 61.7657C63.1317 61.6294 63.3012 61.4268 63.4964 61.1506C63.5958 61.0216 63.6548 60.9479 63.6659 60.9295C63.6733 60.9111 63.6917 60.8963 63.7137 60.8817C63.8574 60.7454 64.001 60.6754 64.1448 60.6754C64.1816 60.6754 64.2515 60.6902 64.3545 60.7158C64.4579 60.7416 64.5426 60.8706 64.6089 61.11L64.6199 61.1947L64.6089 61.2279C64.6089 61.3936 64.5905 61.5594 64.5536 61.7251L64.5094 61.8873C64.41 62.3404 64.2331 62.7492 63.9826 63.1138C63.6879 63.5339 63.3122 63.8579 62.8591 64.0864C62.4576 64.3036 62.012 64.4105 61.522 64.4105Z" fill="#303030"/>
<path fill-rule="evenodd" clip-rule="evenodd" d="M67.9419 61.1929C67.9786 61.1929 68.056 61.1671 68.1777 61.1194C68.2992 61.0677 68.4724 60.8394 68.697 60.4378C68.767 60.3236 68.8296 60.1984 68.8811 60.0694V60.0473C69.0101 59.7121 69.0912 59.4138 69.1281 59.1523L69.1391 59.1228C69.1612 58.9974 69.1722 58.8796 69.1722 58.7654C69.1722 58.5407 69.1576 58.3493 69.1281 58.1834C69.0838 57.8888 68.9881 57.5903 68.8406 57.292C68.6933 56.9936 68.5424 56.7615 68.3838 56.5958C68.0671 56.3232 67.8203 56.187 67.6398 56.187C67.4446 56.187 67.2715 56.3637 67.1167 56.7136C66.962 57.0673 66.8551 57.4431 66.7964 57.8481C66.7558 58.0987 66.7337 58.3566 66.7337 58.6144C66.7337 59.3181 66.9067 59.9957 67.2605 60.6441C67.5257 61.0088 67.754 61.1929 67.9419 61.1929ZM67.9833 62.9941C67.4088 62.9941 66.8747 62.8136 66.3773 62.4563C66.0016 62.169 65.7107 61.8007 65.5044 61.3549C65.0587 60.5114 64.834 59.5868 64.834 58.5813C64.834 57.9918 64.9151 57.4061 65.0807 56.824C65.0954 56.7946 65.1066 56.7615 65.114 56.7245C65.1727 56.5148 65.2428 56.3121 65.3312 56.1094C65.8984 55.0302 66.6831 54.4924 67.6813 54.4924C68.0939 54.4924 68.4955 54.5881 68.8932 54.7834C69.2873 54.9786 69.6338 55.2623 69.9284 55.6343C70.4589 56.3121 70.7977 57.093 70.9414 57.977C70.9782 58.2053 70.9967 58.4743 70.9967 58.7764C70.9967 58.9496 70.9856 59.1263 70.9636 59.3032C70.9193 59.7709 70.831 60.1983 70.6946 60.5887C70.5141 61.0418 70.3336 61.4101 70.153 61.6901C69.932 62.0364 69.6558 62.3311 69.3243 62.5741C68.8932 62.8541 68.4438 62.9941 67.9833 62.9941Z" fill="#303030"/>
<path fill-rule="evenodd" clip-rule="evenodd" d="M74.3191 61.1929C74.3559 61.1929 74.4333 61.1671 74.5549 61.1194C74.6765 61.0677 74.8497 60.8394 75.0744 60.4378C75.1443 60.3236 75.207 60.1984 75.2585 60.0694V60.0473C75.3873 59.7121 75.4684 59.4138 75.5052 59.1523L75.5163 59.1228C75.5385 58.9974 75.5495 58.8796 75.5495 58.7654C75.5495 58.5407 75.5347 58.3493 75.5052 58.1834C75.4612 57.8888 75.3652 57.5903 75.218 57.292C75.0706 56.9936 74.9196 56.7615 74.7612 56.5958C74.4443 56.3232 74.1975 56.187 74.0171 56.187C73.8219 56.187 73.6487 56.3637 73.4941 56.7136C73.3392 57.0673 73.2325 57.4431 73.1736 57.8481C73.1331 58.0987 73.1111 58.3566 73.1111 58.6144C73.1111 59.3181 73.2841 59.9957 73.6377 60.6441C73.9028 61.0088 74.1312 61.1929 74.3191 61.1929ZM74.3585 62.9941C73.7839 62.9941 73.2499 62.8136 72.7523 62.4563C72.3766 62.169 72.0857 61.8007 71.8795 61.3549C71.4337 60.5114 71.209 59.5868 71.209 58.5813C71.209 57.9918 71.2901 57.4061 71.4558 56.824C71.4706 56.7946 71.4816 56.7615 71.489 56.7245C71.5479 56.5148 71.6179 56.3121 71.7062 56.1094C72.2736 55.0302 73.0582 54.4924 74.0565 54.4924C74.4689 54.4924 74.8705 54.5881 75.2683 54.7834C75.6625 54.9786 76.0088 55.2623 76.3034 55.6343C76.8339 56.3121 77.1728 57.093 77.3164 57.977C77.3532 58.2053 77.3717 58.4743 77.3717 58.7764C77.3717 58.9496 77.3606 59.1263 77.3386 59.3032C77.2944 59.7709 77.206 60.1983 77.0696 60.5887C76.8891 61.0418 76.7087 61.4101 76.5282 61.6901C76.3071 62.0364 76.0308 62.3311 75.6993 62.5741C75.2683 62.8541 74.8188 62.9941 74.3585 62.9941Z" fill="#303030"/>
<path fill-rule="evenodd" clip-rule="evenodd" d="M79.2924 64.1734C79.0898 64.1734 78.8908 64.0959 78.6919 63.9413C78.4968 63.7865 78.3935 63.5361 78.3862 63.1898C78.3494 62.9392 78.3051 62.5342 78.2498 61.9742C78.1983 61.4179 78.1615 60.9538 78.1467 60.5781L78.1173 60.1913L78.0399 59.0125C77.981 58.2427 77.9441 57.6939 77.922 57.3624C77.9 57.0307 77.8889 56.7509 77.8889 56.5225C77.8372 55.8594 77.8042 55.2959 77.7821 54.8354C77.7378 54.0802 77.712 53.5461 77.7046 53.2294L77.6642 52.5073C77.6421 51.9659 77.6199 51.5717 77.5979 51.3175L77.5869 50.9087C77.5869 50.8238 77.5942 50.7318 77.6089 50.6397L77.6199 50.6176C77.6273 50.5662 77.6457 50.5219 77.6716 50.4776C78.0031 50.2197 78.3051 50.0873 78.5814 50.0873C78.9609 50.0873 79.2003 50.4482 79.3034 51.1665C79.3475 51.4428 79.3844 51.789 79.4212 52.2163C79.4506 52.4594 79.4691 52.7026 79.4765 52.9494L79.4987 53.1409C79.5097 53.5535 79.5281 53.8666 79.5502 54.0877C79.5722 54.3048 79.5906 54.5259 79.6055 54.7507C79.6275 55.1595 79.646 55.4395 79.6607 55.5832L79.7122 56.3603C79.7122 56.4893 79.7197 56.6145 79.7343 56.7361V56.7473L80.2831 56.2609L80.6294 55.9367C80.8026 55.7784 80.9094 55.6715 80.9535 55.6126C81.0825 55.4836 81.1784 55.3842 81.2337 55.3105C81.3146 55.2038 81.3994 55.108 81.4951 55.0195C81.672 54.9128 81.8598 54.8575 82.055 54.8575C82.5082 54.8575 82.8213 55.038 82.9944 55.3989C83.0312 55.469 83.0459 55.5463 83.0459 55.6236C83.0459 55.8337 82.9206 56.062 82.6703 56.3162C82.5118 56.5298 82.3055 56.7583 82.055 56.994V57.0051L81.5909 57.4397L81.311 57.6645L81.322 57.6865C81.4657 57.8302 81.6277 58.0623 81.8082 58.3864C81.8082 58.4011 81.9041 58.6037 82.0992 58.9905C82.3276 59.5393 82.4934 59.9224 82.5928 60.147C82.6959 60.3681 82.8175 60.6223 82.9611 60.9023C83.1786 61.2633 83.4732 61.499 83.8452 61.6132C83.9889 61.6574 84.0994 61.7127 84.1768 61.7827C84.2504 61.849 84.2873 61.9595 84.2873 62.1105V62.1952C84.1657 62.3904 84.0001 62.5414 83.7937 62.652L83.7496 62.6593C83.6832 62.7036 83.4695 62.7257 83.1011 62.7257C82.7475 62.6888 82.3977 62.4973 82.044 62.1436C81.8635 61.9263 81.6941 61.7017 81.5356 61.4622C81.4582 61.3259 81.3773 61.1896 81.3 61.0533C81.2189 60.917 81.1451 60.7733 81.0715 60.6223L80.6516 59.7161L80.4269 59.1857C80.3384 58.9574 80.2501 58.7731 80.1543 58.6369C80.1395 58.6075 80.1211 58.5817 80.1028 58.5594L80.0586 58.5817C80.0071 58.6331 79.9443 58.67 79.8633 58.6996C79.8633 58.8653 79.8707 59.0347 79.8853 59.2042C79.9001 59.3698 79.9149 59.5467 79.9296 59.7272L80.0143 61.2043C80.0363 61.4289 80.0475 61.65 80.0475 61.8748C80.0696 62.0516 80.0806 62.2836 80.0806 62.5636C80.0954 62.7367 80.1028 62.9099 80.1028 63.083C80.0954 63.2635 80.0769 63.4366 80.0475 63.6098C79.9037 63.9854 79.6533 64.1734 79.2924 64.1734Z" fill="#303030"/>
<path fill-rule="evenodd" clip-rule="evenodd" d="M22.9473 3.43808V3.76416C23.8145 4.66063 29.5586 15.2727 30.6788 16.5285C32.4833 18.5514 35.1386 18.3497 37.1215 20.3375C38.1858 21.4048 40.4295 24.7614 41.2668 26.3544C40.7078 27.3453 39.7883 28.189 39.0684 29.0913C38.7945 29.4347 38.7979 29.4813 38.507 29.789L29.4368 39.9533C28.4105 41.3308 25.5885 44.8398 27.2184 47.2952C28.7393 49.5862 31.8048 47.3714 33.3862 45.3536C36.0364 41.9724 41.8532 29.9723 42.8175 28.9572C45.9419 33.2153 50.2119 45.2751 53.662 47.6249C55.7469 49.0448 58.9138 49.1826 58.4816 45.7226C57.9443 41.4216 52.6793 36.4521 49.8386 33.1449C49.4784 32.7839 49.5082 32.7701 49.1886 32.3234C48.7725 31.7426 48.4045 31.4734 47.9216 30.8737L45.4559 27.8989C44.933 27.2546 44.7108 27.1411 44.2924 26.3544L47.9117 20.7695C49.5358 18.59 51.1648 18.5862 54.3736 17.8364C57.0204 17.218 58.7821 15.532 59.926 13.9614C60.5547 13.0981 61.1084 12.0967 61.5348 10.9663C62.3766 8.73457 62.9369 5.22698 61.8503 2.9482C60.5355 0.191523 58.0447 0.0685305 55.3417 0.99996C52.2823 2.05396 49.8223 4.28984 48.4317 6.45802C45.4807 11.0579 47.776 12.6049 47.4458 16.95C47.2973 18.902 46.1994 19.9287 45.3463 21.1472C44.6745 22.1065 43.4742 23.9049 42.5553 24.568C42.2422 23.7209 41.1137 22.4543 40.4989 21.5642C35.0132 13.6235 41.9879 16.5153 34.5979 8.01569L30.2765 2.7135C29.7653 2.1023 29.6008 1.91941 29.1271 1.35779C28.7196 0.87432 28.6163 0.600756 28.0961 0H27.838C28.1203 1.02252 30.2246 3.89927 30.926 4.97793C31.435 5.76088 33.9034 9.35803 33.889 9.87075C33.1898 9.99221 33.3515 9.73773 32.8629 9.12862L28.2188 3.3098C27.9946 3.03205 27.9905 2.99681 27.759 2.72074L26.8263 1.54862C26.482 1.20903 26.7801 1.38718 26.2204 1.13995C27.1863 3.33403 32.1377 10.1883 32.0945 11.2277C31.4012 11.1531 31.5218 11.0668 31.0089 10.3562L24.5556 2.26025C24.8707 3.34629 26.7774 6.24226 27.493 7.36605C28.0465 8.23507 30.2481 11.6793 30.3043 12.5127C29.516 12.2998 29.7713 12.2261 29.2376 11.4933C28.9334 11.0756 28.6662 10.7557 28.3304 10.3116C27.2708 8.91035 23.7877 3.88214 22.9473 3.43808Z" fill="#DBD9D9"/>
<path fill-rule="evenodd" clip-rule="evenodd" d="M34.1119 41.0004C34.6312 41.8782 35.7035 43.3719 36.9962 43.5091L36.3186 42.615C36.0658 42.2866 35.9366 42.1048 35.7094 41.7141C35.3765 41.1418 35.0205 40.3516 34.7643 39.5567C34.245 37.9463 34.0109 34.6953 34.017 32.9251C34.0183 32.5989 33.9899 32.3615 34.1326 32.1795C34.2559 32.6494 34.3469 33.503 34.4466 34.0175C34.6845 35.245 35.4151 40.0415 36.2087 40.4072C36.0699 39.2938 35.6421 38.2788 35.6595 36.9948C36.31 34.971 36.7209 35.4342 38.4494 37.223C39.4716 38.2808 40.6235 39.6292 42.4895 39.6232C44.1827 39.6177 45.6506 38.2057 46.5113 37.1996C47.4702 36.0783 48.4927 36.9072 49.2797 35.264C49.3107 36.4961 48.8723 38.8122 48.7293 39.9476C49.1188 39.7205 49.3091 39.2366 49.5499 38.6254C50.2301 36.9003 50.763 32.325 50.8452 32.1706C51.3523 33.5265 50.3501 39.3611 49.2117 41.2744C48.688 42.1544 48.0135 42.7915 47.9694 43.0389C49.6877 43.0053 51.3083 39.873 51.9238 38.1281C53.3642 34.0453 54.1618 24.6814 54.5855 22.6521L51.9935 25.2107C51.8427 25.7422 51.8213 28.457 51.4444 28.7472C50.9711 29.112 50.4043 28.956 49.9821 28.5443C49.9137 28.4779 49.8483 28.404 49.7859 28.3241C49.6436 30.3642 49.2159 32.349 48.4001 34.2337C47.3263 36.6395 44.8515 38.3065 42.5665 38.3904C39.8783 38.4891 36.7403 35.5156 35.9433 32.5783C35.765 31.9214 35.6184 31.2227 35.5028 30.4966C35.246 30.5326 34.9986 30.3234 34.8022 30.091C34.6434 29.9031 34.492 29.6944 34.3501 29.4848C34.2172 29.2888 34.0863 29.0817 33.9722 28.8665C33.7319 28.4124 33.805 22.2949 33.6387 21.7676L32.1604 24.6865C31.9909 25.2066 31.8607 25.7951 31.7669 26.4336C31.1109 30.9048 32.2404 37.8363 34.1119 41.0004Z" fill="#0A0B09"/>
<path fill-rule="evenodd" clip-rule="evenodd" d="M48.013 25.1168C49.3873 25.0861 50.8059 27.0599 49.0687 27.5547L49.2225 27.0665C48.9601 26.8963 48.8353 26.7769 48.5869 26.6818C48.6343 26.8178 48.66 26.9644 48.66 27.1168C48.66 27.8479 48.0674 28.4406 47.3362 28.4406C46.605 28.4406 46.0123 27.8479 46.0123 27.1168C46.0123 26.9856 46.0315 26.8587 46.0668 26.7392C45.5596 26.8823 45.5425 27.0679 45.4861 27.1723L45.3986 27.3816C45.3938 27.3669 45.3851 27.4317 45.3699 27.4522C45.0295 27.2795 44.9176 27.201 44.7067 26.946C44.9985 26.4813 45.9354 26.0036 46.6025 25.813C47.8437 25.4578 48.1253 25.7893 49.1069 25.9391C48.1756 25.0961 48.8011 25.6675 48.013 25.1168ZM35.8369 27.5616C34.0692 26.8505 35.5899 25.1776 36.8844 25.1062C36.4931 25.4576 36.0989 25.5108 35.8306 25.948C38.1513 25.3783 38.6395 25.7975 40.2162 26.8296C40.0107 27.261 39.9205 27.264 39.5034 27.4586L39.4651 27.3136C39.3793 27.0573 39.4608 26.9352 38.8453 26.7619C38.8946 26.9003 38.9215 27.0499 38.9215 27.2054C38.9215 27.9365 38.3288 28.5293 37.5974 28.5293C36.8663 28.5293 36.2734 27.9365 36.2734 27.2054C36.2734 27.0171 36.313 26.8379 36.3839 26.6758C36.1289 26.7495 36.0277 26.8327 35.715 27.0112L35.8369 27.5616ZM41.4852 35.5041C40.5717 35.4642 39.1852 34.7106 39.1011 33.9537C39.8999 34.2043 38.9477 34.4582 40.7372 34.1631C42.2829 33.9079 41.9426 34.3857 42.4749 34.3634C42.9946 34.3416 42.6733 33.8948 44.3161 34.1863C45.797 34.4492 44.9873 34.1788 45.8292 33.9608C45.7269 34.639 44.3735 35.4977 43.4061 35.4905L44.1821 35.0303C43.425 34.9009 43.1668 35.285 42.3848 35.2635C41.66 35.2435 41.4499 34.863 40.7174 35.0679L41.4852 35.5041ZM44.872 24.6663C44.9165 23.2463 45.2148 23.5627 47.405 23.1319C48.5179 22.9131 50.2359 22.7267 50.681 23.7072C47.651 22.875 46.9777 24.788 44.872 24.6663ZM34.2351 23.5562C35.1706 22.5826 36.9613 23.0273 38.2904 23.2917C38.8019 23.3934 39.2097 23.3872 39.7041 23.4704C39.855 23.8362 40.0379 24.1742 40.0468 24.6862C38.8314 24.6662 38.2128 24.1594 37.1801 23.7992C34.8459 22.9852 34.6547 23.88 34.2351 23.5562ZM44.1273 36.7443C43.639 38.294 41.1793 38.2425 40.7954 36.7121C41.3807 36.8039 41.8384 36.9418 42.4876 36.939C43.0803 36.9365 43.6597 36.7295 44.1273 36.7443ZM41.091 32.0328C41.5066 31.5973 41.9902 32.686 42.6974 32.4439C43.0082 32.3373 43.2188 32.0351 43.44 31.9699C43.8839 31.8392 43.9932 32.1606 43.7945 32.5297C43.5889 32.9124 42.8215 33.4004 42.1056 33.224C41.782 33.1442 40.688 32.455 41.091 32.0328ZM51.5428 22.1773C50.9174 19.0209 49.4693 16.801 46.9153 15.7647C44.3574 14.7266 39.9997 14.7366 37.561 15.966C35.1847 17.1637 33.8056 19.3478 33.2751 22.73C32.7568 26.0347 32.9855 29.7041 33.9965 32.5771C35.0303 35.5144 39.1002 40.6318 42.5867 40.533C45.5503 40.449 48.7602 36.6384 50.1527 34.2325C52.2523 30.4919 52.371 26.3578 51.5428 22.1773Z" fill="#F5CDAD"/>
<path fill-rule="evenodd" clip-rule="evenodd" d="M30.2571 18.3534C30.8083 17.3863 30.5915 16.9401 31.9184 15.0939C32.3708 14.4643 33.7821 12.9542 34.539 12.7016C34.298 13.1538 33.2195 13.9787 32.1746 16.1441C31.567 17.4029 30.9208 19.2252 31.0267 20.9001L31.1244 20.7804C31.2408 20.5834 31.1384 20.8061 31.2316 20.5738C31.6908 19.4326 31.6069 19.1787 32.6037 17.8677C33.1866 17.1007 34.0881 16.2991 35.0456 15.7326C39.7639 12.9407 49.9277 12.9509 53.1488 19.181C53.3973 19.6617 53.5834 20.4826 53.8218 20.8825C54.02 20.5809 53.8948 19.9294 53.8438 19.5865C53.6699 18.418 53.246 17.209 52.7604 16.1809C51.8453 14.2427 50.5616 13.0866 50.3683 12.6765C51.7631 13.3164 53.1566 15.1376 53.9178 16.6121C54.1544 17.0709 54.4921 18.0898 54.6918 18.3695C54.8041 15.8873 52.6632 12.7279 50.7914 11.2904C44.7344 6.63969 35.1572 7.99191 31.5133 14.2889C31.1931 14.8427 29.9107 17.6284 30.2571 18.3534Z" fill="#FFFFFE"/>
<path fill-rule="evenodd" clip-rule="evenodd" d="M48.0133 25.1194C48.8014 25.67 48.1759 25.0986 49.1072 25.9416C48.1256 25.7919 47.844 25.4604 46.6028 25.8155C45.9357 26.0061 44.9988 26.4839 44.707 26.9485C44.9179 27.2036 45.0298 27.282 45.3702 27.4547C45.3854 27.4342 45.3941 27.3695 45.3989 27.3841L45.4864 27.1749C45.5428 27.0704 45.5599 26.8849 46.0671 26.7417C46.0318 26.8612 46.0126 26.9881 46.0126 27.1193C46.0126 27.8504 46.6053 28.4431 47.3365 28.4431C48.0677 28.4431 48.6603 27.8504 48.6603 27.1193C48.6603 26.9669 48.6346 26.8204 48.5872 26.6843C48.8356 26.7794 48.9604 26.8988 49.2228 27.069L49.069 27.5572C50.8062 27.0625 49.3876 25.0886 48.0133 25.1194Z" fill="#0A0B09"/>
<path fill-rule="evenodd" clip-rule="evenodd" d="M35.8373 27.5621L35.7154 27.0118C36.0281 26.8332 36.1293 26.75 36.3843 26.6763C36.3134 26.8385 36.2738 27.0176 36.2738 27.2059C36.2738 27.9371 36.8667 28.5299 37.5978 28.5299C38.3292 28.5299 38.9219 27.9371 38.9219 27.2059C38.9219 27.0505 38.895 26.9009 38.8457 26.7624C39.4612 26.9357 39.3797 27.0579 39.4655 27.3141L39.5038 27.4592C39.9209 27.2646 40.0111 27.2615 40.2166 26.8301C38.64 25.798 38.1517 25.3789 35.831 25.9486C36.0993 25.5113 36.4935 25.4581 36.8848 25.1067C35.5903 25.1781 34.0696 26.851 35.8373 27.5621Z" fill="#0A0B09"/>
<path fill-rule="evenodd" clip-rule="evenodd" d="M41.4856 35.5067L40.7179 35.0705C41.4504 34.8656 41.6605 35.2461 42.3853 35.266C43.1673 35.2876 43.4255 34.9035 44.1826 35.0329L43.4066 35.4931C44.374 35.5003 45.7274 34.6416 45.8297 33.9634C44.9878 34.1814 45.7975 34.4518 44.3166 34.1889C42.6738 33.8974 42.9951 34.3442 42.4754 34.3659C41.9431 34.3882 42.2834 33.9105 40.7377 34.1657C38.9482 34.4608 39.9004 34.2069 39.1016 33.9563C39.1857 34.7132 40.5722 35.4668 41.4856 35.5067Z" fill="#0A0B09"/>
<path fill-rule="evenodd" clip-rule="evenodd" d="M44.8721 24.6689C46.9777 24.7906 47.651 22.8776 50.681 23.7097C50.236 22.7293 48.518 22.9156 47.4051 23.1344C45.2149 23.5653 44.9165 23.2488 44.8721 24.6689Z" fill="#0A0B09"/>
<path fill-rule="evenodd" clip-rule="evenodd" d="M34.2354 23.5567C34.6549 23.8805 34.8461 22.9857 37.1804 23.7997C38.213 24.1599 38.8316 24.6667 40.0471 24.6867C40.0382 24.1747 39.8553 23.8366 39.7043 23.4709C39.2099 23.3877 38.8021 23.3938 38.2906 23.2921C36.9615 23.0278 35.1708 22.583 34.2354 23.5567Z" fill="#0A0B09"/>
<path fill-rule="evenodd" clip-rule="evenodd" d="M44.1278 36.7448C43.6602 36.7301 43.0808 36.937 42.4881 36.9395C41.8389 36.9423 41.3812 36.8044 40.7959 36.7126C41.1798 38.243 43.6395 38.2946 44.1278 36.7448Z" fill="#0A0B09"/>
<path fill-rule="evenodd" clip-rule="evenodd" d="M41.0909 32.0354C40.6879 32.4576 41.7819 33.1468 42.1055 33.2266C42.8214 33.403 43.5888 32.915 43.7944 32.5323C43.9931 32.1631 43.8838 31.8418 43.4399 31.9724C43.2187 32.0376 43.0081 32.3399 42.6973 32.4464C41.9901 32.6885 41.5065 31.5998 41.0909 32.0354Z" fill="#0A0B09"/>
<path fill-rule="evenodd" clip-rule="evenodd" d="M30.3626 17.5815C30.2938 17.0433 30.7254 15.047 31.569 14.0036C32.4122 12.96 32.2416 12.2315 32.6673 11.3268C33.0931 10.422 33.5991 9.44198 34.1235 8.72562C34.648 8.00925 35.1909 7.55698 35.7094 7.22394C36.2278 6.89103 36.7213 6.11798 37.178 6.01128C37.6348 5.90445 38.0543 5.90445 38.5663 5.82909C39.0784 5.75387 39.6832 5.60288 40.3682 5.42696C41.0532 5.25118 41.8183 5.04991 42.4724 5.05617C43.1265 5.06244 43.6695 5.27611 44.4716 5.46457C45.2738 5.65303 46.3352 5.81655 47.1743 6.0741C48.0135 6.33151 48.6304 6.68363 49.4265 6.98519C50.2225 7.28662 51.1975 7.53817 51.8392 7.77678C52.4809 8.01552 52.7896 8.24186 53.0548 8.64399C53.3202 9.04598 53.5426 10.1834 53.5795 10.7425C53.6163 11.3016 53.4685 11.8419 53.4005 12.2818C53.2552 13.2224 54.4222 14.3046 54.5034 14.8013C54.5884 15.3224 54.3978 16.052 54.4641 16.3343C54.5304 16.6168 54.8452 18.386 54.8503 18.4796C54.516 17.9581 53.26 15.6823 52.8143 15.1595C51.9998 14.2044 51.0125 13.2925 49.976 12.526C48.9391 11.7593 47.853 11.2316 46.5327 10.8545C45.2121 10.4777 43.6571 10.2514 42.2379 10.2514C40.8186 10.2514 39.5352 10.4776 38.3135 10.7666C37.0917 11.0555 35.9317 11.3143 34.9072 12.0558C33.8829 12.797 32.8757 14.0775 32.2663 14.8454C31.6567 15.6132 30.6887 17.1264 30.3626 17.5815Z" fill="black"/>
<path fill-rule="evenodd" clip-rule="evenodd" d="M33.5568 14.1283C33.6122 14.6183 33.6738 15.4728 33.8774 15.8248C34.0811 16.1765 34.4266 16.0257 34.8401 15.7493C35.2536 15.4728 35.7349 15.0709 36.0619 14.7818C36.3891 14.4927 36.5617 14.3167 36.5741 14.141C36.5862 13.9649 36.4384 13.789 36.3456 13.4686C36.2532 13.1481 36.2161 12.6832 36.2778 12.325C36.3394 11.9669 36.4998 11.7156 36.4998 11.5523C36.4998 11.3889 36.3394 11.3135 35.9754 11.4705C35.6114 11.6275 35.0437 12.0172 34.5808 12.3753C34.118 12.7334 33.7601 13.0601 33.606 13.2863C33.4518 13.5125 33.5011 13.6383 33.5568 14.1283ZM33.28 29.7014C33.3241 29.9547 32.4753 28.998 32.0817 28.4244C31.6878 27.8508 31.3423 27.0717 31.0462 26.1668C30.7499 25.2621 30.5031 24.2317 30.3426 23.3269C30.1822 22.4222 30.1081 21.6431 30.0713 20.8766C30.0341 20.1098 30.0341 19.356 30.0958 18.7402C30.1575 18.1245 30.2808 17.6471 30.6265 17.0565C30.9721 16.4657 31.5397 15.762 32.2679 14.8448C32.996 13.9273 33.8845 12.7964 34.9088 12.0551C35.9333 11.3137 37.0933 10.9619 38.3152 10.6728C39.5369 10.3838 40.8203 10.1576 42.2395 10.1576C43.6587 10.1576 45.2139 10.3838 46.5343 10.7607C47.8548 11.1376 48.9407 11.6654 49.9776 12.4322C51.0142 13.1986 52.0015 14.2038 52.8159 15.1589C53.6303 16.1139 54.2723 17.0187 54.6917 18.049C55.1115 19.0795 55.3089 20.2357 55.3459 21.3164C55.4056 23.0604 54.0103 28.1939 51.9139 28.6834C51.8513 28.6979 52.0115 27.3217 51.6751 25.9463C51.4588 25.063 51.7799 24.0177 51.6541 23.0821C51.5315 22.1703 51.0154 21.2308 50.4714 20.4434C49.9276 19.6559 49.3196 19.0469 48.6425 18.5432C47.9654 18.0396 47.2195 17.6415 46.5493 17.3778C45.8791 17.114 45.2842 16.9849 44.6464 16.9181C44.0088 16.8514 43.3278 16.847 42.5536 16.8893C41.7794 16.9318 40.9122 17.0209 40.1231 17.1488C39.3341 17.2768 38.6231 17.4438 37.9038 17.7192C37.1847 17.9947 36.4572 18.3785 35.8763 18.8097C35.2955 19.2409 34.8616 19.7194 34.5451 20.1231C34.2288 20.5266 34.0302 20.8552 33.7903 21.4049C33.5505 21.9546 33.5487 22.7255 33.3681 23.3256C33.0795 24.2864 33.0015 27.8472 33.1538 28.7938C33.2224 29.2208 33.2357 29.4481 33.28 29.7014Z" fill="black"/>
<path fill-rule="evenodd" clip-rule="evenodd" d="M33.5569 14.1269C33.6124 14.6169 33.6741 15.4715 33.8777 15.8234C34.0813 16.1751 34.4269 16.0244 34.8403 15.7479C35.2537 15.4715 35.7351 15.0695 36.0622 14.7803C36.3892 14.4913 36.562 14.3153 36.5744 14.1394C36.5867 13.9635 36.4385 13.7876 36.3459 13.4672C36.2534 13.1467 36.2164 12.6818 36.2781 12.3236C36.3398 11.9655 36.5002 11.7143 36.5002 11.5509C36.5002 11.3875 36.3398 11.312 35.9757 11.4691C35.6117 11.6262 35.044 12.0158 34.5811 12.3739C34.1184 12.732 33.7604 13.0587 33.6064 13.2849C33.452 13.5112 33.5013 13.6367 33.5569 14.1269Z" fill="#4E4D68"/>
</svg>
