<svg width="492" height="555" viewBox="0 0 492 555" fill="none" xmlns="http://www.w3.org/2000/svg">
<path d="M15.87 29L11.82 23.15H11.58H7.35V29H2.49V8H11.58C13.44 8 15.05 8.31 16.41 8.93C17.79 9.55 18.85 10.43 19.59 11.57C20.33 12.71 20.7 14.06 20.7 15.62C20.7 17.18 20.32 18.53 19.56 19.67C18.82 20.79 17.76 21.65 16.38 22.25L21.09 29H15.87ZM15.78 15.62C15.78 14.44 15.4 13.54 14.64 12.92C13.88 12.28 12.77 11.96 11.31 11.96H7.35V19.28H11.31C12.77 19.28 13.88 18.96 14.64 18.32C15.4 17.68 15.78 16.78 15.78 15.62ZM40.0305 20.99C40.0305 21.05 40.0005 21.47 39.9405 22.25H27.7305C27.9505 23.25 28.4705 24.04 29.2905 24.62C30.1105 25.2 31.1305 25.49 32.3505 25.49C33.1905 25.49 33.9305 25.37 34.5705 25.13C35.2305 24.87 35.8405 24.47 36.4005 23.93L38.8905 26.63C37.3705 28.37 35.1505 29.24 32.2305 29.24C30.4105 29.24 28.8005 28.89 27.4005 28.19C26.0005 27.47 24.9205 26.48 24.1605 25.22C23.4005 23.96 23.0205 22.53 23.0205 20.93C23.0205 19.35 23.3905 17.93 24.1305 16.67C24.8905 15.39 25.9205 14.4 27.2205 13.7C28.5405 12.98 30.0105 12.62 31.6305 12.62C33.2105 12.62 34.6405 12.96 35.9205 13.64C37.2005 14.32 38.2005 15.3 38.9205 16.58C39.6605 17.84 40.0305 19.31 40.0305 20.99ZM31.6605 16.16C30.6005 16.16 29.7105 16.46 28.9905 17.06C28.2705 17.66 27.8305 18.48 27.6705 19.52H35.6205C35.4605 18.5 35.0205 17.69 34.3005 17.09C33.5805 16.47 32.7005 16.16 31.6605 16.16ZM50.9463 29.24C49.2263 29.24 47.6763 28.89 46.2963 28.19C44.9363 27.47 43.8663 26.48 43.0863 25.22C42.3263 23.96 41.9463 22.53 41.9463 20.93C41.9463 19.33 42.3263 17.9 43.0863 16.64C43.8663 15.38 44.9363 14.4 46.2963 13.7C47.6763 12.98 49.2263 12.62 50.9463 12.62C52.6463 12.62 54.1263 12.98 55.3863 13.7C56.6663 14.4 57.5963 15.41 58.1763 16.73L54.5463 18.68C53.7063 17.2 52.4963 16.46 50.9163 16.46C49.6963 16.46 48.6863 16.86 47.8863 17.66C47.0863 18.46 46.6863 19.55 46.6863 20.93C46.6863 22.31 47.0863 23.4 47.8863 24.2C48.6863 25 49.6963 25.4 50.9163 25.4C52.5163 25.4 53.7263 24.66 54.5463 23.18L58.1763 25.16C57.5963 26.44 56.6663 27.44 55.3863 28.16C54.1263 28.88 52.6463 29.24 50.9463 29.24ZM60.8709 12.86H65.5509V29H60.8709V12.86ZM63.2109 10.61C62.3509 10.61 61.6509 10.36 61.1109 9.86C60.5709 9.36 60.3009 8.74 60.3009 8C60.3009 7.26 60.5709 6.64 61.1109 6.14C61.6509 5.64 62.3509 5.39 63.2109 5.39C64.0709 5.39 64.7709 5.63 65.3109 6.11C65.8509 6.59 66.1209 7.19 66.1209 7.91C66.1209 8.69 65.8509 9.34 65.3109 9.86C64.7709 10.36 64.0709 10.61 63.2109 10.61ZM79.4344 12.62C80.9344 12.62 82.2944 12.97 83.5144 13.67C84.7544 14.35 85.7244 15.32 86.4244 16.58C87.1244 17.82 87.4744 19.27 87.4744 20.93C87.4744 22.59 87.1244 24.05 86.4244 25.31C85.7244 26.55 84.7544 27.52 83.5144 28.22C82.2944 28.9 80.9344 29.24 79.4344 29.24C77.3744 29.24 75.7544 28.59 74.5744 27.29V34.82H69.8944V12.86H74.3644V14.72C75.5244 13.32 77.2144 12.62 79.4344 12.62ZM78.6244 25.4C79.8244 25.4 80.8044 25 81.5644 24.2C82.3444 23.38 82.7344 22.29 82.7344 20.93C82.7344 19.57 82.3444 18.49 81.5644 17.69C80.8044 16.87 79.8244 16.46 78.6244 16.46C77.4244 16.46 76.4344 16.87 75.6544 17.69C74.8944 18.49 74.5144 19.57 74.5144 20.93C74.5144 22.29 74.8944 23.38 75.6544 24.2C76.4344 25 77.4244 25.4 78.6244 25.4ZM106.417 20.99C106.417 21.05 106.387 21.47 106.327 22.25H94.1173C94.3373 23.25 94.8573 24.04 95.6773 24.62C96.4973 25.2 97.5173 25.49 98.7373 25.49C99.5773 25.49 100.317 25.37 100.957 25.13C101.617 24.87 102.227 24.47 102.787 23.93L105.277 26.63C103.757 28.37 101.537 29.24 98.6173 29.24C96.7973 29.24 95.1873 28.89 93.7873 28.19C92.3873 27.47 91.3073 26.48 90.5473 25.22C89.7873 23.96 89.4073 22.53 89.4073 20.93C89.4073 19.35 89.7773 17.93 90.5173 16.67C91.2773 15.39 92.3073 14.4 93.6073 13.7C94.9273 12.98 96.3973 12.62 98.0173 12.62C99.5973 12.62 101.027 12.96 102.307 13.64C103.587 14.32 104.587 15.3 105.307 16.58C106.047 17.84 106.417 19.31 106.417 20.99ZM98.0473 16.16C96.9873 16.16 96.0973 16.46 95.3773 17.06C94.6573 17.66 94.2173 18.48 94.0573 19.52H102.007C101.847 18.5 101.407 17.69 100.687 17.09C99.9673 16.47 99.0873 16.16 98.0473 16.16ZM126.009 20.75L123.189 23.69V29H118.359V8H123.189V17.81L132.489 8H137.889L129.189 17.36L138.399 29H132.729L126.009 20.75ZM155.372 20.99C155.372 21.05 155.342 21.47 155.282 22.25H143.072C143.292 23.25 143.812 24.04 144.632 24.62C145.452 25.2 146.472 25.49 147.692 25.49C148.532 25.49 149.272 25.37 149.912 25.13C150.572 24.87 151.182 24.47 151.742 23.93L154.232 26.63C152.712 28.37 150.492 29.24 147.572 29.24C145.752 29.24 144.142 28.89 142.742 28.19C141.342 27.47 140.262 26.48 139.502 25.22C138.742 23.96 138.362 22.53 138.362 20.93C138.362 19.35 138.732 17.93 139.472 16.67C140.232 15.39 141.262 14.4 142.562 13.7C143.882 12.98 145.352 12.62 146.972 12.62C148.552 12.62 149.982 12.96 151.262 13.64C152.542 14.32 153.542 15.3 154.262 16.58C155.002 17.84 155.372 19.31 155.372 20.99ZM147.002 16.16C145.942 16.16 145.052 16.46 144.332 17.06C143.612 17.66 143.172 18.48 143.012 19.52H150.962C150.802 18.5 150.362 17.69 149.642 17.09C148.922 16.47 148.042 16.16 147.002 16.16ZM174.215 12.86L166.925 29.99C166.185 31.85 165.265 33.16 164.165 33.92C163.085 34.68 161.775 35.06 160.235 35.06C159.395 35.06 158.565 34.93 157.745 34.67C156.925 34.41 156.255 34.05 155.735 33.59L157.445 30.26C157.805 30.58 158.215 30.83 158.675 31.01C159.155 31.19 159.625 31.28 160.085 31.28C160.725 31.28 161.245 31.12 161.645 30.8C162.045 30.5 162.405 29.99 162.725 29.27L162.785 29.12L155.795 12.86H160.625L165.155 23.81L169.715 12.86H174.215Z" fill="#6F6D6D"/>
<path d="M75.768 225.4C77.376 225.4 78.636 225.784 79.548 226.552C80.46 227.32 80.916 228.376 80.916 229.72C80.916 231.064 80.46 232.12 79.548 232.888C78.636 233.644 77.376 234.022 75.768 234.022H72.384V238H71.052V225.4H75.768ZM75.732 232.852C76.98 232.852 77.934 232.582 78.594 232.042C79.254 231.49 79.584 230.716 79.584 229.72C79.584 228.7 79.254 227.92 78.594 227.38C77.934 226.828 76.98 226.552 75.732 226.552H72.384V232.852H75.732ZM86.7503 228.46C87.9863 228.46 88.9343 228.772 89.5943 229.396C90.2543 230.008 90.5843 230.92 90.5843 232.132V238H89.3603V236.524C89.0723 237.016 88.6463 237.4 88.0823 237.676C87.5303 237.952 86.8703 238.09 86.1023 238.09C85.0463 238.09 84.2063 237.838 83.5823 237.334C82.9583 236.83 82.6463 236.164 82.6463 235.336C82.6463 234.532 82.9343 233.884 83.5103 233.392C84.0983 232.9 85.0283 232.654 86.3003 232.654H89.3063V232.078C89.3063 231.262 89.0783 230.644 88.6223 230.224C88.1663 229.792 87.5003 229.576 86.6243 229.576C86.0243 229.576 85.4483 229.678 84.8963 229.882C84.3443 230.074 83.8703 230.344 83.4743 230.692L82.8983 229.738C83.3783 229.33 83.9543 229.018 84.6263 228.802C85.2983 228.574 86.0063 228.46 86.7503 228.46ZM86.3003 237.082C87.0203 237.082 87.6383 236.92 88.1543 236.596C88.6703 236.26 89.0543 235.78 89.3063 235.156V233.608H86.3363C84.7163 233.608 83.9062 234.172 83.9062 235.3C83.9062 235.852 84.1163 236.29 84.5363 236.614C84.9563 236.926 85.5443 237.082 86.3003 237.082ZM94.0554 224.644H95.3334V238H94.0554V224.644ZM107.133 233.662H99.2134C99.2854 234.646 99.6634 235.444 100.347 236.056C101.031 236.656 101.895 236.956 102.939 236.956C103.527 236.956 104.067 236.854 104.559 236.65C105.051 236.434 105.477 236.122 105.837 235.714L106.557 236.542C106.137 237.046 105.609 237.43 104.973 237.694C104.349 237.958 103.659 238.09 102.903 238.09C101.931 238.09 101.067 237.886 100.311 237.478C99.5674 237.058 98.9854 236.482 98.5654 235.75C98.1454 235.018 97.9354 234.19 97.9354 233.266C97.9354 232.342 98.1334 231.514 98.5294 230.782C98.9374 230.05 99.4894 229.48 100.185 229.072C100.893 228.664 101.685 228.46 102.561 228.46C103.437 228.46 104.223 228.664 104.919 229.072C105.615 229.48 106.161 230.05 106.557 230.782C106.953 231.502 107.151 232.33 107.151 233.266L107.133 233.662ZM102.561 229.558C101.649 229.558 100.881 229.852 100.257 230.44C99.6454 231.016 99.2974 231.772 99.2134 232.708H105.927C105.843 231.772 105.489 231.016 104.865 230.44C104.253 229.852 103.485 229.558 102.561 229.558ZM113.623 238.09C112.711 238.09 111.889 237.886 111.157 237.478C110.425 237.058 109.849 236.482 109.429 235.75C109.009 235.018 108.799 234.19 108.799 233.266C108.799 232.342 109.009 231.514 109.429 230.782C109.849 230.05 110.425 229.48 111.157 229.072C111.889 228.664 112.711 228.46 113.623 228.46C114.535 228.46 115.357 228.664 116.089 229.072C116.821 229.48 117.391 230.05 117.799 230.782C118.219 231.514 118.429 232.342 118.429 233.266C118.429 234.19 118.219 235.018 117.799 235.75C117.391 236.482 116.821 237.058 116.089 237.478C115.357 237.886 114.535 238.09 113.623 238.09ZM113.623 236.956C114.295 236.956 114.895 236.806 115.423 236.506C115.963 236.194 116.383 235.756 116.683 235.192C116.983 234.628 117.133 233.986 117.133 233.266C117.133 232.546 116.983 231.904 116.683 231.34C116.383 230.776 115.963 230.344 115.423 230.044C114.895 229.732 114.295 229.576 113.623 229.576C112.951 229.576 112.345 229.732 111.805 230.044C111.277 230.344 110.857 230.776 110.545 231.34C110.245 231.904 110.095 232.546 110.095 233.266C110.095 233.986 110.245 234.628 110.545 235.192C110.857 235.756 111.277 236.194 111.805 236.506C112.345 236.806 112.951 236.956 113.623 236.956Z" fill="black"/>
<path d="M336.954 234.634H329.934L328.422 238H327.036L332.796 225.4H334.11L339.87 238H338.466L336.954 234.634ZM336.468 233.554L333.444 226.786L330.42 233.554H336.468ZM341.684 228.532H342.962V238H341.684V228.532ZM342.332 226.462C342.068 226.462 341.846 226.372 341.666 226.192C341.486 226.012 341.396 225.796 341.396 225.544C341.396 225.304 341.486 225.094 341.666 224.914C341.846 224.734 342.068 224.644 342.332 224.644C342.596 224.644 342.818 224.734 342.998 224.914C343.178 225.082 343.268 225.286 343.268 225.526C343.268 225.79 343.178 226.012 342.998 226.192C342.818 226.372 342.596 226.462 342.332 226.462ZM347.742 230.386C348.042 229.75 348.486 229.27 349.074 228.946C349.674 228.622 350.412 228.46 351.288 228.46V229.702L350.982 229.684C349.986 229.684 349.206 229.99 348.642 230.602C348.078 231.214 347.796 232.072 347.796 233.176V238H346.518V228.532H347.742V230.386ZM360.056 226.552V231.502H366.572V232.654H360.056V238H358.724V225.4H367.364V226.552H360.056ZM370.893 230.386C371.193 229.75 371.637 229.27 372.225 228.946C372.825 228.622 373.563 228.46 374.439 228.46V229.702L374.133 229.684C373.137 229.684 372.357 229.99 371.793 230.602C371.229 231.214 370.947 232.072 370.947 233.176V238H369.669V228.532H370.893V230.386ZM385.113 228.532L380.379 239.134C379.995 240.022 379.551 240.652 379.047 241.024C378.543 241.396 377.937 241.582 377.229 241.582C376.773 241.582 376.347 241.51 375.951 241.366C375.555 241.222 375.213 241.006 374.925 240.718L375.519 239.764C375.999 240.244 376.575 240.484 377.247 240.484C377.679 240.484 378.045 240.364 378.345 240.124C378.657 239.884 378.945 239.476 379.209 238.9L379.623 237.982L375.393 228.532H376.725L380.289 236.578L383.853 228.532H385.113ZM394.893 233.662H386.973C387.045 234.646 387.423 235.444 388.107 236.056C388.791 236.656 389.655 236.956 390.699 236.956C391.287 236.956 391.827 236.854 392.319 236.65C392.811 236.434 393.237 236.122 393.597 235.714L394.317 236.542C393.897 237.046 393.369 237.43 392.733 237.694C392.109 237.958 391.419 238.09 390.663 238.09C389.691 238.09 388.827 237.886 388.071 237.478C387.327 237.058 386.745 236.482 386.325 235.75C385.905 235.018 385.695 234.19 385.695 233.266C385.695 232.342 385.893 231.514 386.289 230.782C386.697 230.05 387.249 229.48 387.945 229.072C388.653 228.664 389.445 228.46 390.321 228.46C391.197 228.46 391.983 228.664 392.679 229.072C393.375 229.48 393.921 230.05 394.317 230.782C394.713 231.502 394.911 232.33 394.911 233.266L394.893 233.662ZM390.321 229.558C389.409 229.558 388.641 229.852 388.017 230.44C387.405 231.016 387.057 231.772 386.973 232.708H393.687C393.603 231.772 393.249 231.016 392.625 230.44C392.013 229.852 391.245 229.558 390.321 229.558ZM398.736 230.386C399.036 229.75 399.48 229.27 400.068 228.946C400.668 228.622 401.406 228.46 402.282 228.46V229.702L401.976 229.684C400.98 229.684 400.2 229.99 399.636 230.602C399.072 231.214 398.79 232.072 398.79 233.176V238H397.512V228.532H398.736V230.386Z" fill="black"/>
<path d="M80.926 307.7H82.204V312.506C81.616 313.022 80.92 313.418 80.116 313.694C79.312 313.97 78.466 314.108 77.578 314.108C76.318 314.108 75.184 313.832 74.176 313.28C73.168 312.728 72.376 311.966 71.8 310.994C71.224 310.01 70.936 308.912 70.936 307.7C70.936 306.488 71.224 305.396 71.8 304.424C72.376 303.44 73.168 302.672 74.176 302.12C75.184 301.568 76.324 301.292 77.596 301.292C78.556 301.292 79.438 301.448 80.242 301.76C81.046 302.06 81.724 302.51 82.276 303.11L81.448 303.956C80.452 302.972 79.186 302.48 77.65 302.48C76.63 302.48 75.706 302.708 74.878 303.164C74.062 303.608 73.42 304.232 72.952 305.036C72.484 305.828 72.25 306.716 72.25 307.7C72.25 308.684 72.484 309.572 72.952 310.364C73.42 311.156 74.062 311.78 74.878 312.236C75.694 312.692 76.612 312.92 77.632 312.92C78.928 312.92 80.026 312.596 80.926 311.948V307.7ZM85.7039 300.644H86.9819V314H85.7039V300.644ZM99.0699 304.532V314H97.8459V312.272C97.5099 312.848 97.0479 313.298 96.4599 313.622C95.8719 313.934 95.1999 314.09 94.4439 314.09C93.2079 314.09 92.2299 313.748 91.5099 313.064C90.8019 312.368 90.4479 311.354 90.4479 310.022V304.532H91.7259V309.896C91.7259 310.892 91.9719 311.648 92.4639 312.164C92.9559 312.68 93.6579 312.938 94.5699 312.938C95.5659 312.938 96.3519 312.638 96.9279 312.038C97.5039 311.426 97.7919 310.58 97.7919 309.5V304.532H99.0699ZM107.635 313.424C107.395 313.64 107.095 313.808 106.735 313.928C106.387 314.036 106.021 314.09 105.637 314.09C104.749 314.09 104.065 313.85 103.585 313.37C103.105 312.89 102.865 312.212 102.865 311.336V305.612H101.173V304.532H102.865V302.462H104.143V304.532H107.023V305.612H104.143V311.264C104.143 311.828 104.281 312.26 104.557 312.56C104.845 312.848 105.253 312.992 105.781 312.992C106.045 312.992 106.297 312.95 106.537 312.866C106.789 312.782 107.005 312.662 107.185 312.506L107.635 313.424ZM117.872 309.662H109.952C110.024 310.646 110.402 311.444 111.086 312.056C111.77 312.656 112.634 312.956 113.678 312.956C114.266 312.956 114.806 312.854 115.298 312.65C115.79 312.434 116.216 312.122 116.576 311.714L117.296 312.542C116.876 313.046 116.348 313.43 115.712 313.694C115.088 313.958 114.398 314.09 113.642 314.09C112.67 314.09 111.806 313.886 111.05 313.478C110.306 313.058 109.724 312.482 109.304 311.75C108.884 311.018 108.674 310.19 108.674 309.266C108.674 308.342 108.872 307.514 109.268 306.782C109.676 306.05 110.228 305.48 110.924 305.072C111.632 304.664 112.424 304.46 113.3 304.46C114.176 304.46 114.962 304.664 115.658 305.072C116.354 305.48 116.9 306.05 117.296 306.782C117.692 307.502 117.89 308.33 117.89 309.266L117.872 309.662ZM113.3 305.558C112.388 305.558 111.62 305.852 110.996 306.44C110.384 307.016 110.036 307.772 109.952 308.708H116.666C116.582 307.772 116.228 307.016 115.604 306.44C114.992 305.852 114.224 305.558 113.3 305.558ZM125.315 304.46C126.503 304.46 127.445 304.808 128.141 305.504C128.849 306.188 129.203 307.19 129.203 308.51V314H127.925V308.636C127.925 307.652 127.679 306.902 127.187 306.386C126.695 305.87 125.993 305.612 125.081 305.612C124.061 305.612 123.251 305.918 122.651 306.53C122.063 307.13 121.769 307.964 121.769 309.032V314H120.491V304.532H121.715V306.278C122.063 305.702 122.543 305.258 123.155 304.946C123.779 304.622 124.499 304.46 125.315 304.46ZM138.986 302.552V307.502H145.502V308.654H138.986V314H137.654V301.4H146.294V302.552H138.986ZM149.822 306.386C150.122 305.75 150.566 305.27 151.154 304.946C151.754 304.622 152.492 304.46 153.368 304.46V305.702L153.062 305.684C152.066 305.684 151.286 305.99 150.722 306.602C150.158 307.214 149.876 308.072 149.876 309.176V314H148.598V304.532H149.822V306.386ZM163.839 309.662H155.919C155.991 310.646 156.369 311.444 157.053 312.056C157.737 312.656 158.601 312.956 159.645 312.956C160.233 312.956 160.773 312.854 161.265 312.65C161.757 312.434 162.183 312.122 162.543 311.714L163.263 312.542C162.843 313.046 162.315 313.43 161.679 313.694C161.055 313.958 160.365 314.09 159.609 314.09C158.637 314.09 157.773 313.886 157.017 313.478C156.273 313.058 155.691 312.482 155.271 311.75C154.851 311.018 154.641 310.19 154.641 309.266C154.641 308.342 154.839 307.514 155.235 306.782C155.643 306.05 156.195 305.48 156.891 305.072C157.599 304.664 158.391 304.46 159.267 304.46C160.143 304.46 160.929 304.664 161.625 305.072C162.321 305.48 162.867 306.05 163.263 306.782C163.659 307.502 163.857 308.33 163.857 309.266L163.839 309.662ZM159.267 305.558C158.355 305.558 157.587 305.852 156.963 306.44C156.351 307.016 156.003 307.772 155.919 308.708H162.633C162.549 307.772 162.195 307.016 161.571 306.44C160.959 305.852 160.191 305.558 159.267 305.558ZM174.702 309.662H166.782C166.854 310.646 167.232 311.444 167.916 312.056C168.6 312.656 169.464 312.956 170.508 312.956C171.096 312.956 171.636 312.854 172.128 312.65C172.62 312.434 173.046 312.122 173.406 311.714L174.126 312.542C173.706 313.046 173.178 313.43 172.542 313.694C171.918 313.958 171.228 314.09 170.472 314.09C169.5 314.09 168.636 313.886 167.88 313.478C167.136 313.058 166.554 312.482 166.134 311.75C165.714 311.018 165.504 310.19 165.504 309.266C165.504 308.342 165.702 307.514 166.098 306.782C166.506 306.05 167.058 305.48 167.754 305.072C168.462 304.664 169.254 304.46 170.13 304.46C171.006 304.46 171.792 304.664 172.488 305.072C173.184 305.48 173.73 306.05 174.126 306.782C174.522 307.502 174.72 308.33 174.72 309.266L174.702 309.662ZM170.13 305.558C169.218 305.558 168.45 305.852 167.826 306.44C167.214 307.016 166.866 307.772 166.782 308.708H173.496C173.412 307.772 173.058 307.016 172.434 306.44C171.822 305.852 171.054 305.558 170.13 305.558Z" fill="black"/>
<path d="M335.128 314.108C333.496 314.108 332.224 313.64 331.312 312.704C330.4 311.768 329.944 310.406 329.944 308.618V301.4H331.276V308.564C331.276 310.028 331.606 311.12 332.266 311.84C332.926 312.56 333.88 312.92 335.128 312.92C336.388 312.92 337.348 312.56 338.008 311.84C338.668 311.12 338.998 310.028 338.998 308.564V301.4H340.294V308.618C340.294 310.406 339.838 311.768 338.926 312.704C338.026 313.64 336.76 314.108 335.128 314.108ZM348.862 304.46C350.05 304.46 350.992 304.808 351.688 305.504C352.396 306.188 352.75 307.19 352.75 308.51V314H351.472V308.636C351.472 307.652 351.226 306.902 350.734 306.386C350.242 305.87 349.54 305.612 348.628 305.612C347.608 305.612 346.798 305.918 346.198 306.53C345.61 307.13 345.316 307.964 345.316 309.032V314H344.038V304.532H345.262V306.278C345.61 305.702 346.09 305.258 346.702 304.946C347.326 304.622 348.046 304.46 348.862 304.46ZM364.895 300.644V314H363.671V312.128C363.287 312.764 362.777 313.25 362.141 313.586C361.517 313.922 360.809 314.09 360.017 314.09C359.129 314.09 358.325 313.886 357.605 313.478C356.885 313.07 356.321 312.5 355.913 311.768C355.505 311.036 355.301 310.202 355.301 309.266C355.301 308.33 355.505 307.496 355.913 306.764C356.321 306.032 356.885 305.468 357.605 305.072C358.325 304.664 359.129 304.46 360.017 304.46C360.785 304.46 361.475 304.622 362.087 304.946C362.711 305.258 363.221 305.72 363.617 306.332V300.644H364.895ZM360.125 312.956C360.785 312.956 361.379 312.806 361.907 312.506C362.447 312.194 362.867 311.756 363.167 311.192C363.479 310.628 363.635 309.986 363.635 309.266C363.635 308.546 363.479 307.904 363.167 307.34C362.867 306.776 362.447 306.344 361.907 306.044C361.379 305.732 360.785 305.576 360.125 305.576C359.453 305.576 358.847 305.732 358.307 306.044C357.779 306.344 357.359 306.776 357.047 307.34C356.747 307.904 356.597 308.546 356.597 309.266C356.597 309.986 356.747 310.628 357.047 311.192C357.359 311.756 357.779 312.194 358.307 312.506C358.847 312.806 359.453 312.956 360.125 312.956ZM376.698 309.662H368.778C368.85 310.646 369.228 311.444 369.912 312.056C370.596 312.656 371.46 312.956 372.504 312.956C373.092 312.956 373.632 312.854 374.124 312.65C374.616 312.434 375.042 312.122 375.402 311.714L376.122 312.542C375.702 313.046 375.174 313.43 374.538 313.694C373.914 313.958 373.224 314.09 372.468 314.09C371.496 314.09 370.632 313.886 369.876 313.478C369.132 313.058 368.55 312.482 368.13 311.75C367.71 311.018 367.5 310.19 367.5 309.266C367.5 308.342 367.698 307.514 368.094 306.782C368.502 306.05 369.054 305.48 369.75 305.072C370.458 304.664 371.25 304.46 372.126 304.46C373.002 304.46 373.788 304.664 374.484 305.072C375.18 305.48 375.726 306.05 376.122 306.782C376.518 307.502 376.716 308.33 376.716 309.266L376.698 309.662ZM372.126 305.558C371.214 305.558 370.446 305.852 369.822 306.44C369.21 307.016 368.862 307.772 368.778 308.708H375.492C375.408 307.772 375.054 307.016 374.43 306.44C373.818 305.852 373.05 305.558 372.126 305.558ZM380.541 306.386C380.841 305.75 381.285 305.27 381.873 304.946C382.473 304.622 383.211 304.46 384.087 304.46V305.702L383.781 305.684C382.785 305.684 382.005 305.99 381.441 306.602C380.877 307.214 380.595 308.072 380.595 309.176V314H379.317V304.532H380.541V306.386ZM394.691 306.8C396.011 306.872 397.013 307.232 397.697 307.88C398.393 308.516 398.741 309.35 398.741 310.382C398.741 311.102 398.567 311.744 398.219 312.308C397.871 312.86 397.355 313.298 396.671 313.622C395.987 313.946 395.153 314.108 394.169 314.108C393.257 314.108 392.393 313.964 391.577 313.676C390.773 313.376 390.125 312.98 389.633 312.488L390.263 311.462C390.683 311.894 391.241 312.248 391.937 312.524C392.633 312.788 393.377 312.92 394.169 312.92C395.201 312.92 395.999 312.698 396.563 312.254C397.127 311.798 397.409 311.174 397.409 310.382C397.409 309.602 397.127 308.99 396.563 308.546C395.999 308.102 395.147 307.88 394.007 307.88H393.107V306.926L396.599 302.552H390.155V301.4H398.255V302.318L394.691 306.8ZM405.589 314.108C404.617 314.108 403.747 313.85 402.979 313.334C402.223 312.818 401.629 312.08 401.197 311.12C400.777 310.148 400.567 309.008 400.567 307.7C400.567 306.392 400.777 305.258 401.197 304.298C401.629 303.326 402.223 302.582 402.979 302.066C403.747 301.55 404.617 301.292 405.589 301.292C406.561 301.292 407.425 301.55 408.181 302.066C408.949 302.582 409.549 303.326 409.981 304.298C410.413 305.258 410.629 306.392 410.629 307.7C410.629 309.008 410.413 310.148 409.981 311.12C409.549 312.08 408.949 312.818 408.181 313.334C407.425 313.85 406.561 314.108 405.589 314.108ZM405.589 312.92C406.321 312.92 406.963 312.716 407.515 312.308C408.079 311.9 408.517 311.306 408.829 310.526C409.141 309.746 409.297 308.804 409.297 307.7C409.297 306.596 409.141 305.654 408.829 304.874C408.517 304.094 408.079 303.5 407.515 303.092C406.963 302.684 406.321 302.48 405.589 302.48C404.857 302.48 404.209 302.684 403.645 303.092C403.093 303.5 402.661 304.094 402.349 304.874C402.037 305.654 401.881 306.596 401.881 307.7C401.881 308.804 402.037 309.746 402.349 310.526C402.661 311.306 403.093 311.9 403.645 312.308C404.209 312.716 404.857 312.92 405.589 312.92ZM429.85 304.46C431.038 304.46 431.968 304.802 432.64 305.486C433.324 306.17 433.666 307.178 433.666 308.51V314H432.388V308.636C432.388 307.652 432.148 306.902 431.668 306.386C431.2 305.87 430.534 305.612 429.67 305.612C428.686 305.612 427.912 305.918 427.348 306.53C426.784 307.13 426.502 307.964 426.502 309.032V314H425.224V308.636C425.224 307.652 424.984 306.902 424.504 306.386C424.036 305.87 423.364 305.612 422.488 305.612C421.516 305.612 420.742 305.918 420.166 306.53C419.602 307.13 419.32 307.964 419.32 309.032V314H418.042V304.532H419.266V306.26C419.602 305.684 420.07 305.24 420.67 304.928C421.27 304.616 421.96 304.46 422.74 304.46C423.532 304.46 424.216 304.628 424.792 304.964C425.38 305.3 425.818 305.798 426.106 306.458C426.454 305.834 426.952 305.348 427.6 305C428.26 304.64 429.01 304.46 429.85 304.46ZM437.132 304.532H438.41V314H437.132V304.532ZM437.78 302.462C437.516 302.462 437.294 302.372 437.114 302.192C436.934 302.012 436.844 301.796 436.844 301.544C436.844 301.304 436.934 301.094 437.114 300.914C437.294 300.734 437.516 300.644 437.78 300.644C438.044 300.644 438.266 300.734 438.446 300.914C438.626 301.082 438.716 301.286 438.716 301.526C438.716 301.79 438.626 302.012 438.446 302.192C438.266 302.372 438.044 302.462 437.78 302.462ZM446.79 304.46C447.978 304.46 448.92 304.808 449.616 305.504C450.324 306.188 450.678 307.19 450.678 308.51V314H449.4V308.636C449.4 307.652 449.154 306.902 448.662 306.386C448.17 305.87 447.468 305.612 446.556 305.612C445.536 305.612 444.726 305.918 444.126 306.53C443.538 307.13 443.244 307.964 443.244 309.032V314H441.966V304.532H443.19V306.278C443.538 305.702 444.018 305.258 444.63 304.946C445.254 304.622 445.974 304.46 446.79 304.46ZM462.679 304.532V314H461.455V312.272C461.119 312.848 460.657 313.298 460.069 313.622C459.481 313.934 458.809 314.09 458.053 314.09C456.817 314.09 455.839 313.748 455.119 313.064C454.411 312.368 454.057 311.354 454.057 310.022V304.532H455.335V309.896C455.335 310.892 455.581 311.648 456.073 312.164C456.565 312.68 457.267 312.938 458.179 312.938C459.175 312.938 459.961 312.638 460.537 312.038C461.113 311.426 461.401 310.58 461.401 309.5V304.532H462.679ZM471.245 313.424C471.005 313.64 470.705 313.808 470.345 313.928C469.997 314.036 469.631 314.09 469.247 314.09C468.359 314.09 467.675 313.85 467.195 313.37C466.715 312.89 466.475 312.212 466.475 311.336V305.612H464.783V304.532H466.475V302.462H467.753V304.532H470.633V305.612H467.753V311.264C467.753 311.828 467.891 312.26 468.167 312.56C468.455 312.848 468.863 312.992 469.391 312.992C469.655 312.992 469.907 312.95 470.147 312.866C470.399 312.782 470.615 312.662 470.795 312.506L471.245 313.424ZM481.481 309.662H473.561C473.633 310.646 474.011 311.444 474.695 312.056C475.379 312.656 476.243 312.956 477.287 312.956C477.875 312.956 478.415 312.854 478.907 312.65C479.399 312.434 479.825 312.122 480.185 311.714L480.905 312.542C480.485 313.046 479.957 313.43 479.321 313.694C478.697 313.958 478.007 314.09 477.251 314.09C476.279 314.09 475.415 313.886 474.659 313.478C473.915 313.058 473.333 312.482 472.913 311.75C472.493 311.018 472.283 310.19 472.283 309.266C472.283 308.342 472.481 307.514 472.877 306.782C473.285 306.05 473.837 305.48 474.533 305.072C475.241 304.664 476.033 304.46 476.909 304.46C477.785 304.46 478.571 304.664 479.267 305.072C479.963 305.48 480.509 306.05 480.905 306.782C481.301 307.502 481.499 308.33 481.499 309.266L481.481 309.662ZM476.909 305.558C475.997 305.558 475.229 305.852 474.605 306.44C473.993 307.016 473.645 307.772 473.561 308.708H480.275C480.191 307.772 479.837 307.016 479.213 306.44C478.601 305.852 477.833 305.558 476.909 305.558ZM486.638 314.09C485.87 314.09 485.132 313.982 484.424 313.766C483.728 313.538 483.182 313.256 482.786 312.92L483.362 311.912C483.758 312.224 484.256 312.482 484.856 312.686C485.456 312.878 486.08 312.974 486.728 312.974C487.592 312.974 488.228 312.842 488.636 312.578C489.056 312.302 489.266 311.918 489.266 311.426C489.266 311.078 489.152 310.808 488.924 310.616C488.696 310.412 488.408 310.262 488.06 310.166C487.712 310.058 487.25 309.956 486.674 309.86C485.906 309.716 485.288 309.572 484.82 309.428C484.352 309.272 483.95 309.014 483.614 308.654C483.29 308.294 483.128 307.796 483.128 307.16C483.128 306.368 483.458 305.72 484.118 305.216C484.778 304.712 485.696 304.46 486.872 304.46C487.484 304.46 488.096 304.544 488.708 304.712C489.32 304.868 489.824 305.078 490.22 305.342L489.662 306.368C488.882 305.828 487.952 305.558 486.872 305.558C486.056 305.558 485.438 305.702 485.018 305.99C484.61 306.278 484.406 306.656 484.406 307.124C484.406 307.484 484.52 307.772 484.748 307.988C484.988 308.204 485.282 308.366 485.63 308.474C485.978 308.57 486.458 308.672 487.07 308.78C487.826 308.924 488.432 309.068 488.888 309.212C489.344 309.356 489.734 309.602 490.058 309.95C490.382 310.298 490.544 310.778 490.544 311.39C490.544 312.218 490.196 312.878 489.5 313.37C488.816 313.85 487.862 314.09 486.638 314.09Z" fill="black"/>
<path d="M74.958 382.078L72.384 384.688V388H71.052V375.4H72.384V383.014L79.782 375.4H81.312L75.858 381.106L81.69 388H80.106L74.958 382.078ZM83.4031 378.532H84.6811V388H83.4031V378.532ZM84.0511 376.462C83.7871 376.462 83.5651 376.372 83.3851 376.192C83.2051 376.012 83.1151 375.796 83.1151 375.544C83.1151 375.304 83.2051 375.094 83.3851 374.914C83.5651 374.734 83.7871 374.644 84.0511 374.644C84.3151 374.644 84.5371 374.734 84.7171 374.914C84.8971 375.082 84.9871 375.286 84.9871 375.526C84.9871 375.79 84.8971 376.012 84.7171 376.192C84.5371 376.372 84.3151 376.462 84.0511 376.462ZM96.8771 374.644V388H95.6531V386.128C95.2691 386.764 94.7591 387.25 94.1231 387.586C93.4991 387.922 92.7911 388.09 91.9991 388.09C91.1111 388.09 90.3071 387.886 89.5871 387.478C88.8671 387.07 88.3031 386.5 87.8951 385.768C87.4871 385.036 87.2831 384.202 87.2831 383.266C87.2831 382.33 87.4871 381.496 87.8951 380.764C88.3031 380.032 88.8671 379.468 89.5871 379.072C90.3071 378.664 91.1111 378.46 91.9991 378.46C92.7671 378.46 93.4571 378.622 94.0691 378.946C94.6931 379.258 95.2031 379.72 95.5991 380.332V374.644H96.8771ZM92.1071 386.956C92.7671 386.956 93.3611 386.806 93.8891 386.506C94.4291 386.194 94.8491 385.756 95.1491 385.192C95.4611 384.628 95.6171 383.986 95.6171 383.266C95.6171 382.546 95.4611 381.904 95.1491 381.34C94.8491 380.776 94.4291 380.344 93.8891 380.044C93.3611 379.732 92.7671 379.576 92.1071 379.576C91.4351 379.576 90.8291 379.732 90.2891 380.044C89.7611 380.344 89.3411 380.776 89.0291 381.34C88.7291 381.904 88.5791 382.546 88.5791 383.266C88.5791 383.986 88.7291 384.628 89.0291 385.192C89.3411 385.756 89.7611 386.194 90.2891 386.506C90.8291 386.806 91.4351 386.956 92.1071 386.956ZM106.749 376.552V381.502H113.265V382.654H106.749V388H105.417V375.4H114.057V376.552H106.749ZM117.586 380.386C117.886 379.75 118.33 379.27 118.918 378.946C119.518 378.622 120.256 378.46 121.132 378.46V379.702L120.826 379.684C119.83 379.684 119.05 379.99 118.486 380.602C117.922 381.214 117.64 382.072 117.64 383.176V388H116.362V378.532H117.586V380.386ZM123.446 378.532H124.724V388H123.446V378.532ZM124.094 376.462C123.83 376.462 123.608 376.372 123.428 376.192C123.248 376.012 123.158 375.796 123.158 375.544C123.158 375.304 123.248 375.094 123.428 374.914C123.608 374.734 123.83 374.644 124.094 374.644C124.358 374.644 124.58 374.734 124.76 374.914C124.94 375.082 125.03 375.286 125.03 375.526C125.03 375.79 124.94 376.012 124.76 376.192C124.58 376.372 124.358 376.462 124.094 376.462ZM136.524 383.662H128.604C128.676 384.646 129.054 385.444 129.738 386.056C130.422 386.656 131.286 386.956 132.33 386.956C132.918 386.956 133.458 386.854 133.95 386.65C134.442 386.434 134.868 386.122 135.228 385.714L135.948 386.542C135.528 387.046 135 387.43 134.364 387.694C133.74 387.958 133.05 388.09 132.294 388.09C131.322 388.09 130.458 387.886 129.702 387.478C128.958 387.058 128.376 386.482 127.956 385.75C127.536 385.018 127.326 384.19 127.326 383.266C127.326 382.342 127.524 381.514 127.92 380.782C128.328 380.05 128.88 379.48 129.576 379.072C130.284 378.664 131.076 378.46 131.952 378.46C132.828 378.46 133.614 378.664 134.31 379.072C135.006 379.48 135.552 380.05 135.948 380.782C136.344 381.502 136.542 382.33 136.542 383.266L136.524 383.662ZM131.952 379.558C131.04 379.558 130.272 379.852 129.648 380.44C129.036 381.016 128.688 381.772 128.604 382.708H135.318C135.234 381.772 134.88 381.016 134.256 380.44C133.644 379.852 132.876 379.558 131.952 379.558ZM143.967 378.46C145.155 378.46 146.097 378.808 146.793 379.504C147.501 380.188 147.855 381.19 147.855 382.51V388H146.577V382.636C146.577 381.652 146.331 380.902 145.839 380.386C145.347 379.87 144.645 379.612 143.733 379.612C142.713 379.612 141.903 379.918 141.303 380.53C140.715 381.13 140.421 381.964 140.421 383.032V388H139.143V378.532H140.367V380.278C140.715 379.702 141.195 379.258 141.807 378.946C142.431 378.622 143.151 378.46 143.967 378.46ZM160 374.644V388H158.776V386.128C158.392 386.764 157.882 387.25 157.246 387.586C156.622 387.922 155.914 388.09 155.122 388.09C154.234 388.09 153.43 387.886 152.71 387.478C151.99 387.07 151.426 386.5 151.018 385.768C150.61 385.036 150.406 384.202 150.406 383.266C150.406 382.33 150.61 381.496 151.018 380.764C151.426 380.032 151.99 379.468 152.71 379.072C153.43 378.664 154.234 378.46 155.122 378.46C155.89 378.46 156.58 378.622 157.192 378.946C157.816 379.258 158.326 379.72 158.722 380.332V374.644H160ZM155.23 386.956C155.89 386.956 156.484 386.806 157.012 386.506C157.552 386.194 157.972 385.756 158.272 385.192C158.584 384.628 158.74 383.986 158.74 383.266C158.74 382.546 158.584 381.904 158.272 381.34C157.972 380.776 157.552 380.344 157.012 380.044C156.484 379.732 155.89 379.576 155.23 379.576C154.558 379.576 153.952 379.732 153.412 380.044C152.884 380.344 152.464 380.776 152.152 381.34C151.852 381.904 151.702 382.546 151.702 383.266C151.702 383.986 151.852 384.628 152.152 385.192C152.464 385.756 152.884 386.194 153.412 386.506C153.952 386.806 154.558 386.956 155.23 386.956ZM163.559 374.644H164.837V388H163.559V374.644ZM176.349 378.532L171.615 389.134C171.231 390.022 170.787 390.652 170.283 391.024C169.779 391.396 169.173 391.582 168.465 391.582C168.009 391.582 167.583 391.51 167.187 391.366C166.791 391.222 166.449 391.006 166.161 390.718L166.755 389.764C167.235 390.244 167.811 390.484 168.483 390.484C168.915 390.484 169.281 390.364 169.581 390.124C169.893 389.884 170.181 389.476 170.445 388.9L170.859 387.982L166.629 378.532H167.961L171.525 386.578L175.089 378.532H176.349Z" fill="black"/>
<path d="M329.052 375.4H330.384V386.848H337.44V388H329.052V375.4ZM343.111 388.09C342.199 388.09 341.377 387.886 340.645 387.478C339.913 387.058 339.337 386.482 338.917 385.75C338.497 385.018 338.287 384.19 338.287 383.266C338.287 382.342 338.497 381.514 338.917 380.782C339.337 380.05 339.913 379.48 340.645 379.072C341.377 378.664 342.199 378.46 343.111 378.46C344.023 378.46 344.845 378.664 345.577 379.072C346.309 379.48 346.879 380.05 347.287 380.782C347.707 381.514 347.917 382.342 347.917 383.266C347.917 384.19 347.707 385.018 347.287 385.75C346.879 386.482 346.309 387.058 345.577 387.478C344.845 387.886 344.023 388.09 343.111 388.09ZM343.111 386.956C343.783 386.956 344.383 386.806 344.911 386.506C345.451 386.194 345.871 385.756 346.171 385.192C346.471 384.628 346.621 383.986 346.621 383.266C346.621 382.546 346.471 381.904 346.171 381.34C345.871 380.776 345.451 380.344 344.911 380.044C344.383 379.732 343.783 379.576 343.111 379.576C342.439 379.576 341.833 379.732 341.293 380.044C340.765 380.344 340.345 380.776 340.033 381.34C339.733 381.904 339.583 382.546 339.583 383.266C339.583 383.986 339.733 384.628 340.033 385.192C340.345 385.756 340.765 386.194 341.293 386.506C341.833 386.806 342.439 386.956 343.111 386.956ZM364.158 378.532L360.576 388H359.37L356.382 380.242L353.394 388H352.188L348.624 378.532H349.848L352.818 386.578L355.86 378.532H356.958L359.982 386.578L362.988 378.532H364.158ZM376.536 388.108C375.288 388.108 374.16 387.832 373.152 387.28C372.156 386.728 371.37 385.966 370.794 384.994C370.23 384.01 369.948 382.912 369.948 381.7C369.948 380.488 370.23 379.396 370.794 378.424C371.37 377.44 372.162 376.672 373.17 376.12C374.178 375.568 375.306 375.292 376.554 375.292C377.49 375.292 378.354 375.448 379.146 375.76C379.938 376.072 380.61 376.528 381.162 377.128L380.316 377.974C379.332 376.978 378.09 376.48 376.59 376.48C375.594 376.48 374.688 376.708 373.872 377.164C373.056 377.62 372.414 378.244 371.946 379.036C371.49 379.828 371.262 380.716 371.262 381.7C371.262 382.684 371.49 383.572 371.946 384.364C372.414 385.156 373.056 385.78 373.872 386.236C374.688 386.692 375.594 386.92 376.59 386.92C378.102 386.92 379.344 386.416 380.316 385.408L381.162 386.254C380.61 386.854 379.932 387.316 379.128 387.64C378.336 387.952 377.472 388.108 376.536 388.108ZM386.903 378.46C388.139 378.46 389.087 378.772 389.747 379.396C390.407 380.008 390.737 380.92 390.737 382.132V388H389.513V386.524C389.225 387.016 388.799 387.4 388.235 387.676C387.683 387.952 387.023 388.09 386.255 388.09C385.199 388.09 384.359 387.838 383.735 387.334C383.111 386.83 382.799 386.164 382.799 385.336C382.799 384.532 383.087 383.884 383.663 383.392C384.251 382.9 385.181 382.654 386.453 382.654H389.459V382.078C389.459 381.262 389.231 380.644 388.775 380.224C388.319 379.792 387.653 379.576 386.777 379.576C386.177 379.576 385.601 379.678 385.049 379.882C384.497 380.074 384.023 380.344 383.627 380.692L383.051 379.738C383.531 379.33 384.107 379.018 384.779 378.802C385.451 378.574 386.159 378.46 386.903 378.46ZM386.453 387.082C387.173 387.082 387.791 386.92 388.307 386.596C388.823 386.26 389.207 385.78 389.459 385.156V383.608H386.489C384.869 383.608 384.059 384.172 384.059 385.3C384.059 385.852 384.269 386.29 384.689 386.614C385.109 386.926 385.697 387.082 386.453 387.082ZM395.432 380.386C395.732 379.75 396.176 379.27 396.764 378.946C397.364 378.622 398.102 378.46 398.978 378.46V379.702L398.672 379.684C397.676 379.684 396.896 379.99 396.332 380.602C395.768 381.214 395.486 382.072 395.486 383.176V388H394.208V378.532H395.432V380.386ZM406.17 378.46C407.058 378.46 407.862 378.664 408.582 379.072C409.302 379.468 409.866 380.032 410.274 380.764C410.682 381.496 410.886 382.33 410.886 383.266C410.886 384.202 410.682 385.036 410.274 385.768C409.866 386.5 409.302 387.07 408.582 387.478C407.862 387.886 407.058 388.09 406.17 388.09C405.378 388.09 404.664 387.922 404.028 387.586C403.404 387.25 402.9 386.764 402.516 386.128V388H401.292V374.644H402.57V380.332C402.966 379.72 403.47 379.258 404.082 378.946C404.706 378.622 405.402 378.46 406.17 378.46ZM406.08 386.956C406.74 386.956 407.34 386.806 407.88 386.506C408.42 386.194 408.84 385.756 409.14 385.192C409.452 384.628 409.608 383.986 409.608 383.266C409.608 382.546 409.452 381.904 409.14 381.34C408.84 380.776 408.42 380.344 407.88 380.044C407.34 379.732 406.74 379.576 406.08 379.576C405.408 379.576 404.802 379.732 404.262 380.044C403.734 380.344 403.314 380.776 403.002 381.34C402.702 381.904 402.552 382.546 402.552 383.266C402.552 383.986 402.702 384.628 403.002 385.192C403.314 385.756 403.734 386.194 404.262 386.506C404.802 386.806 405.408 386.956 406.08 386.956Z" fill="black"/>
<path d="M84.138 449.4V462H82.86V451.92L77.91 460.398H77.28L72.33 451.974V462H71.052V449.4H72.15L77.622 458.742L83.04 449.4H84.138ZM96.2174 457.662H88.2974C88.3694 458.646 88.7474 459.444 89.4314 460.056C90.1154 460.656 90.9794 460.956 92.0234 460.956C92.6114 460.956 93.1514 460.854 93.6434 460.65C94.1354 460.434 94.5614 460.122 94.9214 459.714L95.6414 460.542C95.2214 461.046 94.6934 461.43 94.0574 461.694C93.4334 461.958 92.7434 462.09 91.9874 462.09C91.0154 462.09 90.1514 461.886 89.3954 461.478C88.6514 461.058 88.0694 460.482 87.6494 459.75C87.2294 459.018 87.0194 458.19 87.0194 457.266C87.0194 456.342 87.2174 455.514 87.6134 454.782C88.0214 454.05 88.5734 453.48 89.2694 453.072C89.9774 452.664 90.7694 452.46 91.6454 452.46C92.5214 452.46 93.3074 452.664 94.0034 453.072C94.6994 453.48 95.2454 454.05 95.6414 454.782C96.0374 455.502 96.2354 456.33 96.2354 457.266L96.2174 457.662ZM91.6454 453.558C90.7334 453.558 89.9654 453.852 89.3414 454.44C88.7294 455.016 88.3814 455.772 88.2974 456.708H95.0114C94.9274 455.772 94.5734 455.016 93.9494 454.44C93.3374 453.852 92.5694 453.558 91.6454 453.558ZM101.885 452.46C103.121 452.46 104.069 452.772 104.729 453.396C105.389 454.008 105.719 454.92 105.719 456.132V462H104.495V460.524C104.207 461.016 103.781 461.4 103.217 461.676C102.665 461.952 102.005 462.09 101.237 462.09C100.181 462.09 99.341 461.838 98.717 461.334C98.093 460.83 97.781 460.164 97.781 459.336C97.781 458.532 98.069 457.884 98.645 457.392C99.233 456.9 100.163 456.654 101.435 456.654H104.441V456.078C104.441 455.262 104.213 454.644 103.757 454.224C103.301 453.792 102.635 453.576 101.759 453.576C101.159 453.576 100.583 453.678 100.031 453.882C99.479 454.074 99.005 454.344 98.609 454.692L98.033 453.738C98.513 453.33 99.089 453.018 99.761 452.802C100.433 452.574 101.141 452.46 101.885 452.46ZM101.435 461.082C102.155 461.082 102.773 460.92 103.289 460.596C103.805 460.26 104.189 459.78 104.441 459.156V457.608H101.471C99.851 457.608 99.041 458.172 99.041 459.3C99.041 459.852 99.251 460.29 99.671 460.614C100.091 460.926 100.679 461.082 101.435 461.082ZM109.19 448.644H110.468V462H109.19V448.644ZM123.721 449.4C125.329 449.4 126.589 449.784 127.501 450.552C128.413 451.32 128.869 452.376 128.869 453.72C128.869 455.064 128.413 456.12 127.501 456.888C126.589 457.644 125.329 458.022 123.721 458.022H120.337V462H119.005V449.4H123.721ZM123.685 456.852C124.933 456.852 125.887 456.582 126.547 456.042C127.207 455.49 127.537 454.716 127.537 453.72C127.537 452.7 127.207 451.92 126.547 451.38C125.887 450.828 124.933 450.552 123.685 450.552H120.337V456.852H123.685ZM132.457 454.386C132.757 453.75 133.201 453.27 133.789 452.946C134.389 452.622 135.127 452.46 136.003 452.46V453.702L135.697 453.684C134.701 453.684 133.921 453.99 133.357 454.602C132.793 455.214 132.511 456.072 132.511 457.176V462H131.233V452.532H132.457V454.386ZM146.473 457.662H138.553C138.625 458.646 139.003 459.444 139.687 460.056C140.371 460.656 141.235 460.956 142.279 460.956C142.867 460.956 143.407 460.854 143.899 460.65C144.391 460.434 144.817 460.122 145.177 459.714L145.897 460.542C145.477 461.046 144.949 461.43 144.313 461.694C143.689 461.958 142.999 462.09 142.243 462.09C141.271 462.09 140.407 461.886 139.651 461.478C138.907 461.058 138.325 460.482 137.905 459.75C137.485 459.018 137.275 458.19 137.275 457.266C137.275 456.342 137.473 455.514 137.869 454.782C138.277 454.05 138.829 453.48 139.525 453.072C140.233 452.664 141.025 452.46 141.901 452.46C142.777 452.46 143.563 452.664 144.259 453.072C144.955 453.48 145.501 454.05 145.897 454.782C146.293 455.502 146.491 456.33 146.491 457.266L146.473 457.662ZM141.901 453.558C140.989 453.558 140.221 453.852 139.597 454.44C138.985 455.016 138.637 455.772 138.553 456.708H145.267C145.183 455.772 144.829 455.016 144.205 454.44C143.593 453.852 142.825 453.558 141.901 453.558ZM153.971 452.46C154.859 452.46 155.663 452.664 156.383 453.072C157.103 453.468 157.667 454.032 158.075 454.764C158.483 455.496 158.687 456.33 158.687 457.266C158.687 458.214 158.483 459.054 158.075 459.786C157.667 460.518 157.103 461.088 156.383 461.496C155.675 461.892 154.871 462.09 153.971 462.09C153.203 462.09 152.507 461.934 151.883 461.622C151.271 461.298 150.767 460.83 150.371 460.218V465.492H149.093V452.532H150.317V454.404C150.701 453.78 151.205 453.3 151.829 452.964C152.465 452.628 153.179 452.46 153.971 452.46ZM153.881 460.956C154.541 460.956 155.141 460.806 155.681 460.506C156.221 460.194 156.641 459.756 156.941 459.192C157.253 458.628 157.409 457.986 157.409 457.266C157.409 456.546 157.253 455.91 156.941 455.358C156.641 454.794 156.221 454.356 155.681 454.044C155.141 453.732 154.541 453.576 153.881 453.576C153.209 453.576 152.603 453.732 152.063 454.044C151.535 454.356 151.115 454.794 150.803 455.358C150.503 455.91 150.353 456.546 150.353 457.266C150.353 457.986 150.503 458.628 150.803 459.192C151.115 459.756 151.535 460.194 152.063 460.506C152.603 460.806 153.209 460.956 153.881 460.956Z" fill="black"/>
<path d="M329.052 449.4H334.182C335.514 449.4 336.69 449.67 337.71 450.21C338.73 450.738 339.522 451.482 340.086 452.442C340.65 453.39 340.932 454.476 340.932 455.7C340.932 456.924 340.65 458.016 340.086 458.976C339.522 459.924 338.73 460.668 337.71 461.208C336.69 461.736 335.514 462 334.182 462H329.052V449.4ZM334.11 460.848C335.214 460.848 336.18 460.632 337.008 460.2C337.836 459.756 338.478 459.15 338.934 458.382C339.39 457.602 339.618 456.708 339.618 455.7C339.618 454.692 339.39 453.804 338.934 453.036C338.478 452.256 337.836 451.65 337.008 451.218C336.18 450.774 335.214 450.552 334.11 450.552H330.384V460.848H334.11ZM346.965 452.46C348.201 452.46 349.149 452.772 349.809 453.396C350.469 454.008 350.799 454.92 350.799 456.132V462H349.575V460.524C349.287 461.016 348.861 461.4 348.297 461.676C347.745 461.952 347.085 462.09 346.317 462.09C345.261 462.09 344.421 461.838 343.797 461.334C343.173 460.83 342.861 460.164 342.861 459.336C342.861 458.532 343.149 457.884 343.725 457.392C344.313 456.9 345.243 456.654 346.515 456.654H349.521V456.078C349.521 455.262 349.293 454.644 348.837 454.224C348.381 453.792 347.715 453.576 346.839 453.576C346.239 453.576 345.663 453.678 345.111 453.882C344.559 454.074 344.085 454.344 343.689 454.692L343.113 453.738C343.593 453.33 344.169 453.018 344.841 452.802C345.513 452.574 346.221 452.46 346.965 452.46ZM346.515 461.082C347.235 461.082 347.853 460.92 348.369 460.596C348.885 460.26 349.269 459.78 349.521 459.156V457.608H346.551C344.931 457.608 344.121 458.172 344.121 459.3C344.121 459.852 344.331 460.29 344.751 460.614C345.171 460.926 345.759 461.082 346.515 461.082ZM354.27 452.532H355.548V462H354.27V452.532ZM354.918 450.462C354.654 450.462 354.432 450.372 354.252 450.192C354.072 450.012 353.982 449.796 353.982 449.544C353.982 449.304 354.072 449.094 354.252 448.914C354.432 448.734 354.654 448.644 354.918 448.644C355.182 448.644 355.404 448.734 355.584 448.914C355.764 449.082 355.854 449.286 355.854 449.526C355.854 449.79 355.764 450.012 355.584 450.192C355.404 450.372 355.182 450.462 354.918 450.462ZM360.328 454.386C360.628 453.75 361.072 453.27 361.66 452.946C362.26 452.622 362.998 452.46 363.874 452.46V453.702L363.568 453.684C362.572 453.684 361.792 453.99 361.228 454.602C360.664 455.214 360.382 456.072 360.382 457.176V462H359.104V452.532H360.328V454.386ZM374.549 452.532L369.815 463.134C369.431 464.022 368.987 464.652 368.483 465.024C367.979 465.396 367.373 465.582 366.665 465.582C366.209 465.582 365.783 465.51 365.387 465.366C364.991 465.222 364.649 465.006 364.361 464.718L364.955 463.764C365.435 464.244 366.011 464.484 366.683 464.484C367.115 464.484 367.481 464.364 367.781 464.124C368.093 463.884 368.381 463.476 368.645 462.9L369.059 461.982L364.829 452.532H366.161L369.725 460.578L373.289 452.532H374.549ZM382.661 450.552V455.502H389.177V456.654H382.661V462H381.329V449.4H389.969V450.552H382.661ZM393.498 454.386C393.798 453.75 394.242 453.27 394.83 452.946C395.43 452.622 396.168 452.46 397.044 452.46V453.702L396.738 453.684C395.742 453.684 394.962 453.99 394.398 454.602C393.834 455.214 393.552 456.072 393.552 457.176V462H392.274V452.532H393.498V454.386ZM407.514 457.662H399.594C399.666 458.646 400.044 459.444 400.728 460.056C401.412 460.656 402.276 460.956 403.32 460.956C403.908 460.956 404.448 460.854 404.94 460.65C405.432 460.434 405.858 460.122 406.218 459.714L406.938 460.542C406.518 461.046 405.99 461.43 405.354 461.694C404.73 461.958 404.04 462.09 403.284 462.09C402.312 462.09 401.448 461.886 400.692 461.478C399.948 461.058 399.366 460.482 398.946 459.75C398.526 459.018 398.316 458.19 398.316 457.266C398.316 456.342 398.514 455.514 398.91 454.782C399.318 454.05 399.87 453.48 400.566 453.072C401.274 452.664 402.066 452.46 402.942 452.46C403.818 452.46 404.604 452.664 405.3 453.072C405.996 453.48 406.542 454.05 406.938 454.782C407.334 455.502 407.532 456.33 407.532 457.266L407.514 457.662ZM402.942 453.558C402.03 453.558 401.262 453.852 400.638 454.44C400.026 455.016 399.678 455.772 399.594 456.708H406.308C406.224 455.772 405.87 455.016 405.246 454.44C404.634 453.852 403.866 453.558 402.942 453.558ZM418.378 457.662H410.458C410.53 458.646 410.908 459.444 411.592 460.056C412.276 460.656 413.14 460.956 414.184 460.956C414.772 460.956 415.312 460.854 415.804 460.65C416.296 460.434 416.722 460.122 417.082 459.714L417.802 460.542C417.382 461.046 416.854 461.43 416.218 461.694C415.594 461.958 414.904 462.09 414.148 462.09C413.176 462.09 412.312 461.886 411.556 461.478C410.812 461.058 410.23 460.482 409.81 459.75C409.39 459.018 409.18 458.19 409.18 457.266C409.18 456.342 409.378 455.514 409.774 454.782C410.182 454.05 410.734 453.48 411.43 453.072C412.138 452.664 412.93 452.46 413.806 452.46C414.682 452.46 415.468 452.664 416.164 453.072C416.86 453.48 417.406 454.05 417.802 454.782C418.198 455.502 418.396 456.33 418.396 457.266L418.378 457.662ZM413.806 453.558C412.894 453.558 412.126 453.852 411.502 454.44C410.89 455.016 410.542 455.772 410.458 456.708H417.172C417.088 455.772 416.734 455.016 416.11 454.44C415.498 453.852 414.73 453.558 413.806 453.558Z" fill="black"/>
<path d="M72.384 524.552V529.502H78.9V530.654H72.384V536H71.052V523.4H79.692V524.552H72.384ZM83.2208 528.386C83.5208 527.75 83.9648 527.27 84.5528 526.946C85.1528 526.622 85.8908 526.46 86.7668 526.46V527.702L86.4608 527.684C85.4648 527.684 84.6848 527.99 84.1208 528.602C83.5568 529.214 83.2748 530.072 83.2748 531.176V536H81.9968V526.532H83.2208V528.386ZM97.2369 531.662H89.3169C89.3889 532.646 89.7669 533.444 90.4509 534.056C91.1349 534.656 91.9989 534.956 93.0429 534.956C93.6309 534.956 94.1709 534.854 94.6629 534.65C95.1549 534.434 95.5809 534.122 95.9409 533.714L96.6609 534.542C96.2409 535.046 95.7129 535.43 95.0769 535.694C94.4529 535.958 93.7629 536.09 93.0069 536.09C92.0349 536.09 91.1709 535.886 90.4149 535.478C89.6709 535.058 89.0889 534.482 88.6689 533.75C88.2489 533.018 88.0389 532.19 88.0389 531.266C88.0389 530.342 88.2369 529.514 88.6329 528.782C89.0409 528.05 89.5929 527.48 90.2889 527.072C90.9969 526.664 91.7889 526.46 92.6649 526.46C93.5409 526.46 94.3269 526.664 95.0229 527.072C95.7189 527.48 96.2649 528.05 96.6609 528.782C97.0569 529.502 97.2549 530.33 97.2549 531.266L97.2369 531.662ZM92.6649 527.558C91.7529 527.558 90.9849 527.852 90.3609 528.44C89.7489 529.016 89.4009 529.772 89.3169 530.708H96.0309C95.9469 529.772 95.5929 529.016 94.9689 528.44C94.3569 527.852 93.5889 527.558 92.6649 527.558ZM108.1 531.662H100.18C100.252 532.646 100.63 533.444 101.314 534.056C101.998 534.656 102.862 534.956 103.906 534.956C104.494 534.956 105.034 534.854 105.526 534.65C106.018 534.434 106.444 534.122 106.804 533.714L107.524 534.542C107.104 535.046 106.576 535.43 105.94 535.694C105.316 535.958 104.626 536.09 103.87 536.09C102.898 536.09 102.034 535.886 101.278 535.478C100.534 535.058 99.9522 534.482 99.5322 533.75C99.1122 533.018 98.9022 532.19 98.9022 531.266C98.9022 530.342 99.1002 529.514 99.4962 528.782C99.9042 528.05 100.456 527.48 101.152 527.072C101.86 526.664 102.652 526.46 103.528 526.46C104.404 526.46 105.19 526.664 105.886 527.072C106.582 527.48 107.128 528.05 107.524 528.782C107.92 529.502 108.118 530.33 108.118 531.266L108.1 531.662ZM103.528 527.558C102.616 527.558 101.848 527.852 101.224 528.44C100.612 529.016 100.264 529.772 100.18 530.708H106.894C106.81 529.772 106.456 529.016 105.832 528.44C105.22 527.852 104.452 527.558 103.528 527.558ZM117.31 534.938V536H109.606V535.154L115.564 527.612H109.714V526.532H117.202V527.378L111.244 534.938H117.31ZM127.911 531.662H119.991C120.063 532.646 120.441 533.444 121.125 534.056C121.809 534.656 122.673 534.956 123.717 534.956C124.305 534.956 124.845 534.854 125.337 534.65C125.829 534.434 126.255 534.122 126.615 533.714L127.335 534.542C126.915 535.046 126.387 535.43 125.751 535.694C125.127 535.958 124.437 536.09 123.681 536.09C122.709 536.09 121.845 535.886 121.089 535.478C120.345 535.058 119.763 534.482 119.343 533.75C118.923 533.018 118.713 532.19 118.713 531.266C118.713 530.342 118.911 529.514 119.307 528.782C119.715 528.05 120.267 527.48 120.963 527.072C121.671 526.664 122.463 526.46 123.339 526.46C124.215 526.46 125.001 526.664 125.697 527.072C126.393 527.48 126.939 528.05 127.335 528.782C127.731 529.502 127.929 530.33 127.929 531.266L127.911 531.662ZM123.339 527.558C122.427 527.558 121.659 527.852 121.035 528.44C120.423 529.016 120.075 529.772 119.991 530.708H126.705C126.621 529.772 126.267 529.016 125.643 528.44C125.031 527.852 124.263 527.558 123.339 527.558ZM131.754 528.386C132.054 527.75 132.498 527.27 133.086 526.946C133.686 526.622 134.424 526.46 135.3 526.46V527.702L134.994 527.684C133.998 527.684 133.218 527.99 132.654 528.602C132.09 529.214 131.808 530.072 131.808 531.176V536H130.53V526.532H131.754V528.386ZM155.822 523.4V536H154.544V525.92L149.594 534.398H148.964L144.014 525.974V536H142.736V523.4H143.834L149.306 532.742L154.724 523.4H155.822ZM167.901 531.662H159.981C160.053 532.646 160.431 533.444 161.115 534.056C161.799 534.656 162.663 534.956 163.707 534.956C164.295 534.956 164.835 534.854 165.327 534.65C165.819 534.434 166.245 534.122 166.605 533.714L167.325 534.542C166.905 535.046 166.377 535.43 165.741 535.694C165.117 535.958 164.427 536.09 163.671 536.09C162.699 536.09 161.835 535.886 161.079 535.478C160.335 535.058 159.753 534.482 159.333 533.75C158.913 533.018 158.703 532.19 158.703 531.266C158.703 530.342 158.901 529.514 159.297 528.782C159.705 528.05 160.257 527.48 160.953 527.072C161.661 526.664 162.453 526.46 163.329 526.46C164.205 526.46 164.991 526.664 165.687 527.072C166.383 527.48 166.929 528.05 167.325 528.782C167.721 529.502 167.919 530.33 167.919 531.266L167.901 531.662ZM163.329 527.558C162.417 527.558 161.649 527.852 161.025 528.44C160.413 529.016 160.065 529.772 159.981 530.708H166.695C166.611 529.772 166.257 529.016 165.633 528.44C165.021 527.852 164.253 527.558 163.329 527.558ZM173.569 526.46C174.805 526.46 175.753 526.772 176.413 527.396C177.073 528.008 177.403 528.92 177.403 530.132V536H176.179V534.524C175.891 535.016 175.465 535.4 174.901 535.676C174.349 535.952 173.689 536.09 172.921 536.09C171.865 536.09 171.025 535.838 170.401 535.334C169.777 534.83 169.465 534.164 169.465 533.336C169.465 532.532 169.753 531.884 170.329 531.392C170.917 530.9 171.847 530.654 173.119 530.654H176.125V530.078C176.125 529.262 175.897 528.644 175.441 528.224C174.985 527.792 174.319 527.576 173.443 527.576C172.843 527.576 172.267 527.678 171.715 527.882C171.163 528.074 170.689 528.344 170.293 528.692L169.717 527.738C170.197 527.33 170.773 527.018 171.445 526.802C172.117 526.574 172.825 526.46 173.569 526.46ZM173.119 535.082C173.839 535.082 174.457 534.92 174.973 534.596C175.489 534.26 175.873 533.78 176.125 533.156V531.608H173.155C171.535 531.608 170.725 532.172 170.725 533.3C170.725 533.852 170.935 534.29 171.355 534.614C171.775 534.926 172.363 535.082 173.119 535.082ZM180.874 522.644H182.152V536H180.874V522.644ZM188.246 536.09C187.478 536.09 186.74 535.982 186.032 535.766C185.336 535.538 184.79 535.256 184.394 534.92L184.97 533.912C185.366 534.224 185.864 534.482 186.464 534.686C187.064 534.878 187.688 534.974 188.336 534.974C189.2 534.974 189.836 534.842 190.244 534.578C190.664 534.302 190.874 533.918 190.874 533.426C190.874 533.078 190.76 532.808 190.532 532.616C190.304 532.412 190.016 532.262 189.668 532.166C189.32 532.058 188.858 531.956 188.282 531.86C187.514 531.716 186.896 531.572 186.428 531.428C185.96 531.272 185.558 531.014 185.222 530.654C184.898 530.294 184.736 529.796 184.736 529.16C184.736 528.368 185.066 527.72 185.726 527.216C186.386 526.712 187.304 526.46 188.48 526.46C189.092 526.46 189.704 526.544 190.316 526.712C190.928 526.868 191.432 527.078 191.828 527.342L191.27 528.368C190.49 527.828 189.56 527.558 188.48 527.558C187.664 527.558 187.046 527.702 186.626 527.99C186.218 528.278 186.014 528.656 186.014 529.124C186.014 529.484 186.128 529.772 186.356 529.988C186.596 530.204 186.89 530.366 187.238 530.474C187.586 530.57 188.066 530.672 188.678 530.78C189.434 530.924 190.04 531.068 190.496 531.212C190.952 531.356 191.342 531.602 191.666 531.95C191.99 532.298 192.152 532.778 192.152 533.39C192.152 534.218 191.804 534.878 191.108 535.37C190.424 535.85 189.47 536.09 188.246 536.09Z" fill="black"/>
<path d="M339.528 523.4L333.948 536H332.634L327.054 523.4H328.494L333.318 534.344L338.178 523.4H339.528ZM348.61 531.662H340.69C340.762 532.646 341.14 533.444 341.824 534.056C342.508 534.656 343.372 534.956 344.416 534.956C345.004 534.956 345.544 534.854 346.036 534.65C346.528 534.434 346.954 534.122 347.314 533.714L348.034 534.542C347.614 535.046 347.086 535.43 346.45 535.694C345.826 535.958 345.136 536.09 344.38 536.09C343.408 536.09 342.544 535.886 341.788 535.478C341.044 535.058 340.462 534.482 340.042 533.75C339.622 533.018 339.412 532.19 339.412 531.266C339.412 530.342 339.61 529.514 340.006 528.782C340.414 528.05 340.966 527.48 341.662 527.072C342.37 526.664 343.162 526.46 344.038 526.46C344.914 526.46 345.7 526.664 346.396 527.072C347.092 527.48 347.638 528.05 348.034 528.782C348.43 529.502 348.628 530.33 348.628 531.266L348.61 531.662ZM344.038 527.558C343.126 527.558 342.358 527.852 341.734 528.44C341.122 529.016 340.774 529.772 340.69 530.708H347.404C347.32 529.772 346.966 529.016 346.342 528.44C345.73 527.852 344.962 527.558 344.038 527.558ZM359.995 526.532V534.848C359.995 536.456 359.599 537.644 358.807 538.412C358.027 539.192 356.845 539.582 355.261 539.582C354.385 539.582 353.551 539.45 352.759 539.186C351.979 538.934 351.343 538.58 350.851 538.124L351.499 537.152C351.955 537.56 352.507 537.878 353.155 538.106C353.815 538.334 354.505 538.448 355.225 538.448C356.425 538.448 357.307 538.166 357.871 537.602C358.435 537.05 358.717 536.186 358.717 535.01V533.804C358.321 534.404 357.799 534.86 357.151 535.172C356.515 535.484 355.807 535.64 355.027 535.64C354.139 535.64 353.329 535.448 352.597 535.064C351.877 534.668 351.307 534.122 350.887 533.426C350.479 532.718 350.275 531.92 350.275 531.032C350.275 530.144 350.479 529.352 350.887 528.656C351.307 527.96 351.877 527.42 352.597 527.036C353.317 526.652 354.127 526.46 355.027 526.46C355.831 526.46 356.557 526.622 357.205 526.946C357.853 527.27 358.375 527.738 358.771 528.35V526.532H359.995ZM355.153 534.506C355.837 534.506 356.455 534.362 357.007 534.074C357.559 533.774 357.985 533.36 358.285 532.832C358.597 532.304 358.753 531.704 358.753 531.032C358.753 530.36 358.597 529.766 358.285 529.25C357.985 528.722 357.559 528.314 357.007 528.026C356.467 527.726 355.849 527.576 355.153 527.576C354.469 527.576 353.851 527.72 353.299 528.008C352.759 528.296 352.333 528.704 352.021 529.232C351.721 529.76 351.571 530.36 351.571 531.032C351.571 531.704 351.721 532.304 352.021 532.832C352.333 533.36 352.759 533.774 353.299 534.074C353.851 534.362 354.469 534.506 355.153 534.506ZM371.813 531.662H363.893C363.965 532.646 364.343 533.444 365.027 534.056C365.711 534.656 366.575 534.956 367.619 534.956C368.207 534.956 368.747 534.854 369.239 534.65C369.731 534.434 370.157 534.122 370.517 533.714L371.237 534.542C370.817 535.046 370.289 535.43 369.653 535.694C369.029 535.958 368.339 536.09 367.583 536.09C366.611 536.09 365.747 535.886 364.991 535.478C364.247 535.058 363.665 534.482 363.245 533.75C362.825 533.018 362.615 532.19 362.615 531.266C362.615 530.342 362.813 529.514 363.209 528.782C363.617 528.05 364.169 527.48 364.865 527.072C365.573 526.664 366.365 526.46 367.241 526.46C368.117 526.46 368.903 526.664 369.599 527.072C370.295 527.48 370.841 528.05 371.237 528.782C371.633 529.502 371.831 530.33 371.831 531.266L371.813 531.662ZM367.241 527.558C366.329 527.558 365.561 527.852 364.937 528.44C364.325 529.016 363.977 529.772 363.893 530.708H370.607C370.523 529.772 370.169 529.016 369.545 528.44C368.933 527.852 368.165 527.558 367.241 527.558ZM379.418 535.424C379.178 535.64 378.878 535.808 378.518 535.928C378.17 536.036 377.804 536.09 377.42 536.09C376.532 536.09 375.848 535.85 375.368 535.37C374.888 534.89 374.648 534.212 374.648 533.336V527.612H372.956V526.532H374.648V524.462H375.926V526.532H378.806V527.612H375.926V533.264C375.926 533.828 376.064 534.26 376.34 534.56C376.628 534.848 377.036 534.992 377.564 534.992C377.828 534.992 378.08 534.95 378.32 534.866C378.572 534.782 378.788 534.662 378.968 534.506L379.418 535.424ZM385.057 526.46C386.293 526.46 387.241 526.772 387.901 527.396C388.561 528.008 388.891 528.92 388.891 530.132V536H387.667V534.524C387.379 535.016 386.953 535.4 386.389 535.676C385.837 535.952 385.177 536.09 384.409 536.09C383.353 536.09 382.513 535.838 381.889 535.334C381.265 534.83 380.953 534.164 380.953 533.336C380.953 532.532 381.241 531.884 381.817 531.392C382.405 530.9 383.335 530.654 384.607 530.654H387.613V530.078C387.613 529.262 387.385 528.644 386.929 528.224C386.473 527.792 385.807 527.576 384.931 527.576C384.331 527.576 383.755 527.678 383.203 527.882C382.651 528.074 382.177 528.344 381.781 528.692L381.205 527.738C381.685 527.33 382.261 527.018 382.933 526.802C383.605 526.574 384.313 526.46 385.057 526.46ZM384.607 535.082C385.327 535.082 385.945 534.92 386.461 534.596C386.977 534.26 387.361 533.78 387.613 533.156V531.608H384.643C383.023 531.608 382.213 532.172 382.213 533.3C382.213 533.852 382.423 534.29 382.843 534.614C383.263 534.926 383.851 535.082 384.607 535.082ZM393.586 528.386C393.886 527.75 394.33 527.27 394.918 526.946C395.518 526.622 396.256 526.46 397.132 526.46V527.702L396.826 527.684C395.83 527.684 395.05 527.99 394.486 528.602C393.922 529.214 393.64 530.072 393.64 531.176V536H392.362V526.532H393.586V528.386ZM399.446 526.532H400.724V536H399.446V526.532ZM400.094 524.462C399.83 524.462 399.608 524.372 399.428 524.192C399.248 524.012 399.158 523.796 399.158 523.544C399.158 523.304 399.248 523.094 399.428 522.914C399.608 522.734 399.83 522.644 400.094 522.644C400.358 522.644 400.58 522.734 400.76 522.914C400.94 523.082 401.03 523.286 401.03 523.526C401.03 523.79 400.94 524.012 400.76 524.192C400.58 524.372 400.358 524.462 400.094 524.462ZM407.592 526.46C408.828 526.46 409.776 526.772 410.436 527.396C411.096 528.008 411.426 528.92 411.426 530.132V536H410.202V534.524C409.914 535.016 409.488 535.4 408.924 535.676C408.372 535.952 407.712 536.09 406.944 536.09C405.888 536.09 405.048 535.838 404.424 535.334C403.8 534.83 403.488 534.164 403.488 533.336C403.488 532.532 403.776 531.884 404.352 531.392C404.94 530.9 405.87 530.654 407.142 530.654H410.148V530.078C410.148 529.262 409.92 528.644 409.464 528.224C409.008 527.792 408.342 527.576 407.466 527.576C406.866 527.576 406.29 527.678 405.738 527.882C405.186 528.074 404.712 528.344 404.316 528.692L403.74 527.738C404.22 527.33 404.796 527.018 405.468 526.802C406.14 526.574 406.848 526.46 407.592 526.46ZM407.142 535.082C407.862 535.082 408.48 534.92 408.996 534.596C409.512 534.26 409.896 533.78 410.148 533.156V531.608H407.178C405.558 531.608 404.748 532.172 404.748 533.3C404.748 533.852 404.958 534.29 405.378 534.614C405.798 534.926 406.386 535.082 407.142 535.082ZM419.721 526.46C420.909 526.46 421.851 526.808 422.547 527.504C423.255 528.188 423.609 529.19 423.609 530.51V536H422.331V530.636C422.331 529.652 422.085 528.902 421.593 528.386C421.101 527.87 420.399 527.612 419.487 527.612C418.467 527.612 417.657 527.918 417.057 528.53C416.469 529.13 416.175 529.964 416.175 531.032V536H414.897V526.532H416.121V528.278C416.469 527.702 416.949 527.258 417.561 526.946C418.185 526.622 418.905 526.46 419.721 526.46Z" fill="black"/>
<path d="M90.35 154.4L86.102 167H84.698L81.008 156.254L77.3 167H75.914L71.666 154.4H73.034L76.67 165.236L80.432 154.4H81.674L85.382 165.29L89.072 154.4H90.35ZM97.6099 157.46C98.7979 157.46 99.7399 157.808 100.436 158.504C101.144 159.188 101.498 160.19 101.498 161.51V167H100.22V161.636C100.22 160.652 99.9739 159.902 99.4819 159.386C98.9899 158.87 98.2879 158.612 97.3759 158.612C96.3559 158.612 95.5459 158.918 94.9459 159.53C94.3579 160.13 94.0639 160.964 94.0639 162.032V167H92.7859V153.644H94.0639V159.188C94.4119 158.636 94.8919 158.21 95.5039 157.91C96.1159 157.61 96.8179 157.46 97.6099 157.46ZM108.873 167.09C107.961 167.09 107.139 166.886 106.407 166.478C105.675 166.058 105.099 165.482 104.679 164.75C104.259 164.018 104.049 163.19 104.049 162.266C104.049 161.342 104.259 160.514 104.679 159.782C105.099 159.05 105.675 158.48 106.407 158.072C107.139 157.664 107.961 157.46 108.873 157.46C109.785 157.46 110.607 157.664 111.339 158.072C112.071 158.48 112.641 159.05 113.049 159.782C113.469 160.514 113.679 161.342 113.679 162.266C113.679 163.19 113.469 164.018 113.049 164.75C112.641 165.482 112.071 166.058 111.339 166.478C110.607 166.886 109.785 167.09 108.873 167.09ZM108.873 165.956C109.545 165.956 110.145 165.806 110.673 165.506C111.213 165.194 111.633 164.756 111.933 164.192C112.233 163.628 112.383 162.986 112.383 162.266C112.383 161.546 112.233 160.904 111.933 160.34C111.633 159.776 111.213 159.344 110.673 159.044C110.145 158.732 109.545 158.576 108.873 158.576C108.201 158.576 107.595 158.732 107.055 159.044C106.527 159.344 106.107 159.776 105.795 160.34C105.495 160.904 105.345 161.546 105.345 162.266C105.345 162.986 105.495 163.628 105.795 164.192C106.107 164.756 106.527 165.194 107.055 165.506C107.595 165.806 108.201 165.956 108.873 165.956ZM116.288 153.644H117.566V167H116.288V153.644ZM129.366 162.662H121.446C121.518 163.646 121.896 164.444 122.58 165.056C123.264 165.656 124.128 165.956 125.172 165.956C125.76 165.956 126.3 165.854 126.792 165.65C127.284 165.434 127.71 165.122 128.07 164.714L128.79 165.542C128.37 166.046 127.842 166.43 127.206 166.694C126.582 166.958 125.892 167.09 125.136 167.09C124.164 167.09 123.3 166.886 122.544 166.478C121.8 166.058 121.218 165.482 120.798 164.75C120.378 164.018 120.168 163.19 120.168 162.266C120.168 161.342 120.366 160.514 120.762 159.782C121.17 159.05 121.722 158.48 122.418 158.072C123.126 157.664 123.918 157.46 124.794 157.46C125.67 157.46 126.456 157.664 127.152 158.072C127.848 158.48 128.394 159.05 128.79 159.782C129.186 160.502 129.384 161.33 129.384 162.266L129.366 162.662ZM124.794 158.558C123.882 158.558 123.114 158.852 122.49 159.44C121.878 160.016 121.53 160.772 121.446 161.708H128.16C128.076 160.772 127.722 160.016 127.098 159.44C126.486 158.852 125.718 158.558 124.794 158.558ZM140.134 159.8C141.454 159.872 142.456 160.232 143.14 160.88C143.836 161.516 144.184 162.35 144.184 163.382C144.184 164.102 144.01 164.744 143.662 165.308C143.314 165.86 142.798 166.298 142.114 166.622C141.43 166.946 140.596 167.108 139.612 167.108C138.7 167.108 137.836 166.964 137.02 166.676C136.216 166.376 135.568 165.98 135.076 165.488L135.706 164.462C136.126 164.894 136.684 165.248 137.38 165.524C138.076 165.788 138.82 165.92 139.612 165.92C140.644 165.92 141.442 165.698 142.006 165.254C142.57 164.798 142.852 164.174 142.852 163.382C142.852 162.602 142.57 161.99 142.006 161.546C141.442 161.102 140.59 160.88 139.45 160.88H138.55V159.926L142.042 155.552H135.598V154.4H143.698V155.318L140.134 159.8ZM151.032 167.108C150.06 167.108 149.19 166.85 148.422 166.334C147.666 165.818 147.072 165.08 146.64 164.12C146.22 163.148 146.01 162.008 146.01 160.7C146.01 159.392 146.22 158.258 146.64 157.298C147.072 156.326 147.666 155.582 148.422 155.066C149.19 154.55 150.06 154.292 151.032 154.292C152.004 154.292 152.868 154.55 153.624 155.066C154.392 155.582 154.992 156.326 155.424 157.298C155.856 158.258 156.072 159.392 156.072 160.7C156.072 162.008 155.856 163.148 155.424 164.12C154.992 165.08 154.392 165.818 153.624 166.334C152.868 166.85 152.004 167.108 151.032 167.108ZM151.032 165.92C151.764 165.92 152.406 165.716 152.958 165.308C153.522 164.9 153.96 164.306 154.272 163.526C154.584 162.746 154.74 161.804 154.74 160.7C154.74 159.596 154.584 158.654 154.272 157.874C153.96 157.094 153.522 156.5 152.958 156.092C152.406 155.684 151.764 155.48 151.032 155.48C150.3 155.48 149.652 155.684 149.088 156.092C148.536 156.5 148.104 157.094 147.792 157.874C147.48 158.654 147.324 159.596 147.324 160.7C147.324 161.804 147.48 162.746 147.792 163.526C148.104 164.306 148.536 164.9 149.088 165.308C149.652 165.716 150.3 165.92 151.032 165.92Z" fill="black"/>
<path d="M335.768 154.4C337.376 154.4 338.636 154.784 339.548 155.552C340.46 156.32 340.916 157.376 340.916 158.72C340.916 160.064 340.46 161.12 339.548 161.888C338.636 162.644 337.376 163.022 335.768 163.022H332.384V167H331.052V154.4H335.768ZM335.732 161.852C336.98 161.852 337.934 161.582 338.594 161.042C339.254 160.49 339.584 159.716 339.584 158.72C339.584 157.7 339.254 156.92 338.594 156.38C337.934 155.828 336.98 155.552 335.732 155.552H332.384V161.852H335.732ZM344.504 159.386C344.804 158.75 345.248 158.27 345.836 157.946C346.436 157.622 347.174 157.46 348.05 157.46V158.702L347.744 158.684C346.748 158.684 345.968 158.99 345.404 159.602C344.84 160.214 344.558 161.072 344.558 162.176V167H343.28V157.532H344.504V159.386ZM358.52 162.662H350.6C350.672 163.646 351.05 164.444 351.734 165.056C352.418 165.656 353.282 165.956 354.326 165.956C354.914 165.956 355.454 165.854 355.946 165.65C356.438 165.434 356.864 165.122 357.224 164.714L357.944 165.542C357.524 166.046 356.996 166.43 356.36 166.694C355.736 166.958 355.046 167.09 354.29 167.09C353.318 167.09 352.454 166.886 351.698 166.478C350.954 166.058 350.372 165.482 349.952 164.75C349.532 164.018 349.322 163.19 349.322 162.266C349.322 161.342 349.52 160.514 349.916 159.782C350.324 159.05 350.876 158.48 351.572 158.072C352.28 157.664 353.072 157.46 353.948 157.46C354.824 157.46 355.61 157.664 356.306 158.072C357.002 158.48 357.548 159.05 357.944 159.782C358.34 160.502 358.538 161.33 358.538 162.266L358.52 162.662ZM353.948 158.558C353.036 158.558 352.268 158.852 351.644 159.44C351.032 160.016 350.684 160.772 350.6 161.708H357.314C357.23 160.772 356.876 160.016 356.252 159.44C355.64 158.852 354.872 158.558 353.948 158.558ZM363.677 167.09C362.909 167.09 362.171 166.982 361.463 166.766C360.767 166.538 360.221 166.256 359.825 165.92L360.401 164.912C360.797 165.224 361.295 165.482 361.895 165.686C362.495 165.878 363.119 165.974 363.767 165.974C364.631 165.974 365.267 165.842 365.675 165.578C366.095 165.302 366.305 164.918 366.305 164.426C366.305 164.078 366.191 163.808 365.963 163.616C365.735 163.412 365.447 163.262 365.099 163.166C364.751 163.058 364.289 162.956 363.713 162.86C362.945 162.716 362.327 162.572 361.859 162.428C361.391 162.272 360.989 162.014 360.653 161.654C360.329 161.294 360.167 160.796 360.167 160.16C360.167 159.368 360.497 158.72 361.157 158.216C361.817 157.712 362.735 157.46 363.911 157.46C364.523 157.46 365.135 157.544 365.747 157.712C366.359 157.868 366.863 158.078 367.259 158.342L366.701 159.368C365.921 158.828 364.991 158.558 363.911 158.558C363.095 158.558 362.477 158.702 362.057 158.99C361.649 159.278 361.445 159.656 361.445 160.124C361.445 160.484 361.559 160.772 361.787 160.988C362.027 161.204 362.321 161.366 362.669 161.474C363.017 161.57 363.497 161.672 364.109 161.78C364.865 161.924 365.471 162.068 365.927 162.212C366.383 162.356 366.773 162.602 367.097 162.95C367.421 163.298 367.583 163.778 367.583 164.39C367.583 165.218 367.235 165.878 366.539 166.37C365.855 166.85 364.901 167.09 363.677 167.09ZM372.484 167.09C371.716 167.09 370.978 166.982 370.27 166.766C369.574 166.538 369.028 166.256 368.632 165.92L369.208 164.912C369.604 165.224 370.102 165.482 370.702 165.686C371.302 165.878 371.926 165.974 372.574 165.974C373.438 165.974 374.074 165.842 374.482 165.578C374.902 165.302 375.112 164.918 375.112 164.426C375.112 164.078 374.998 163.808 374.77 163.616C374.542 163.412 374.254 163.262 373.906 163.166C373.558 163.058 373.096 162.956 372.52 162.86C371.752 162.716 371.134 162.572 370.666 162.428C370.198 162.272 369.796 162.014 369.46 161.654C369.136 161.294 368.974 160.796 368.974 160.16C368.974 159.368 369.304 158.72 369.964 158.216C370.624 157.712 371.542 157.46 372.718 157.46C373.33 157.46 373.942 157.544 374.554 157.712C375.166 157.868 375.67 158.078 376.066 158.342L375.508 159.368C374.728 158.828 373.798 158.558 372.718 158.558C371.902 158.558 371.284 158.702 370.864 158.99C370.456 159.278 370.252 159.656 370.252 160.124C370.252 160.484 370.366 160.772 370.594 160.988C370.834 161.204 371.128 161.366 371.476 161.474C371.824 161.57 372.304 161.672 372.916 161.78C373.672 161.924 374.278 162.068 374.734 162.212C375.19 162.356 375.58 162.602 375.904 162.95C376.228 163.298 376.39 163.778 376.39 164.39C376.39 165.218 376.042 165.878 375.346 166.37C374.662 166.85 373.708 167.09 372.484 167.09ZM387.285 157.532V167H386.061V165.272C385.725 165.848 385.263 166.298 384.675 166.622C384.087 166.934 383.415 167.09 382.659 167.09C381.423 167.09 380.445 166.748 379.725 166.064C379.017 165.368 378.663 164.354 378.663 163.022V157.532H379.941V162.896C379.941 163.892 380.187 164.648 380.679 165.164C381.171 165.68 381.873 165.938 382.785 165.938C383.781 165.938 384.567 165.638 385.143 165.038C385.719 164.426 386.007 163.58 386.007 162.5V157.532H387.285ZM392.088 159.386C392.388 158.75 392.832 158.27 393.42 157.946C394.02 157.622 394.758 157.46 395.634 157.46V158.702L395.328 158.684C394.332 158.684 393.552 158.99 392.988 159.602C392.424 160.214 392.142 161.072 392.142 162.176V167H390.864V157.532H392.088V159.386ZM406.104 162.662H398.184C398.256 163.646 398.634 164.444 399.318 165.056C400.002 165.656 400.866 165.956 401.91 165.956C402.498 165.956 403.038 165.854 403.53 165.65C404.022 165.434 404.448 165.122 404.808 164.714L405.528 165.542C405.108 166.046 404.58 166.43 403.944 166.694C403.32 166.958 402.63 167.09 401.874 167.09C400.902 167.09 400.038 166.886 399.282 166.478C398.538 166.058 397.956 165.482 397.536 164.75C397.116 164.018 396.906 163.19 396.906 162.266C396.906 161.342 397.104 160.514 397.5 159.782C397.908 159.05 398.46 158.48 399.156 158.072C399.864 157.664 400.656 157.46 401.532 157.46C402.408 157.46 403.194 157.664 403.89 158.072C404.586 158.48 405.132 159.05 405.528 159.782C405.924 160.502 406.122 161.33 406.122 162.266L406.104 162.662ZM401.532 158.558C400.62 158.558 399.852 158.852 399.228 159.44C398.616 160.016 398.268 160.772 398.184 161.708H404.898C404.814 160.772 404.46 160.016 403.836 159.44C403.224 158.852 402.456 158.558 401.532 158.558ZM419.176 167.108C417.928 167.108 416.8 166.832 415.792 166.28C414.796 165.728 414.01 164.966 413.434 163.994C412.87 163.01 412.588 161.912 412.588 160.7C412.588 159.488 412.87 158.396 413.434 157.424C414.01 156.44 414.802 155.672 415.81 155.12C416.818 154.568 417.946 154.292 419.194 154.292C420.13 154.292 420.994 154.448 421.786 154.76C422.578 155.072 423.25 155.528 423.802 156.128L422.956 156.974C421.972 155.978 420.73 155.48 419.23 155.48C418.234 155.48 417.328 155.708 416.512 156.164C415.696 156.62 415.054 157.244 414.586 158.036C414.13 158.828 413.902 159.716 413.902 160.7C413.902 161.684 414.13 162.572 414.586 163.364C415.054 164.156 415.696 164.78 416.512 165.236C417.328 165.692 418.234 165.92 419.23 165.92C420.742 165.92 421.984 165.416 422.956 164.408L423.802 165.254C423.25 165.854 422.572 166.316 421.768 166.64C420.976 166.952 420.112 167.108 419.176 167.108ZM429.82 167.09C428.908 167.09 428.086 166.886 427.354 166.478C426.622 166.058 426.046 165.482 425.626 164.75C425.206 164.018 424.996 163.19 424.996 162.266C424.996 161.342 425.206 160.514 425.626 159.782C426.046 159.05 426.622 158.48 427.354 158.072C428.086 157.664 428.908 157.46 429.82 157.46C430.732 157.46 431.554 157.664 432.286 158.072C433.018 158.48 433.588 159.05 433.996 159.782C434.416 160.514 434.626 161.342 434.626 162.266C434.626 163.19 434.416 164.018 433.996 164.75C433.588 165.482 433.018 166.058 432.286 166.478C431.554 166.886 430.732 167.09 429.82 167.09ZM429.82 165.956C430.492 165.956 431.092 165.806 431.62 165.506C432.16 165.194 432.58 164.756 432.88 164.192C433.18 163.628 433.33 162.986 433.33 162.266C433.33 161.546 433.18 160.904 432.88 160.34C432.58 159.776 432.16 159.344 431.62 159.044C431.092 158.732 430.492 158.576 429.82 158.576C429.148 158.576 428.542 158.732 428.002 159.044C427.474 159.344 427.054 159.776 426.742 160.34C426.442 160.904 426.292 161.546 426.292 162.266C426.292 162.986 426.442 163.628 426.742 164.192C427.054 164.756 427.474 165.194 428.002 165.506C428.542 165.806 429.148 165.956 429.82 165.956ZM441.105 167.09C440.193 167.09 439.371 166.886 438.639 166.478C437.907 166.058 437.331 165.482 436.911 164.75C436.491 164.018 436.281 163.19 436.281 162.266C436.281 161.342 436.491 160.514 436.911 159.782C437.331 159.05 437.907 158.48 438.639 158.072C439.371 157.664 440.193 157.46 441.105 157.46C442.017 157.46 442.839 157.664 443.571 158.072C444.303 158.48 444.873 159.05 445.281 159.782C445.701 160.514 445.911 161.342 445.911 162.266C445.911 163.19 445.701 164.018 445.281 164.75C444.873 165.482 444.303 166.058 443.571 166.478C442.839 166.886 442.017 167.09 441.105 167.09ZM441.105 165.956C441.777 165.956 442.377 165.806 442.905 165.506C443.445 165.194 443.865 164.756 444.165 164.192C444.465 163.628 444.615 162.986 444.615 162.266C444.615 161.546 444.465 160.904 444.165 160.34C443.865 159.776 443.445 159.344 442.905 159.044C442.377 158.732 441.777 158.576 441.105 158.576C440.433 158.576 439.827 158.732 439.287 159.044C438.759 159.344 438.339 159.776 438.027 160.34C437.727 160.904 437.577 161.546 437.577 162.266C437.577 162.986 437.727 163.628 438.027 164.192C438.339 164.756 438.759 165.194 439.287 165.506C439.827 165.806 440.433 165.956 441.105 165.956ZM452.03 162.248L449.798 164.3V167H448.52V153.644H449.798V162.698L455.45 157.532H457.034L452.984 161.402L457.412 167H455.846L452.03 162.248ZM467.188 162.662H459.268C459.34 163.646 459.718 164.444 460.402 165.056C461.086 165.656 461.95 165.956 462.994 165.956C463.582 165.956 464.122 165.854 464.614 165.65C465.106 165.434 465.532 165.122 465.892 164.714L466.612 165.542C466.192 166.046 465.664 166.43 465.028 166.694C464.404 166.958 463.714 167.09 462.958 167.09C461.986 167.09 461.122 166.886 460.366 166.478C459.622 166.058 459.04 165.482 458.62 164.75C458.2 164.018 457.99 163.19 457.99 162.266C457.99 161.342 458.188 160.514 458.584 159.782C458.992 159.05 459.544 158.48 460.24 158.072C460.948 157.664 461.74 157.46 462.616 157.46C463.492 157.46 464.278 157.664 464.974 158.072C465.67 158.48 466.216 159.05 466.612 159.782C467.008 160.502 467.206 161.33 467.206 162.266L467.188 162.662ZM462.616 158.558C461.704 158.558 460.936 158.852 460.312 159.44C459.7 160.016 459.352 160.772 459.268 161.708H465.982C465.898 160.772 465.544 160.016 464.92 159.44C464.308 158.852 463.54 158.558 462.616 158.558ZM471.031 159.386C471.331 158.75 471.775 158.27 472.363 157.946C472.963 157.622 473.701 157.46 474.577 157.46V158.702L474.271 158.684C473.275 158.684 472.495 158.99 471.931 159.602C471.367 160.214 471.085 161.072 471.085 162.176V167H469.807V157.532H471.031V159.386Z" fill="black"/>
<circle cx="29.8676" cy="157.868" r="26.8676" fill="#C7D14C"/>
<path d="M42.7646 150.347L37.2686 167.147H33.0926L29.3966 155.771L25.5806 167.147H21.4286L15.9086 150.347H19.9406L23.7326 162.155L27.6926 150.347H31.2926L35.1326 162.251L39.0446 150.347H42.7646Z" fill="white"/>
<circle cx="287.868" cy="157.868" r="26.8676" fill="#581818"/>
<path d="M279.012 150.347C280.5 150.347 281.788 150.595 282.876 151.091C283.98 151.587 284.828 152.291 285.42 153.203C286.012 154.115 286.308 155.195 286.308 156.443C286.308 157.675 286.012 158.755 285.42 159.683C284.828 160.595 283.98 161.299 282.876 161.795C281.788 162.275 280.5 162.515 279.012 162.515H275.628V167.147H271.74V150.347H279.012ZM278.796 159.347C279.964 159.347 280.852 159.099 281.46 158.603C282.068 158.091 282.372 157.371 282.372 156.443C282.372 155.499 282.068 154.779 281.46 154.283C280.852 153.771 279.964 153.515 278.796 153.515H275.628V159.347H278.796ZM297.358 167.435C295.646 167.435 294.094 167.067 292.702 166.331C291.326 165.579 290.238 164.547 289.438 163.235C288.654 161.907 288.262 160.411 288.262 158.747C288.262 157.083 288.654 155.595 289.438 154.283C290.238 152.955 291.326 151.923 292.702 151.187C294.094 150.435 295.654 150.059 297.382 150.059C298.838 150.059 300.15 150.315 301.318 150.827C302.502 151.339 303.494 152.075 304.294 153.035L301.798 155.339C300.662 154.027 299.254 153.371 297.574 153.371C296.534 153.371 295.606 153.603 294.79 154.067C293.974 154.515 293.334 155.147 292.87 155.963C292.422 156.779 292.198 157.707 292.198 158.747C292.198 159.787 292.422 160.715 292.87 161.531C293.334 162.347 293.974 162.987 294.79 163.451C295.606 163.899 296.534 164.123 297.574 164.123C299.254 164.123 300.662 163.459 301.798 162.131L304.294 164.435C303.494 165.411 302.502 166.155 301.318 166.667C300.134 167.179 298.814 167.435 297.358 167.435Z" fill="white"/>
<path d="M74.958 86.078L72.384 88.688V92H71.052V79.4H72.384V87.014L79.782 79.4H81.312L75.858 85.106L81.69 92H80.106L74.958 86.078ZM91.3834 87.662H83.4634C83.5354 88.646 83.9134 89.444 84.5974 90.056C85.2814 90.656 86.1454 90.956 87.1894 90.956C87.7774 90.956 88.3174 90.854 88.8094 90.65C89.3014 90.434 89.7274 90.122 90.0874 89.714L90.8074 90.542C90.3874 91.046 89.8594 91.43 89.2234 91.694C88.5994 91.958 87.9094 92.09 87.1534 92.09C86.1814 92.09 85.3174 91.886 84.5614 91.478C83.8174 91.058 83.2354 90.482 82.8154 89.75C82.3954 89.018 82.1854 88.19 82.1854 87.266C82.1854 86.342 82.3834 85.514 82.7794 84.782C83.1874 84.05 83.7394 83.48 84.4354 83.072C85.1434 82.664 85.9354 82.46 86.8114 82.46C87.6874 82.46 88.4734 82.664 89.1694 83.072C89.8654 83.48 90.4114 84.05 90.8074 84.782C91.2034 85.502 91.4014 86.33 91.4014 87.266L91.3834 87.662ZM86.8114 83.558C85.8994 83.558 85.1314 83.852 84.5074 84.44C83.8954 85.016 83.5474 85.772 83.4634 86.708H90.1774C90.0934 85.772 89.7394 85.016 89.1154 84.44C88.5034 83.852 87.7354 83.558 86.8114 83.558ZM98.9887 91.424C98.7487 91.64 98.4487 91.808 98.0887 91.928C97.7407 92.036 97.3747 92.09 96.9907 92.09C96.1027 92.09 95.4187 91.85 94.9387 91.37C94.4587 90.89 94.2187 90.212 94.2187 89.336V83.612H92.5267V82.532H94.2187V80.462H95.4967V82.532H98.3767V83.612H95.4967V89.264C95.4967 89.828 95.6347 90.26 95.9107 90.56C96.1987 90.848 96.6067 90.992 97.1347 90.992C97.3987 90.992 97.6507 90.95 97.8907 90.866C98.1427 90.782 98.3587 90.662 98.5387 90.506L98.9887 91.424ZM104.851 92.09C103.939 92.09 103.117 91.886 102.385 91.478C101.653 91.058 101.077 90.482 100.657 89.75C100.237 89.018 100.027 88.19 100.027 87.266C100.027 86.342 100.237 85.514 100.657 84.782C101.077 84.05 101.653 83.48 102.385 83.072C103.117 82.664 103.939 82.46 104.851 82.46C105.763 82.46 106.585 82.664 107.317 83.072C108.049 83.48 108.619 84.05 109.027 84.782C109.447 85.514 109.657 86.342 109.657 87.266C109.657 88.19 109.447 89.018 109.027 89.75C108.619 90.482 108.049 91.058 107.317 91.478C106.585 91.886 105.763 92.09 104.851 92.09ZM104.851 90.956C105.523 90.956 106.123 90.806 106.651 90.506C107.191 90.194 107.611 89.756 107.911 89.192C108.211 88.628 108.361 87.986 108.361 87.266C108.361 86.546 108.211 85.904 107.911 85.34C107.611 84.776 107.191 84.344 106.651 84.044C106.123 83.732 105.523 83.576 104.851 83.576C104.179 83.576 103.573 83.732 103.033 84.044C102.505 84.344 102.085 84.776 101.773 85.34C101.473 85.904 101.323 86.546 101.323 87.266C101.323 87.986 101.473 88.628 101.773 89.192C102.085 89.756 102.505 90.194 103.033 90.506C103.573 90.806 104.179 90.956 104.851 90.956Z" fill="black"/>
<path d="M332.526 92.108C331.59 92.108 330.69 91.958 329.826 91.658C328.974 91.358 328.314 90.962 327.846 90.47L328.368 89.444C328.824 89.9 329.43 90.272 330.186 90.56C330.942 90.836 331.722 90.974 332.526 90.974C333.654 90.974 334.5 90.77 335.064 90.362C335.628 89.942 335.91 89.402 335.91 88.742C335.91 88.238 335.754 87.836 335.442 87.536C335.142 87.236 334.77 87.008 334.326 86.852C333.882 86.684 333.264 86.504 332.472 86.312C331.524 86.072 330.768 85.844 330.204 85.628C329.64 85.4 329.154 85.058 328.746 84.602C328.35 84.146 328.152 83.528 328.152 82.748C328.152 82.112 328.32 81.536 328.656 81.02C328.992 80.492 329.508 80.072 330.204 79.76C330.9 79.448 331.764 79.292 332.796 79.292C333.516 79.292 334.218 79.394 334.902 79.598C335.598 79.79 336.198 80.06 336.702 80.408L336.252 81.47C335.724 81.122 335.16 80.864 334.56 80.696C333.96 80.516 333.372 80.426 332.796 80.426C331.692 80.426 330.858 80.642 330.294 81.074C329.742 81.494 329.466 82.04 329.466 82.712C329.466 83.216 329.616 83.624 329.916 83.936C330.228 84.236 330.612 84.47 331.068 84.638C331.536 84.794 332.16 84.968 332.94 85.16C333.864 85.388 334.608 85.616 335.172 85.844C335.748 86.06 336.234 86.396 336.63 86.852C337.026 87.296 337.224 87.902 337.224 88.67C337.224 89.306 337.05 89.888 336.702 90.416C336.366 90.932 335.844 91.346 335.136 91.658C334.428 91.958 333.558 92.108 332.526 92.108ZM339.856 78.644H341.134V92H339.856V78.644ZM348.56 92.09C347.648 92.09 346.826 91.886 346.094 91.478C345.362 91.058 344.786 90.482 344.366 89.75C343.946 89.018 343.736 88.19 343.736 87.266C343.736 86.342 343.946 85.514 344.366 84.782C344.786 84.05 345.362 83.48 346.094 83.072C346.826 82.664 347.648 82.46 348.56 82.46C349.472 82.46 350.294 82.664 351.026 83.072C351.758 83.48 352.328 84.05 352.736 84.782C353.156 85.514 353.366 86.342 353.366 87.266C353.366 88.19 353.156 89.018 352.736 89.75C352.328 90.482 351.758 91.058 351.026 91.478C350.294 91.886 349.472 92.09 348.56 92.09ZM348.56 90.956C349.232 90.956 349.832 90.806 350.36 90.506C350.9 90.194 351.32 89.756 351.62 89.192C351.92 88.628 352.07 87.986 352.07 87.266C352.07 86.546 351.92 85.904 351.62 85.34C351.32 84.776 350.9 84.344 350.36 84.044C349.832 83.732 349.232 83.576 348.56 83.576C347.888 83.576 347.282 83.732 346.742 84.044C346.214 84.344 345.794 84.776 345.482 85.34C345.182 85.904 345.032 86.546 345.032 87.266C345.032 87.986 345.182 88.628 345.482 89.192C345.794 89.756 346.214 90.194 346.742 90.506C347.282 90.806 347.888 90.956 348.56 90.956ZM369.608 82.532L366.026 92H364.82L361.832 84.242L358.844 92H357.638L354.074 82.532H355.298L358.268 90.578L361.31 82.532H362.408L365.432 90.578L368.438 82.532H369.608ZM381.985 92.108C380.737 92.108 379.609 91.832 378.601 91.28C377.605 90.728 376.819 89.966 376.243 88.994C375.679 88.01 375.397 86.912 375.397 85.7C375.397 84.488 375.679 83.396 376.243 82.424C376.819 81.44 377.611 80.672 378.619 80.12C379.627 79.568 380.755 79.292 382.003 79.292C382.939 79.292 383.803 79.448 384.595 79.76C385.387 80.072 386.059 80.528 386.611 81.128L385.765 81.974C384.781 80.978 383.539 80.48 382.039 80.48C381.043 80.48 380.137 80.708 379.321 81.164C378.505 81.62 377.863 82.244 377.395 83.036C376.939 83.828 376.711 84.716 376.711 85.7C376.711 86.684 376.939 87.572 377.395 88.364C377.863 89.156 378.505 89.78 379.321 90.236C380.137 90.692 381.043 90.92 382.039 90.92C383.551 90.92 384.793 90.416 385.765 89.408L386.611 90.254C386.059 90.854 385.381 91.316 384.577 91.64C383.785 91.952 382.921 92.108 381.985 92.108ZM392.629 92.09C391.717 92.09 390.895 91.886 390.163 91.478C389.431 91.058 388.855 90.482 388.435 89.75C388.015 89.018 387.805 88.19 387.805 87.266C387.805 86.342 388.015 85.514 388.435 84.782C388.855 84.05 389.431 83.48 390.163 83.072C390.895 82.664 391.717 82.46 392.629 82.46C393.541 82.46 394.363 82.664 395.095 83.072C395.827 83.48 396.397 84.05 396.805 84.782C397.225 85.514 397.435 86.342 397.435 87.266C397.435 88.19 397.225 89.018 396.805 89.75C396.397 90.482 395.827 91.058 395.095 91.478C394.363 91.886 393.541 92.09 392.629 92.09ZM392.629 90.956C393.301 90.956 393.901 90.806 394.429 90.506C394.969 90.194 395.389 89.756 395.689 89.192C395.989 88.628 396.139 87.986 396.139 87.266C396.139 86.546 395.989 85.904 395.689 85.34C395.389 84.776 394.969 84.344 394.429 84.044C393.901 83.732 393.301 83.576 392.629 83.576C391.957 83.576 391.351 83.732 390.811 84.044C390.283 84.344 389.863 84.776 389.551 85.34C389.251 85.904 389.101 86.546 389.101 87.266C389.101 87.986 389.251 88.628 389.551 89.192C389.863 89.756 390.283 90.194 390.811 90.506C391.351 90.806 391.957 90.956 392.629 90.956ZM403.914 92.09C403.002 92.09 402.18 91.886 401.448 91.478C400.716 91.058 400.14 90.482 399.72 89.75C399.3 89.018 399.09 88.19 399.09 87.266C399.09 86.342 399.3 85.514 399.72 84.782C400.14 84.05 400.716 83.48 401.448 83.072C402.18 82.664 403.002 82.46 403.914 82.46C404.826 82.46 405.648 82.664 406.38 83.072C407.112 83.48 407.682 84.05 408.09 84.782C408.51 85.514 408.72 86.342 408.72 87.266C408.72 88.19 408.51 89.018 408.09 89.75C407.682 90.482 407.112 91.058 406.38 91.478C405.648 91.886 404.826 92.09 403.914 92.09ZM403.914 90.956C404.586 90.956 405.186 90.806 405.714 90.506C406.254 90.194 406.674 89.756 406.974 89.192C407.274 88.628 407.424 87.986 407.424 87.266C407.424 86.546 407.274 85.904 406.974 85.34C406.674 84.776 406.254 84.344 405.714 84.044C405.186 83.732 404.586 83.576 403.914 83.576C403.242 83.576 402.636 83.732 402.096 84.044C401.568 84.344 401.148 84.776 400.836 85.34C400.536 85.904 400.386 86.546 400.386 87.266C400.386 87.986 400.536 88.628 400.836 89.192C401.148 89.756 401.568 90.194 402.096 90.506C402.636 90.806 403.242 90.956 403.914 90.956ZM414.839 87.248L412.607 89.3V92H411.329V78.644H412.607V87.698L418.259 82.532H419.843L415.793 86.402L420.221 92H418.655L414.839 87.248ZM429.997 87.662H422.077C422.149 88.646 422.527 89.444 423.211 90.056C423.895 90.656 424.759 90.956 425.803 90.956C426.391 90.956 426.931 90.854 427.423 90.65C427.915 90.434 428.341 90.122 428.701 89.714L429.421 90.542C429.001 91.046 428.473 91.43 427.837 91.694C427.213 91.958 426.523 92.09 425.767 92.09C424.795 92.09 423.931 91.886 423.175 91.478C422.431 91.058 421.849 90.482 421.429 89.75C421.009 89.018 420.799 88.19 420.799 87.266C420.799 86.342 420.997 85.514 421.393 84.782C421.801 84.05 422.353 83.48 423.049 83.072C423.757 82.664 424.549 82.46 425.425 82.46C426.301 82.46 427.087 82.664 427.783 83.072C428.479 83.48 429.025 84.05 429.421 84.782C429.817 85.502 430.015 86.33 430.015 87.266L429.997 87.662ZM425.425 83.558C424.513 83.558 423.745 83.852 423.121 84.44C422.509 85.016 422.161 85.772 422.077 86.708H428.791C428.707 85.772 428.353 85.016 427.729 84.44C427.117 83.852 426.349 83.558 425.425 83.558ZM433.84 84.386C434.14 83.75 434.584 83.27 435.172 82.946C435.772 82.622 436.51 82.46 437.386 82.46V83.702L437.08 83.684C436.084 83.684 435.304 83.99 434.74 84.602C434.176 85.214 433.894 86.072 433.894 87.176V92H432.616V82.532H433.84V84.386Z" fill="black"/>
<circle cx="29.8676" cy="83.8676" r="26.8676" fill="#FCE404"/>
<path d="M30.0981 85.5143L27.8421 87.8663V92.1143H23.9781V75.3143H27.8421V83.1623L35.2821 75.3143H39.6021L32.6421 82.8023L40.0101 92.1143H35.4741L30.0981 85.5143Z" fill="white"/>
<circle cx="287.868" cy="83.8676" r="26.8676" fill="#CF5700"/>
<path d="M279.928 92.4023C278.6 92.4023 277.312 92.2263 276.064 91.8743C274.832 91.5063 273.84 91.0343 273.088 90.4583L274.408 87.5303C275.128 88.0583 275.984 88.4823 276.976 88.8023C277.968 89.1223 278.96 89.2823 279.952 89.2823C281.056 89.2823 281.872 89.1223 282.4 88.8023C282.928 88.4663 283.192 88.0263 283.192 87.4823C283.192 87.0823 283.032 86.7543 282.712 86.4983C282.408 86.2263 282.008 86.0103 281.512 85.8503C281.032 85.6903 280.376 85.5143 279.544 85.3223C278.264 85.0183 277.216 84.7143 276.4 84.4103C275.584 84.1063 274.88 83.6183 274.288 82.9463C273.712 82.2743 273.424 81.3783 273.424 80.2583C273.424 79.2823 273.688 78.4023 274.216 77.6183C274.744 76.8183 275.536 76.1863 276.592 75.7223C277.664 75.2583 278.968 75.0263 280.504 75.0263C281.576 75.0263 282.624 75.1543 283.648 75.4103C284.672 75.6663 285.568 76.0343 286.336 76.5143L285.136 79.4663C283.584 78.5863 282.032 78.1463 280.48 78.1463C279.392 78.1463 278.584 78.3223 278.056 78.6743C277.544 79.0263 277.288 79.4903 277.288 80.0663C277.288 80.6423 277.584 81.0743 278.176 81.3623C278.784 81.6343 279.704 81.9063 280.936 82.1783C282.216 82.4823 283.264 82.7863 284.08 83.0903C284.896 83.3943 285.592 83.8743 286.168 84.5303C286.76 85.1863 287.056 86.0743 287.056 87.1943C287.056 88.1543 286.784 89.0343 286.24 89.8343C285.712 90.6183 284.912 91.2423 283.84 91.7063C282.768 92.1703 281.464 92.4023 279.928 92.4023ZM297.752 92.4023C296.04 92.4023 294.488 92.0343 293.096 91.2983C291.72 90.5463 290.632 89.5143 289.832 88.2023C289.048 86.8743 288.656 85.3783 288.656 83.7143C288.656 82.0503 289.048 80.5623 289.832 79.2503C290.632 77.9223 291.72 76.8903 293.096 76.1543C294.488 75.4023 296.048 75.0263 297.776 75.0263C299.232 75.0263 300.544 75.2823 301.712 75.7943C302.896 76.3063 303.888 77.0423 304.688 78.0023L302.192 80.3063C301.056 78.9943 299.648 78.3383 297.968 78.3383C296.928 78.3383 296 78.5703 295.184 79.0343C294.368 79.4823 293.728 80.1143 293.264 80.9303C292.816 81.7463 292.592 82.6743 292.592 83.7143C292.592 84.7543 292.816 85.6823 293.264 86.4983C293.728 87.3143 294.368 87.9543 295.184 88.4183C296 88.8663 296.928 89.0903 297.968 89.0903C299.648 89.0903 301.056 88.4263 302.192 87.0983L304.688 89.4023C303.888 90.3783 302.896 91.1223 301.712 91.6343C300.528 92.1463 299.208 92.4023 297.752 92.4023Z" fill="white"/>
<circle cx="29.8676" cy="231.868" r="26.8676" fill="#F58721"/>
<path d="M30.3438 223.315C31.8318 223.315 33.1199 223.563 34.2079 224.059C35.3119 224.555 36.1599 225.259 36.7519 226.171C37.3439 227.083 37.6399 228.163 37.6399 229.411C37.6399 230.643 37.3439 231.723 36.7519 232.651C36.1599 233.563 35.3119 234.267 34.2079 234.763C33.1199 235.243 31.8318 235.483 30.3438 235.483H26.9598V240.115H23.0718V223.315H30.3438ZM30.1278 232.315C31.2958 232.315 32.1838 232.067 32.7919 231.571C33.3998 231.059 33.7038 230.339 33.7038 229.411C33.7038 228.467 33.3998 227.747 32.7919 227.251C32.1838 226.739 31.2958 226.483 30.1278 226.483H26.9598V232.315H30.1278Z" fill="white"/>
<circle cx="287.868" cy="231.868" r="26.8676" fill="#FF8F8F"/>
<path d="M284.073 236.515H276.273L274.785 240.115H270.801L278.289 223.315H282.129L289.641 240.115H285.561L284.073 236.515ZM282.849 233.563L280.185 227.131L277.521 233.563H282.849ZM295.272 226.435V230.875H303.048V233.995H295.272V240.115H291.384V223.315H304.08V226.435H295.272Z" fill="white"/>
<circle cx="29.8676" cy="305.868" r="26.8676" fill="#5AA895"/>
<path d="M26.291 305.451H29.843V312.267C28.931 312.955 27.875 313.483 26.675 313.851C25.475 314.219 24.267 314.403 23.051 314.403C21.307 314.403 19.739 314.035 18.347 313.299C16.955 312.547 15.859 311.515 15.059 310.203C14.275 308.875 13.883 307.379 13.883 305.715C13.883 304.051 14.275 302.563 15.059 301.251C15.859 299.923 16.963 298.891 18.371 298.155C19.779 297.403 21.363 297.027 23.123 297.027C24.595 297.027 25.931 297.275 27.131 297.771C28.331 298.267 29.339 298.987 30.155 299.931L27.659 302.235C26.459 300.971 25.011 300.339 23.315 300.339C22.243 300.339 21.291 300.563 20.459 301.011C19.627 301.459 18.979 302.091 18.515 302.907C18.051 303.723 17.819 304.659 17.819 305.715C17.819 306.755 18.051 307.683 18.515 308.499C18.979 309.315 19.619 309.955 20.435 310.419C21.267 310.867 22.211 311.091 23.267 311.091C24.387 311.091 25.395 310.851 26.291 310.371V305.451ZM37.3427 300.435V304.875H45.1187V307.995H37.3427V314.115H33.4547V297.315H46.1507V300.435H37.3427Z" fill="white"/>
<circle cx="287.868" cy="305.868" r="26.8676" fill="#E91515"/>
<path d="M297.904 315.915C297.36 316.587 296.696 317.099 295.912 317.451C295.144 317.803 294.296 317.979 293.368 317.979C292.12 317.979 290.992 317.707 289.984 317.163C288.976 316.635 287.824 315.691 286.528 314.331C285.008 314.139 283.648 313.651 282.448 312.867C281.264 312.083 280.336 311.075 279.664 309.843C279.008 308.595 278.68 307.219 278.68 305.715C278.68 304.067 279.072 302.587 279.856 301.275C280.656 299.947 281.752 298.907 283.144 298.155C284.552 297.403 286.128 297.027 287.872 297.027C289.616 297.027 291.184 297.403 292.576 298.155C293.968 298.907 295.064 299.947 295.864 301.275C296.664 302.587 297.064 304.067 297.064 305.715C297.064 307.667 296.512 309.379 295.408 310.851C294.32 312.323 292.872 313.347 291.064 313.923C291.464 314.339 291.848 314.635 292.216 314.811C292.6 315.003 293.008 315.099 293.44 315.099C294.48 315.099 295.392 314.683 296.176 313.851L297.904 315.915ZM282.616 305.715C282.616 306.755 282.84 307.683 283.288 308.499C283.752 309.315 284.384 309.955 285.184 310.419C285.984 310.867 286.88 311.091 287.872 311.091C288.864 311.091 289.76 310.867 290.56 310.419C291.36 309.955 291.984 309.315 292.432 308.499C292.896 307.683 293.128 306.755 293.128 305.715C293.128 304.675 292.896 303.747 292.432 302.931C291.984 302.115 291.36 301.483 290.56 301.035C289.76 300.571 288.864 300.339 287.872 300.339C286.88 300.339 285.984 300.571 285.184 301.035C284.384 301.483 283.752 302.115 283.288 302.931C282.84 303.747 282.616 304.675 282.616 305.715Z" fill="white"/>
<circle cx="29.8676" cy="379.868" r="26.8676" fill="#FF5934"/>
<path d="M21.434 381.515L19.178 383.867V388.115H15.314V371.315H19.178V379.163L26.618 371.315H30.938L23.978 378.803L31.346 388.115H26.81L21.434 381.515ZM36.9677 374.435V378.875H44.7437V381.995H36.9677V388.115H33.0797V371.315H45.7757V374.435H36.9677Z" fill="white"/>
<circle cx="287.868" cy="379.868" r="26.8676" fill="#A6CE51"/>
<path d="M273.959 371.315H277.847V384.947H286.271V388.115H273.959V371.315ZM296.202 388.403C294.49 388.403 292.938 388.035 291.546 387.299C290.17 386.547 289.082 385.515 288.282 384.203C287.498 382.875 287.106 381.379 287.106 379.715C287.106 378.051 287.498 376.563 288.282 375.251C289.082 373.923 290.17 372.891 291.546 372.155C292.938 371.403 294.498 371.027 296.226 371.027C297.682 371.027 298.994 371.283 300.162 371.795C301.346 372.307 302.338 373.043 303.138 374.003L300.642 376.307C299.506 374.995 298.098 374.339 296.418 374.339C295.378 374.339 294.45 374.571 293.634 375.035C292.818 375.483 292.178 376.115 291.714 376.931C291.266 377.747 291.042 378.675 291.042 379.715C291.042 380.755 291.266 381.683 291.714 382.499C292.178 383.315 292.818 383.955 293.634 384.419C294.45 384.867 295.378 385.091 296.418 385.091C298.098 385.091 299.506 384.427 300.642 383.099L303.138 385.403C302.338 386.379 301.346 387.123 300.162 387.635C298.978 388.147 297.658 388.403 296.202 388.403Z" fill="white"/>
<circle cx="29.8676" cy="453.868" r="26.8676" fill="#55C7F8"/>
<path d="M26.8989 462.115L26.8749 452.035L21.9309 460.339H20.1789L15.2589 452.251V462.115H11.6109V445.315H14.8269L21.1149 455.755L27.3069 445.315H30.4989L30.5469 462.115H26.8989ZM41.8048 445.315C43.2928 445.315 44.5808 445.563 45.6688 446.059C46.7728 446.555 47.6208 447.259 48.2128 448.171C48.8048 449.083 49.1008 450.163 49.1008 451.411C49.1008 452.643 48.8048 453.723 48.2128 454.651C47.6208 455.563 46.7728 456.267 45.6688 456.763C44.5808 457.243 43.2928 457.483 41.8048 457.483H38.4208V462.115H34.5328V445.315H41.8048ZM41.5888 454.315C42.7568 454.315 43.6448 454.067 44.2528 453.571C44.8608 453.059 45.1648 452.339 45.1648 451.411C45.1648 450.467 44.8608 449.747 44.2528 449.251C43.6448 448.739 42.7568 448.483 41.5888 448.483H38.4208V454.315H41.5888Z" fill="white"/>
<circle cx="287.868" cy="453.868" r="26.8676" fill="#F9AB15"/>
<path d="M272.283 445.315H279.915C281.739 445.315 283.347 445.667 284.739 446.371C286.147 447.059 287.235 448.035 288.003 449.299C288.787 450.563 289.179 452.035 289.179 453.715C289.179 455.395 288.787 456.867 288.003 458.131C287.235 459.395 286.147 460.379 284.739 461.083C283.347 461.771 281.739 462.115 279.915 462.115H272.283V445.315ZM279.723 458.923C281.403 458.923 282.739 458.459 283.731 457.531C284.739 456.587 285.243 455.315 285.243 453.715C285.243 452.115 284.739 450.851 283.731 449.923C282.739 448.979 281.403 448.507 279.723 448.507H276.171V458.923H279.723ZM295.999 448.435V452.875H303.775V455.995H295.999V462.115H292.111V445.315H304.807V448.435H295.999Z" fill="white"/>
<circle cx="29.8676" cy="527.868" r="26.8676" fill="#3EF5F5"/>
<path d="M16.6239 522.435V526.875H24.3999V529.995H16.6239V536.115H12.7359V519.315H25.4319V522.435H16.6239ZM43.352 536.115L43.328 526.035L38.384 534.339H36.632L31.712 526.251V536.115H28.064V519.315H31.28L37.568 529.755L43.76 519.315H46.952L47 536.115H43.352Z" fill="white"/>
<circle cx="287.868" cy="527.868" r="26.8676" fill="#03A832"/>
<path d="M297.06 519.315L289.788 536.115H285.948L278.7 519.315H282.9L288.012 531.315L293.196 519.315H297.06Z" fill="white"/>
</svg>
